<svg width="455" height="338" viewBox="0 0 455 338" fill="none" xmlns="http://www.w3.org/2000/svg">
<g filter="url(#filter0_i_450_1075)">
<path d="M292.091 150.313L291.387 134.561L408.11 111.315C409.064 111.125 410.045 111.12 411.002 111.298L414.055 111.868C419.116 112.812 420.837 119.192 416.938 122.554C416.161 123.224 415.229 123.689 414.226 123.906L292.091 150.313Z" fill="#E8A020"/>
</g>
<g filter="url(#filter1_i_450_1075)">
<path d="M266.131 162.985L269.772 146.306L291.622 139.823L291.778 143.32L276.972 147.986L277.389 157.31L266.131 162.985Z" fill="#83919E"/>
</g>
<g filter="url(#filter2_i_450_1075)">
<path d="M269.443 136.31L54.6575 145.913L60.8753 166.174C67.562 187.964 88.1385 202.474 110.908 201.456L218.373 196.651C241.143 195.633 260.342 179.345 265.058 157.046L269.443 136.31Z" fill="#9AAAB8"/>
</g>
<path d="M269.443 136.31L54.6575 145.913L60.8753 166.174C67.562 187.964 88.1385 202.474 110.908 201.456L218.373 196.651C241.143 195.633 260.342 179.345 265.058 157.046L269.443 136.31Z" stroke="#9AAAB8"/>
<g filter="url(#filter3_i_450_1075)">
<ellipse cx="161.715" cy="139.963" rx="108.5" ry="16" transform="rotate(-3.0516 161.715 139.963)" fill="#D9D9D9"/>
</g>
<path d="M179.603 137.816C183.754 137.236 196.344 135.928 198.646 140.998C200.636 145.382 196.363 149.635 193.812 151.674C192.713 152.553 191.372 153.033 189.97 153.138C185.728 153.457 176.239 153.618 172.1 149.246C167.783 144.685 174.278 140.259 177.086 138.653C177.865 138.208 178.714 137.94 179.603 137.816Z" fill="#ED9121"/>
<path d="M179.603 137.816C183.754 137.236 196.344 135.928 198.646 140.998C200.636 145.382 196.363 149.635 193.812 151.674C192.713 152.553 191.372 153.033 189.97 153.138C185.728 153.457 176.239 153.618 172.1 149.246C167.783 144.685 174.278 140.259 177.086 138.653C177.865 138.208 178.714 137.94 179.603 137.816Z" fill="#ED9121"/>
<path d="M182.096 141.292C184.68 140.955 190.219 140.536 191.284 142.952C192.115 144.838 190.739 146.7 189.486 147.9C188.473 148.869 187.115 149.355 185.715 149.42C183.27 149.533 179.347 149.368 177.515 147.406C175.551 145.303 178.004 143.212 179.599 142.173C180.35 141.684 181.207 141.409 182.096 141.292Z" fill="#CE862F"/>
<path d="M183.272 142.359C185.147 142.085 188.43 141.849 189.054 143.405C189.499 144.512 188.874 145.639 188.143 146.486C187.237 147.534 185.885 148.05 184.502 148.103C182.864 148.166 180.689 147.993 179.633 146.814C178.464 145.508 179.76 144.135 180.833 143.322C181.542 142.785 182.392 142.487 183.272 142.359Z" fill="#E1AF71"/>
<g filter="url(#filter4_i_450_1075)">
<path d="M105.84 152.368L102.465 149.607L107.972 144.686L111.157 151.331L114.532 154.092L107.401 156.338L105.84 152.368Z" fill="#BBD765"/>
</g>
<g filter="url(#filter5_i_450_1075)">
<path d="M94.4029 133.427L94.6522 133.52C95.3125 131.001 98.4804 130.183 100.278 132.067L100.838 132.655L100.887 131.671C100.986 129.64 102.713 128.075 104.744 128.174C106.775 128.274 108.341 130.001 108.241 132.032L108.193 133.016L108.864 133.048C110.524 133.13 111.805 134.542 111.723 136.203C111.673 137.233 111.098 138.165 110.201 138.674L107.85 140.007L109.197 140.073C110.484 140.136 111.477 141.231 111.414 142.518C111.351 143.805 110.256 144.797 108.969 144.734L105.17 144.548C106.181 146.721 104.52 149.188 102.127 149.071L101.135 149.023C100.419 148.987 99.7274 148.749 99.1411 148.336L96.4755 146.458L96.3831 146.615C95.6159 147.914 94.1915 148.682 92.6839 148.608L92.5707 148.603C91.1327 148.532 89.8522 147.671 89.2452 146.365C88.5139 144.792 88.9162 142.925 90.2303 141.793L91.8579 140.391L91.8199 140.377C89.8593 139.648 88.8894 137.443 89.6773 135.506C90.432 133.65 92.5248 132.729 94.4029 133.427Z" fill="#43784F"/>
</g>
<path d="M95.7067 137.076L94.6522 133.52M94.6522 133.52L94.4029 133.427C92.5248 132.729 90.432 133.65 89.6773 135.506C88.8894 137.443 89.8593 139.648 91.8199 140.377L91.8579 140.391L90.2303 141.793C88.9162 142.925 88.5139 144.792 89.2452 146.365C89.8522 147.671 91.1327 148.532 92.5707 148.603L92.6839 148.608C94.1915 148.682 95.6159 147.914 96.3831 146.615L96.4755 146.458L99.1411 148.336C99.7274 148.749 100.419 148.987 101.135 149.023L102.127 149.071C104.52 149.188 106.181 146.721 105.17 144.548L108.969 144.734C110.256 144.797 111.351 143.805 111.414 142.518C111.477 141.231 110.484 140.136 109.197 140.073L107.85 140.007L110.201 138.674C111.098 138.165 111.673 137.233 111.723 136.203C111.805 134.542 110.524 133.13 108.864 133.048L108.193 133.016L108.241 132.032C108.341 130.001 106.775 128.274 104.744 128.174C102.713 128.075 100.986 129.64 100.887 131.671L100.838 132.655L100.278 132.067C98.4804 130.183 95.3125 131.001 94.6522 133.52Z" stroke="#43784F"/>
<g filter="url(#filter6_g_450_1075)">
<path d="M90.2223 143.425L91.9817 141.825C89.8776 141.005 88.8389 138.625 89.6549 136.52C90.4699 134.416 92.8415 133.364 94.9431 134.183C95.6292 131.447 99.0903 130.584 100.981 132.677L101.458 133.205L101.522 131.897C101.627 129.759 103.445 128.111 105.583 128.215C107.721 128.32 109.369 130.138 109.264 132.276L109.2 133.584L109.695 133.608C111.56 133.7 112.997 135.285 112.906 137.15C112.85 138.276 112.236 139.301 111.269 139.882L108.819 141.352L110.101 141.415C111.531 141.485 112.633 142.702 112.563 144.132C112.493 145.562 111.277 146.664 109.847 146.594L105.985 146.405C107.055 148.844 105.186 151.557 102.525 151.427L101.794 151.391C100.996 151.352 100.227 151.077 99.5849 150.6L96.8256 148.552L96.6725 148.825C95.8979 150.205 94.4089 151.029 92.8277 150.951C91.2465 150.874 89.8452 149.909 89.2094 148.459L89.1702 148.369C88.4233 146.666 88.8468 144.677 90.2223 143.425Z" fill="#43784F" fill-opacity="0.75"/>
<path d="M96.043 138.13L94.9431 134.183M94.9431 134.183C95.6292 131.447 99.0903 130.584 100.981 132.677L101.458 133.205L101.522 131.897C101.627 129.759 103.445 128.111 105.583 128.215C107.721 128.32 109.369 130.138 109.264 132.276L109.2 133.584L109.695 133.608C111.56 133.7 112.997 135.285 112.906 137.15C112.85 138.276 112.236 139.301 111.269 139.882L108.819 141.352L110.101 141.415C111.531 141.485 112.633 142.702 112.563 144.132C112.493 145.562 111.277 146.664 109.847 146.594L105.985 146.405C107.055 148.844 105.186 151.557 102.525 151.427L101.794 151.391C100.996 151.352 100.227 151.077 99.5849 150.6L96.8256 148.552L96.6725 148.825C95.8979 150.205 94.4089 151.029 92.8277 150.951C91.2465 150.874 89.8452 149.909 89.2094 148.459L89.1702 148.369C88.4233 146.666 88.8468 144.677 90.2223 143.425L91.9817 141.825C89.8776 141.005 88.8389 138.625 89.6549 136.52C90.4699 134.416 92.8415 133.364 94.9431 134.183Z" stroke="#43784F"/>
</g>
<g filter="url(#filter7_i_450_1075)">
<path d="M128.102 148.063L127.428 143.754L134.814 143.759L132.756 150.835L133.431 155.143L126.618 152.062L128.102 148.063Z" fill="#BBD765"/>
</g>
<g filter="url(#filter8_i_450_1075)">
<path d="M132.209 126.321L132.333 126.556C134.505 125.119 137.412 126.622 137.494 129.225L137.52 130.037L138.212 129.336C139.64 127.889 141.972 127.873 143.419 129.302C144.866 130.73 144.881 133.061 143.453 134.509L142.761 135.21L143.238 135.681C144.422 136.849 144.434 138.755 143.266 139.938C142.542 140.672 141.492 140.984 140.484 140.765L137.843 140.191L138.803 141.139C139.72 142.044 139.73 143.521 138.824 144.438C137.919 145.355 136.442 145.365 135.525 144.46L132.818 141.788C132.122 144.081 129.239 144.813 127.534 143.129L126.827 142.432C126.317 141.928 125.96 141.29 125.799 140.591L125.065 137.414L124.891 137.469C123.453 137.926 121.88 137.548 120.805 136.488L120.725 136.408C119.7 135.397 119.32 133.901 119.739 132.523C120.242 130.863 121.787 129.74 123.521 129.773L125.669 129.813L125.65 129.778C124.675 127.927 125.423 125.637 127.302 124.718C129.102 123.839 131.275 124.548 132.209 126.321Z" fill="#43784F"/>
</g>
<path d="M130.748 129.909L132.333 126.556M132.333 126.556L132.209 126.321C131.275 124.548 129.102 123.839 127.302 124.718C125.423 125.637 124.675 127.927 125.65 129.778L125.669 129.813L123.521 129.773C121.787 129.74 120.242 130.863 119.739 132.523C119.32 133.901 119.7 135.397 120.725 136.408L120.805 136.488C121.88 137.548 123.453 137.926 124.891 137.469L125.065 137.414L125.799 140.591C125.96 141.29 126.317 141.928 126.827 142.432L127.534 143.129C129.239 144.813 132.122 144.081 132.818 141.788L135.525 144.46C136.442 145.365 137.919 145.355 138.824 144.438C139.73 143.521 139.72 142.044 138.803 141.139L137.843 140.191L140.484 140.765C141.492 140.984 142.542 140.672 143.266 139.938C144.434 138.755 144.422 136.849 143.238 135.681L142.761 135.21L143.453 134.509C144.881 133.061 144.866 130.73 143.419 129.302C141.972 127.873 139.64 127.889 138.212 129.336L137.52 130.037L137.494 129.225C137.412 126.622 134.505 125.119 132.333 126.556Z" stroke="#43784F"/>
<g filter="url(#filter9_g_450_1075)">
<path d="M122.427 130.984L124.805 130.964C123.784 128.95 124.597 126.484 126.609 125.459C128.619 124.435 131.088 125.232 132.108 127.244C134.444 125.663 137.599 127.327 137.612 130.148L137.616 130.859L138.536 129.927C140.039 128.404 142.493 128.388 144.016 129.892C145.54 131.395 145.556 133.849 144.052 135.373L143.132 136.305L143.485 136.653C144.813 137.964 144.827 140.104 143.516 141.433C142.723 142.235 141.582 142.59 140.474 142.378L137.668 141.84L138.581 142.741C139.6 143.747 139.611 145.389 138.605 146.408C137.599 147.427 135.958 147.437 134.939 146.431L132.187 143.715C131.357 146.246 128.155 147.022 126.26 145.15L125.739 144.637C125.17 144.075 124.781 143.357 124.62 142.574L123.93 139.207L123.634 139.309C122.136 139.821 120.477 139.442 119.35 138.33C118.223 137.218 117.823 135.564 118.316 134.059L118.346 133.967C118.925 132.2 120.567 130.999 122.427 130.984Z" fill="#43784F" fill-opacity="0.75"/>
<path d="M130.295 130.919L132.108 127.244M132.108 127.244C134.444 125.663 137.599 127.327 137.612 130.148L137.616 130.859L138.536 129.927C140.039 128.404 142.493 128.388 144.016 129.892C145.54 131.395 145.556 133.849 144.052 135.373L143.132 136.305L143.485 136.653C144.813 137.964 144.827 140.104 143.516 141.433C142.723 142.235 141.582 142.59 140.474 142.378L137.668 141.84L138.581 142.741C139.6 143.747 139.611 145.389 138.605 146.408C137.599 147.427 135.958 147.437 134.939 146.431L132.187 143.715C131.357 146.246 128.155 147.022 126.26 145.15L125.739 144.637C125.17 144.075 124.781 143.357 124.62 142.574L123.93 139.207L123.634 139.309C122.136 139.821 120.477 139.442 119.35 138.33C118.223 137.218 117.823 135.564 118.316 134.059L118.346 133.967C118.925 132.2 120.567 130.999 122.427 130.984L124.805 130.964C123.784 128.95 124.597 126.484 126.609 125.459C128.619 124.435 131.088 125.232 132.108 127.244Z" stroke="#43784F"/>
</g>
<g filter="url(#filter10_i_450_1075)">
<path d="M166.895 140.411L166.41 136.829L172.568 136.7L170.725 142.64L171.21 146.222L165.586 143.774L166.895 140.411Z" fill="#BBD765"/>
</g>
<g filter="url(#filter11_i_450_1075)">
<path d="M170.794 122.366L170.809 122.395C172.611 121.18 175.042 122.457 175.064 124.631L175.07 125.205L175.752 124.514C176.918 123.333 178.82 123.321 180.001 124.486C181.182 125.652 181.194 127.554 180.028 128.735L179.346 129.426L179.644 129.72C180.66 130.723 180.671 132.36 179.667 133.377C179.058 133.994 178.179 134.265 177.328 134.097L175.157 133.67L175.88 134.384C176.661 135.155 176.67 136.414 175.898 137.195C175.127 137.976 173.869 137.984 173.087 137.213L170.939 135.092C170.312 137.035 167.856 137.636 166.403 136.201L165.964 135.768C165.528 135.337 165.228 134.788 165.102 134.188L164.554 131.583L164.343 131.654C163.179 132.046 161.893 131.75 161.019 130.887C160.146 130.024 159.838 128.725 160.215 127.556C160.656 126.19 161.934 125.241 163.37 125.237L165.194 125.232C164.401 123.68 165.019 121.775 166.574 120.99C168.12 120.209 170.006 120.824 170.794 122.366Z" fill="#43784F"/>
</g>
<path d="M169.427 125.221L170.809 122.395M170.809 122.395L170.794 122.366C170.006 120.824 168.12 120.209 166.574 120.99C165.019 121.775 164.401 123.68 165.194 125.232L163.37 125.237C161.934 125.241 160.656 126.19 160.215 127.556C159.838 128.725 160.146 130.024 161.019 130.887C161.893 131.75 163.179 132.046 164.343 131.654L164.554 131.583L165.102 134.188C165.228 134.788 165.528 135.337 165.964 135.768L166.403 136.201C167.856 137.636 170.312 137.035 170.939 135.092L173.087 137.213C173.869 137.984 175.127 137.976 175.898 137.195C176.67 136.414 176.661 135.155 175.88 134.384L175.157 133.67L177.328 134.097C178.179 134.265 179.058 133.994 179.667 133.377C180.671 132.36 180.66 130.723 179.644 129.72L179.346 129.426L180.028 128.735C181.194 127.554 181.182 125.652 180.001 124.486C178.82 123.321 176.918 123.333 175.752 124.514L175.07 125.205L175.064 124.631C175.042 122.457 172.611 121.18 170.809 122.395Z" stroke="#43784F"/>
<g filter="url(#filter12_g_450_1075)">
<path d="M165.944 121.642L166.169 121.524C167.793 120.671 169.801 121.326 170.608 122.973C172.546 121.638 175.182 123.052 175.143 125.405L175.135 125.89L176.016 124.997C177.243 123.754 179.246 123.741 180.488 124.968C181.731 126.195 181.744 128.197 180.517 129.44L179.636 130.333L179.82 130.514C180.961 131.641 180.973 133.479 179.847 134.621C179.18 135.296 178.226 135.603 177.291 135.443L174.981 135.048L175.66 135.718C176.528 136.575 176.537 137.973 175.68 138.841C174.823 139.71 173.425 139.719 172.557 138.862L170.378 136.711C169.634 138.856 166.908 139.492 165.292 137.897L165.019 137.628C164.534 137.149 164.208 136.533 164.084 135.862L163.575 133.099L163.256 133.214C162.045 133.652 160.69 133.354 159.773 132.45C158.856 131.545 158.541 130.194 158.963 128.977L159.038 128.759C159.542 127.305 160.892 126.314 162.431 126.268L164.453 126.208C163.632 124.533 164.293 122.51 165.944 121.642Z" fill="#43784F" fill-opacity="0.75"/>
<path d="M169.031 126.071L170.608 122.973M170.608 122.973C172.546 121.638 175.182 123.052 175.143 125.405L175.135 125.89L176.016 124.997C177.243 123.754 179.246 123.741 180.488 124.968C181.731 126.195 181.744 128.197 180.517 129.44L179.636 130.333L179.82 130.514C180.961 131.641 180.973 133.479 179.847 134.621C179.18 135.296 178.226 135.603 177.291 135.443L174.981 135.048L175.66 135.718C176.528 136.575 176.537 137.973 175.68 138.841C174.823 139.71 173.425 139.719 172.557 138.862L170.378 136.711C169.634 138.856 166.908 139.492 165.292 137.897L165.019 137.628C164.534 137.149 164.208 136.533 164.084 135.862L163.575 133.099L163.256 133.214C162.045 133.652 160.69 133.354 159.773 132.45C158.856 131.545 158.541 130.194 158.963 128.977L159.038 128.759C159.542 127.305 160.892 126.314 162.431 126.268L164.453 126.208C163.632 124.533 164.293 122.51 165.944 121.642L166.169 121.524C167.793 120.671 169.801 121.326 170.608 122.973Z" stroke="#43784F"/>
</g>
<g filter="url(#filter13_i_450_1075)">
<path d="M96.6878 140.31L96.0136 136.002L103.4 136.007L101.342 143.083L102.016 147.391L95.2036 144.309L96.6878 140.31Z" fill="#BBD765"/>
</g>
<g filter="url(#filter14_i_450_1075)">
<path d="M100.795 118.568L100.919 118.804C103.091 117.367 105.997 118.869 106.08 121.472L106.106 122.284L106.797 121.583C108.226 120.136 110.557 120.121 112.004 121.549C113.451 122.978 113.466 125.309 112.038 126.756L111.346 127.457L111.824 127.929C113.007 129.097 113.02 131.003 111.852 132.186C111.127 132.92 110.077 133.232 109.07 133.013L106.429 132.439L107.388 133.386C108.305 134.291 108.315 135.769 107.41 136.686C106.504 137.603 105.027 137.613 104.11 136.707L101.403 134.036C100.708 136.328 97.8245 137.06 96.1194 135.377L95.4128 134.68C94.9024 134.176 94.5457 133.537 94.3842 132.838L93.6503 129.661L93.4769 129.716C92.0384 130.173 90.465 129.796 89.3908 128.735L89.3102 128.656C88.2855 127.644 87.9058 126.148 88.324 124.771C88.8277 123.111 90.3725 121.988 92.1065 122.021L94.2545 122.061L94.2356 122.025C93.2604 120.175 94.0081 117.885 95.8872 116.966C97.6873 116.086 99.8607 116.796 100.795 118.568Z" fill="#43784F"/>
</g>
<path d="M99.3335 122.157L100.919 118.804M100.919 118.804L100.795 118.568C99.8607 116.796 97.6873 116.086 95.8872 116.966C94.0081 117.885 93.2604 120.175 94.2356 122.025L94.2545 122.061L92.1065 122.021C90.3725 121.988 88.8277 123.111 88.324 124.771C87.9058 126.148 88.2855 127.644 89.3102 128.656L89.3908 128.735C90.465 129.796 92.0384 130.173 93.4769 129.716L93.6503 129.661L94.3842 132.838C94.5457 133.537 94.9024 134.176 95.4128 134.68L96.1194 135.377C97.8245 137.06 100.708 136.328 101.403 134.036L104.11 136.707C105.027 137.613 106.504 137.603 107.41 136.686C108.315 135.769 108.305 134.291 107.388 133.386L106.429 132.439L109.07 133.013C110.077 133.232 111.127 132.92 111.852 132.186C113.02 131.003 113.007 129.097 111.824 127.929L111.346 127.457L112.038 126.756C113.466 125.309 113.451 122.978 112.004 121.549C110.557 120.121 108.226 120.136 106.797 121.583L106.106 122.284L106.08 121.472C105.997 118.869 103.091 117.367 100.919 118.804Z" stroke="#43784F"/>
<g filter="url(#filter15_g_450_1075)">
<path d="M91.0124 123.231L93.3907 123.212C92.3697 121.198 93.1822 118.732 95.1945 117.707C97.2044 116.683 99.6736 117.48 100.693 119.492C103.029 117.91 106.184 119.575 106.198 122.395L106.201 123.107L107.121 122.175C108.625 120.652 111.079 120.636 112.602 122.139C114.125 123.643 114.141 126.097 112.637 127.62L111.717 128.552L112.07 128.9C113.399 130.212 113.413 132.352 112.101 133.68C111.309 134.483 110.168 134.838 109.06 134.625L106.253 134.087L107.167 134.989C108.186 135.995 108.196 137.636 107.19 138.655C106.184 139.674 104.543 139.685 103.524 138.679L100.772 135.963C99.9427 138.494 96.7409 139.269 94.8453 137.398L94.3246 136.884C93.7556 136.322 93.3661 135.604 93.2055 134.821L92.515 131.455L92.219 131.556C90.7211 132.069 89.0622 131.689 87.9355 130.577C86.8088 129.465 86.4083 127.811 86.9012 126.307L86.9316 126.214C87.5106 124.447 89.1529 123.247 91.0124 123.231Z" fill="#43784F" fill-opacity="0.75"/>
<path d="M98.8808 123.167L100.693 119.492M100.693 119.492C103.029 117.91 106.184 119.575 106.198 122.395L106.201 123.107L107.121 122.175C108.625 120.652 111.079 120.636 112.602 122.139C114.125 123.643 114.141 126.097 112.637 127.62L111.717 128.552L112.07 128.9C113.399 130.212 113.413 132.352 112.101 133.68C111.309 134.483 110.168 134.838 109.06 134.625L106.253 134.087L107.167 134.989C108.186 135.995 108.196 137.636 107.19 138.655C106.184 139.674 104.543 139.685 103.524 138.679L100.772 135.963C99.9427 138.494 96.7409 139.269 94.8453 137.398L94.3246 136.884C93.7556 136.322 93.3661 135.604 93.2055 134.821L92.515 131.455L92.219 131.556C90.7211 132.069 89.0622 131.69 87.9355 130.577C86.8088 129.465 86.4083 127.811 86.9012 126.307L86.9316 126.214C87.5106 124.447 89.1529 123.247 91.0124 123.231L93.3907 123.212C92.3697 121.198 93.1822 118.732 95.1945 117.707C97.2044 116.683 99.6736 117.48 100.693 119.492Z" stroke="#43784F"/>
</g>
<path d="M123.269 141.544C127.421 140.964 140.011 139.657 142.313 144.727C144.303 149.11 140.029 153.363 137.478 155.403C136.379 156.281 135.039 156.761 133.636 156.867C129.395 157.185 119.905 157.347 115.767 152.975C111.449 148.414 117.945 143.987 120.753 142.382C121.532 141.936 122.381 141.669 123.269 141.544Z" fill="#ED9121"/>
<path d="M125.762 145.021C128.347 144.683 133.886 144.264 134.95 146.681C135.781 148.567 134.406 150.428 133.152 151.628C132.14 152.598 130.782 153.083 129.381 153.148C126.936 153.261 123.014 153.097 121.181 151.134C119.218 149.031 121.671 146.941 123.266 145.901C124.016 145.412 124.874 145.137 125.762 145.021Z" fill="#CE862F"/>
<path d="M126.938 146.087C128.814 145.814 132.097 145.577 132.721 147.134C133.165 148.241 132.541 149.367 131.809 150.214C130.904 151.262 129.552 151.779 128.168 151.831C126.53 151.894 124.356 151.722 123.3 150.542C122.13 149.236 123.426 147.864 124.5 147.051C125.209 146.514 126.058 146.216 126.938 146.087Z" fill="#E1AF71"/>
<path d="M71.4297 137.001C75.581 136.421 88.1714 135.113 90.4732 140.183C92.4631 144.567 88.1897 148.82 85.6385 150.859C84.5398 151.738 83.1993 152.218 81.7968 152.323C77.555 152.642 68.0655 152.803 63.9271 148.431C59.6095 143.871 66.1053 139.444 68.9132 137.838C69.6921 137.393 70.541 137.125 71.4297 137.001Z" fill="#ED9121"/>
<path d="M71.4297 137.001C75.581 136.421 88.1714 135.113 90.4732 140.183C92.4631 144.567 88.1897 148.82 85.6385 150.859C84.5398 151.738 83.1993 152.218 81.7968 152.323C77.555 152.642 68.0655 152.803 63.9271 148.431C59.6095 143.871 66.1053 139.444 68.9132 137.838C69.6921 137.393 70.541 137.125 71.4297 137.001Z" fill="#ED9121"/>
<path d="M73.9227 140.477C76.5073 140.14 82.0462 139.721 83.1107 142.137C83.9417 144.023 82.566 145.885 81.3126 147.085C80.3 148.054 78.9422 148.54 77.5417 148.605C75.0965 148.718 71.1744 148.553 69.3418 146.591C67.3782 144.488 69.8311 142.397 71.4261 141.358C72.1767 140.869 73.0343 140.594 73.9227 140.477Z" fill="#CE862F"/>
<path d="M75.0989 141.544C76.9743 141.27 80.2572 141.034 80.8814 142.59C81.3255 143.697 80.701 144.824 79.9694 145.671C79.0644 146.719 77.7124 147.235 76.3287 147.288C74.6906 147.351 72.5159 147.178 71.4603 145.999C70.2909 144.693 71.5868 143.32 72.6601 142.507C73.369 141.97 74.2189 141.672 75.0989 141.544Z" fill="#E1AF71"/>
<path d="M142.603 113.816C146.754 113.236 159.344 111.928 161.646 116.998C163.636 121.382 159.363 125.635 156.812 127.674C155.713 128.553 154.372 129.033 152.97 129.138C148.728 129.457 139.239 129.618 135.1 125.246C130.783 120.685 137.278 116.259 140.086 114.653C140.865 114.208 141.714 113.94 142.603 113.816Z" fill="#ED9121"/>
<path d="M142.603 113.816C146.754 113.236 159.344 111.928 161.646 116.998C163.636 121.382 159.363 125.635 156.812 127.674C155.713 128.553 154.372 129.033 152.97 129.138C148.728 129.457 139.239 129.618 135.1 125.246C130.783 120.685 137.278 116.259 140.086 114.653C140.865 114.208 141.714 113.94 142.603 113.816Z" fill="#ED9121"/>
<path d="M145.096 117.292C147.68 116.955 153.219 116.536 154.284 118.952C155.115 120.838 153.739 122.7 152.486 123.9C151.473 124.869 150.115 125.355 148.715 125.42C146.27 125.533 142.347 125.368 140.515 123.406C138.551 121.303 141.004 119.212 142.599 118.173C143.35 117.684 144.207 117.409 145.096 117.292Z" fill="#CE862F"/>
<path d="M146.272 118.359C148.147 118.085 151.43 117.849 152.054 119.405C152.499 120.512 151.874 121.639 151.143 122.486C150.237 123.534 148.885 124.05 147.502 124.103C145.864 124.166 143.689 123.993 142.633 122.814C141.464 121.508 142.76 120.135 143.833 119.322C144.542 118.785 145.392 118.487 146.272 118.359Z" fill="#E1AF71"/>
<path d="M70.0457 138.476C76.0286 138.761 80.9709 143.245 81.8341 149.172L82.2609 152.103" stroke="#8A1422" stroke-width="2.5"/>
<path d="M69.8396 139.979C75.0616 140.45 79.3171 144.368 80.2169 149.534L80.7384 152.528" stroke="#D9AFB4"/>
<path d="M69.8151 140.479C74.7363 140.967 78.6805 144.767 79.3533 149.666L79.7396 152.479" stroke="#FFFAFB"/>
<path d="M145.129 153.215C148.949 148.601 155.502 147.341 160.76 150.209L163.36 151.627" stroke="#8A1422" stroke-width="2.5"/>
<path d="M146.208 154.282C149.72 150.389 155.408 149.338 160.079 151.72L162.787 153.1" stroke="#D9AFB4"/>
<path d="M146.593 154.602C149.938 150.959 155.344 150.086 159.666 152.49L162.148 153.87" stroke="#FFFAFB"/>
<path d="M200.272 143.041C205.322 139.82 211.946 140.629 216.072 144.97L218.112 147.117" stroke="#8A1422" stroke-width="2.5"/>
<path d="M200.971 144.388C205.507 141.758 211.244 142.501 214.96 146.2L217.115 148.344" stroke="#D9AFB4"/>
<path d="M201.24 144.81C205.54 142.368 210.954 143.194 214.331 146.806L216.271 148.88" stroke="#FFFAFB"/>
<path d="M166.968 130.539C170.788 125.926 177.341 124.666 182.599 127.534L185.199 128.952" stroke="#8A1422" stroke-width="2.5"/>
<path d="M168.047 131.607C171.559 127.714 177.247 126.663 181.918 129.045L184.626 130.425" stroke="#D9AFB4"/>
<path d="M168.431 131.926C171.777 128.284 177.183 127.411 181.505 129.814L183.987 131.195" stroke="#FFFAFB"/>
<path d="M113.147 130.019C113.855 124.072 118.677 119.459 124.651 119.018L127.604 118.8" stroke="#8A1422" stroke-width="2.5"/>
<path d="M114.633 130.331C115.472 125.156 119.682 121.188 124.898 120.656L127.921 120.348" stroke="#D9AFB4"/>
<path d="M115.129 130.391C115.965 125.517 120.034 121.852 124.968 121.527L127.802 121.341" stroke="#FFFAFB"/>
<path d="M133.667 131.49C139.187 129.166 145.58 131.081 148.915 136.056L150.564 138.516" stroke="#8A1422" stroke-width="2.5"/>
<path d="M134.129 132.935C139.044 131.108 144.573 132.808 147.612 137.08L149.374 139.556" stroke="#D9AFB4"/>
<path d="M134.322 133.397C138.973 131.715 144.17 133.442 146.89 137.572L148.452 139.943" stroke="#FFFAFB"/>
<defs>
<filter id="filter0_i_450_1075" x="288.387" y="111.168" width="130.687" height="39.145" filterUnits="userSpaceOnUse" color-interpolation-filters="sRGB">
<feFlood flood-opacity="0" result="BackgroundImageFix"/>
<feBlend mode="normal" in="SourceGraphic" in2="BackgroundImageFix" result="shape"/>
<feColorMatrix in="SourceAlpha" type="matrix" values="0 0 0 0 0 0 0 0 0 0 0 0 0 0 0 0 0 0 127 0" result="hardAlpha"/>
<feOffset dx="-3"/>
<feGaussianBlur stdDeviation="2"/>
<feComposite in2="hardAlpha" operator="arithmetic" k2="-1" k3="1"/>
<feColorMatrix type="matrix" values="0 0 0 0 0 0 0 0 0 0 0 0 0 0 0 0 0 0 0.25 0"/>
<feBlend mode="normal" in2="shape" result="effect1_innerShadow_450_1075"/>
</filter>
<filter id="filter1_i_450_1075" x="265.131" y="138.823" width="26.6472" height="24.1616" filterUnits="userSpaceOnUse" color-interpolation-filters="sRGB">
<feFlood flood-opacity="0" result="BackgroundImageFix"/>
<feBlend mode="normal" in="SourceGraphic" in2="BackgroundImageFix" result="shape"/>
<feColorMatrix in="SourceAlpha" type="matrix" values="0 0 0 0 0 0 0 0 0 0 0 0 0 0 0 0 0 0 127 0" result="hardAlpha"/>
<feOffset dx="-1" dy="-1"/>
<feGaussianBlur stdDeviation="3.05"/>
<feComposite in2="hardAlpha" operator="arithmetic" k2="-1" k3="1"/>
<feColorMatrix type="matrix" values="0 0 0 0 0 0 0 0 0 0 0 0 0 0 0 0 0 0 0.25 0"/>
<feBlend mode="normal" in2="shape" result="effect1_innerShadow_450_1075"/>
</filter>
<filter id="filter2_i_450_1075" x="53.99" y="130.782" width="222.076" height="71.2241" filterUnits="userSpaceOnUse" color-interpolation-filters="sRGB">
<feFlood flood-opacity="0" result="BackgroundImageFix"/>
<feBlend mode="normal" in="SourceGraphic" in2="BackgroundImageFix" result="shape"/>
<feColorMatrix in="SourceAlpha" type="matrix" values="0 0 0 0 0 0 0 0 0 0 0 0 0 0 0 0 0 0 127 0" result="hardAlpha"/>
<feOffset dx="6" dy="-5"/>
<feGaussianBlur stdDeviation="7.25"/>
<feComposite in2="hardAlpha" operator="arithmetic" k2="-1" k3="1"/>
<feColorMatrix type="matrix" values="0 0 0 0 0 0 0 0 0 0 0 0 0 0 0 0 0 0 0.25 0"/>
<feBlend mode="normal" in2="shape" result="effect1_innerShadow_450_1075"/>
</filter>
<filter id="filter3_i_450_1075" x="52.3657" y="119.969" width="217.699" height="36.9878" filterUnits="userSpaceOnUse" color-interpolation-filters="sRGB">
<feFlood flood-opacity="0" result="BackgroundImageFix"/>
<feBlend mode="normal" in="SourceGraphic" in2="BackgroundImageFix" result="shape"/>
<feColorMatrix in="SourceAlpha" type="matrix" values="0 0 0 0 0 0 0 0 0 0 0 0 0 0 0 0 0 0 127 0" result="hardAlpha"/>
<feOffset dx="-1" dy="-3"/>
<feGaussianBlur stdDeviation="6.3"/>
<feComposite in2="hardAlpha" operator="arithmetic" k2="-1" k3="1"/>
<feColorMatrix type="matrix" values="0 0 0 0 0 0 0 0 0 0 0 0 0 0 0 0 0 0 0.25 0"/>
<feBlend mode="normal" in2="shape" result="effect1_innerShadow_450_1075"/>
</filter>
<filter id="filter4_i_450_1075" x="102.465" y="144.686" width="12.0676" height="11.6528" filterUnits="userSpaceOnUse" color-interpolation-filters="sRGB">
<feFlood flood-opacity="0" result="BackgroundImageFix"/>
<feBlend mode="normal" in="SourceGraphic" in2="BackgroundImageFix" result="shape"/>
<feColorMatrix in="SourceAlpha" type="matrix" values="0 0 0 0 0 0 0 0 0 0 0 0 0 0 0 0 0 0 127 0" result="hardAlpha"/>
<feOffset dx="5" dy="-10"/>
<feComposite in2="hardAlpha" operator="arithmetic" k2="-1" k3="1"/>
<feColorMatrix type="matrix" values="0 0 0 0 0.262745 0 0 0 0 0.470588 0 0 0 0 0.309804 0 0 0 0.2 0"/>
<feBlend mode="normal" in2="shape" result="effect1_innerShadow_450_1075"/>
</filter>
<filter id="filter5_i_450_1075" x="88.3835" y="127.67" width="25.7433" height="23.8053" filterUnits="userSpaceOnUse" color-interpolation-filters="sRGB">
<feFlood flood-opacity="0" result="BackgroundImageFix"/>
<feBlend mode="normal" in="SourceGraphic" in2="BackgroundImageFix" result="shape"/>
<feColorMatrix in="SourceAlpha" type="matrix" values="0 0 0 0 0 0 0 0 0 0 0 0 0 0 0 0 0 0 127 0" result="hardAlpha"/>
<feOffset dx="12" dy="4"/>
<feGaussianBlur stdDeviation="0.95"/>
<feComposite in2="hardAlpha" operator="arithmetic" k2="-1" k3="1"/>
<feColorMatrix type="matrix" values="0 0 0 0 0 0 0 0 0 0 0 0 0 0 0 0 0 0 0.25 0"/>
<feBlend mode="normal" in2="shape" result="effect1_innerShadow_450_1075"/>
</filter>
<filter id="filter6_g_450_1075" x="88.2052" y="127.61" width="25.3045" height="24.4207" filterUnits="userSpaceOnUse" color-interpolation-filters="sRGB">
<feFlood flood-opacity="0" result="BackgroundImageFix"/>
<feBlend mode="normal" in="SourceGraphic" in2="BackgroundImageFix" result="shape"/>
<feTurbulence type="fractalNoise" baseFrequency="0.99900001287460327 0.99900001287460327" numOctaves="3" seed="4316" />
<feDisplacementMap in="shape" scale="0.20000000298023224" xChannelSelector="R" yChannelSelector="G" result="displacedImage" width="100%" height="100%" />
<feMerge result="effect1_texture_450_1075">
<feMergeNode in="displacedImage"/>
</feMerge>
</filter>
<filter id="filter7_i_450_1075" x="126.618" y="143.754" width="8.1958" height="11.3892" filterUnits="userSpaceOnUse" color-interpolation-filters="sRGB">
<feFlood flood-opacity="0" result="BackgroundImageFix"/>
<feBlend mode="normal" in="SourceGraphic" in2="BackgroundImageFix" result="shape"/>
<feColorMatrix in="SourceAlpha" type="matrix" values="0 0 0 0 0 0 0 0 0 0 0 0 0 0 0 0 0 0 127 0" result="hardAlpha"/>
<feOffset dx="5" dy="-10"/>
<feComposite in2="hardAlpha" operator="arithmetic" k2="-1" k3="1"/>
<feColorMatrix type="matrix" values="0 0 0 0 0.262745 0 0 0 0 0.470588 0 0 0 0 0.309804 0 0 0 0.2 0"/>
<feBlend mode="normal" in2="shape" result="effect1_innerShadow_450_1075"/>
</filter>
<filter id="filter8_i_450_1075" x="119.071" y="123.841" width="27.8429" height="23.691" filterUnits="userSpaceOnUse" color-interpolation-filters="sRGB">
<feFlood flood-opacity="0" result="BackgroundImageFix"/>
<feBlend mode="normal" in="SourceGraphic" in2="BackgroundImageFix" result="shape"/>
<feColorMatrix in="SourceAlpha" type="matrix" values="0 0 0 0 0 0 0 0 0 0 0 0 0 0 0 0 0 0 127 0" result="hardAlpha"/>
<feOffset dx="12" dy="4"/>
<feGaussianBlur stdDeviation="0.95"/>
<feComposite in2="hardAlpha" operator="arithmetic" k2="-1" k3="1"/>
<feColorMatrix type="matrix" values="0 0 0 0 0 0 0 0 0 0 0 0 0 0 0 0 0 0 0.25 0"/>
<feBlend mode="normal" in2="shape" result="effect1_innerShadow_450_1075"/>
</filter>
<filter id="filter9_g_450_1075" x="117.508" y="124.413" width="28.2613" height="23.366" filterUnits="userSpaceOnUse" color-interpolation-filters="sRGB">
<feFlood flood-opacity="0" result="BackgroundImageFix"/>
<feBlend mode="normal" in="SourceGraphic" in2="BackgroundImageFix" result="shape"/>
<feTurbulence type="fractalNoise" baseFrequency="0.99900001287460327 0.99900001287460327" numOctaves="3" seed="4316" />
<feDisplacementMap in="shape" scale="0.20000000298023224" xChannelSelector="R" yChannelSelector="G" result="displacedImage" width="100%" height="100%" />
<feMerge result="effect1_texture_450_1075">
<feMergeNode in="displacedImage"/>
</feMerge>
</filter>
<filter id="filter10_i_450_1075" x="165.586" y="136.7" width="6.98193" height="9.52148" filterUnits="userSpaceOnUse" color-interpolation-filters="sRGB">
<feFlood flood-opacity="0" result="BackgroundImageFix"/>
<feBlend mode="normal" in="SourceGraphic" in2="BackgroundImageFix" result="shape"/>
<feColorMatrix in="SourceAlpha" type="matrix" values="0 0 0 0 0 0 0 0 0 0 0 0 0 0 0 0 0 0 127 0" result="hardAlpha"/>
<feOffset dx="5" dy="-10"/>
<feComposite in2="hardAlpha" operator="arithmetic" k2="-1" k3="1"/>
<feColorMatrix type="matrix" values="0 0 0 0 0.262745 0 0 0 0 0.470588 0 0 0 0 0.309804 0 0 0 0.2 0"/>
<feBlend mode="normal" in2="shape" result="effect1_innerShadow_450_1075"/>
</filter>
<filter id="filter11_i_450_1075" x="159.557" y="120.151" width="23.7379" height="20.0353" filterUnits="userSpaceOnUse" color-interpolation-filters="sRGB">
<feFlood flood-opacity="0" result="BackgroundImageFix"/>
<feBlend mode="normal" in="SourceGraphic" in2="BackgroundImageFix" result="shape"/>
<feColorMatrix in="SourceAlpha" type="matrix" values="0 0 0 0 0 0 0 0 0 0 0 0 0 0 0 0 0 0 127 0" result="hardAlpha"/>
<feOffset dx="12" dy="4"/>
<feGaussianBlur stdDeviation="0.95"/>
<feComposite in2="hardAlpha" operator="arithmetic" k2="-1" k3="1"/>
<feColorMatrix type="matrix" values="0 0 0 0 0 0 0 0 0 0 0 0 0 0 0 0 0 0 0.25 0"/>
<feBlend mode="normal" in2="shape" result="effect1_innerShadow_450_1075"/>
</filter>
<filter id="filter12_g_450_1075" x="158.179" y="120.549" width="23.8504" height="19.5491" filterUnits="userSpaceOnUse" color-interpolation-filters="sRGB">
<feFlood flood-opacity="0" result="BackgroundImageFix"/>
<feBlend mode="normal" in="SourceGraphic" in2="BackgroundImageFix" result="shape"/>
<feTurbulence type="fractalNoise" baseFrequency="0.99900001287460327 0.99900001287460327" numOctaves="3" seed="4316" />
<feDisplacementMap in="shape" scale="0.20000000298023224" xChannelSelector="R" yChannelSelector="G" result="displacedImage" width="100%" height="100%" />
<feMerge result="effect1_texture_450_1075">
<feMergeNode in="displacedImage"/>
</feMerge>
</filter>
<filter id="filter13_i_450_1075" x="95.2036" y="136.002" width="8.1958" height="11.3892" filterUnits="userSpaceOnUse" color-interpolation-filters="sRGB">
<feFlood flood-opacity="0" result="BackgroundImageFix"/>
<feBlend mode="normal" in="SourceGraphic" in2="BackgroundImageFix" result="shape"/>
<feColorMatrix in="SourceAlpha" type="matrix" values="0 0 0 0 0 0 0 0 0 0 0 0 0 0 0 0 0 0 127 0" result="hardAlpha"/>
<feOffset dx="5" dy="-10"/>
<feComposite in2="hardAlpha" operator="arithmetic" k2="-1" k3="1"/>
<feColorMatrix type="matrix" values="0 0 0 0 0.262745 0 0 0 0 0.470588 0 0 0 0 0.309804 0 0 0 0.2 0"/>
<feBlend mode="normal" in2="shape" result="effect1_innerShadow_450_1075"/>
</filter>
<filter id="filter14_i_450_1075" x="87.6567" y="116.089" width="27.8429" height="23.691" filterUnits="userSpaceOnUse" color-interpolation-filters="sRGB">
<feFlood flood-opacity="0" result="BackgroundImageFix"/>
<feBlend mode="normal" in="SourceGraphic" in2="BackgroundImageFix" result="shape"/>
<feColorMatrix in="SourceAlpha" type="matrix" values="0 0 0 0 0 0 0 0 0 0 0 0 0 0 0 0 0 0 127 0" result="hardAlpha"/>
<feOffset dx="12" dy="4"/>
<feGaussianBlur stdDeviation="0.95"/>
<feComposite in2="hardAlpha" operator="arithmetic" k2="-1" k3="1"/>
<feColorMatrix type="matrix" values="0 0 0 0 0 0 0 0 0 0 0 0 0 0 0 0 0 0 0.25 0"/>
<feBlend mode="normal" in2="shape" result="effect1_innerShadow_450_1075"/>
</filter>
<filter id="filter15_g_450_1075" x="86.0936" y="116.66" width="28.2613" height="23.366" filterUnits="userSpaceOnUse" color-interpolation-filters="sRGB">
<feFlood flood-opacity="0" result="BackgroundImageFix"/>
<feBlend mode="normal" in="SourceGraphic" in2="BackgroundImageFix" result="shape"/>
<feTurbulence type="fractalNoise" baseFrequency="0.99900001287460327 0.99900001287460327" numOctaves="3" seed="4316" />
<feDisplacementMap in="shape" scale="0.20000000298023224" xChannelSelector="R" yChannelSelector="G" result="displacedImage" width="100%" height="100%" />
<feMerge result="effect1_texture_450_1075">
<feMergeNode in="displacedImage"/>
</feMerge>
</filter>
</defs>
</svg>
