<svg width="450" height="327" viewBox="0 0 450 327" fill="none" xmlns="http://www.w3.org/2000/svg">
<g clip-path="url(#clip0_450_940)">
<g filter="url(#filter0_i_450_940)">
<path d="M291.23 174.201L297.326 159.659L412.787 188.526C413.731 188.762 414.621 189.176 415.409 189.746L417.925 191.566C422.097 194.583 420.927 201.086 415.965 202.459C414.977 202.733 413.935 202.755 412.936 202.522L291.23 174.201Z" fill="#E8A020"/>
</g>
<g filter="url(#filter1_i_450_940)">
<path d="M262.345 174.564L272.765 161.04L295.289 164.518L293.936 167.746L278.556 165.636L274.948 174.244L262.345 174.564Z" fill="#83919E"/>
</g>
<g filter="url(#filter2_i_450_940)">
<path d="M276.739 151.863L78.4519 68.7534L75.4142 89.7288C72.1475 112.286 84.5494 134.198 105.57 143.008L204.78 184.591C225.801 193.402 250.12 186.881 263.913 168.736L276.739 151.863Z" fill="#9AAAB8"/>
</g>
<path d="M276.739 151.863L78.4519 68.7534L75.4142 89.7288C72.1475 112.286 84.5494 134.198 105.57 143.008L204.78 184.591C225.801 193.402 250.12 186.881 263.913 168.736L276.739 151.863Z" stroke="#9AAAB8"/>
<g filter="url(#filter3_i_450_940)">
<ellipse cx="177.784" cy="109.127" rx="108.5" ry="16" transform="rotate(22.2486 177.784 109.127)" fill="#D9D9D9"/>
</g>
<path d="M159.341 43.6615C163.342 44.9113 175.284 49.1096 175.198 54.6773C175.124 59.4906 169.443 61.5095 166.265 62.263C164.896 62.5875 163.479 62.4488 162.166 61.9446C158.195 60.4199 149.547 56.5103 147.673 50.7893C145.719 44.8207 153.484 43.5949 156.708 43.3432C157.603 43.2734 158.485 43.394 159.341 43.6615Z" fill="#ED9121"/>
<path d="M159.341 43.6615C163.342 44.9113 175.284 49.1096 175.198 54.6773C175.124 59.4906 169.443 61.5095 166.265 62.263C164.896 62.5875 163.479 62.4488 162.166 61.9446C158.195 60.4199 149.547 56.5103 147.673 50.7893C145.719 44.8207 153.484 43.5949 156.708 43.3432C157.603 43.2734 158.485 43.394 159.341 43.6615Z" fill="#ED9121"/>
<path d="M160.11 47.8696C162.591 48.6688 167.777 50.6572 167.707 53.2967C167.652 55.357 165.613 56.452 163.967 57.0014C162.637 57.4453 161.202 57.3037 159.908 56.7639C157.649 55.8214 154.174 53.9963 153.356 51.4389C152.479 48.6987 155.59 47.8567 157.476 47.5987C158.364 47.4773 159.257 47.595 160.11 47.8696Z" fill="#CE862F"/>
<path d="M160.717 49.3374C162.529 49.8916 165.599 51.0805 165.498 52.7544C165.426 53.9452 164.38 54.6968 163.357 55.15C162.091 55.7106 160.648 55.5995 159.374 55.056C157.866 54.4126 155.974 53.3272 155.524 51.8101C155.024 50.1293 156.783 49.4424 158.1 49.1661C158.971 48.9836 159.866 49.0773 160.717 49.3374Z" fill="#E1AF71"/>
<g filter="url(#filter4_i_450_940)">
<path d="M121.967 96.4637L120.095 92.5249L127.177 90.4291L127.217 97.7982L129.088 101.737L121.681 100.72L121.967 96.4637Z" fill="#BBD765"/>
</g>
<g filter="url(#filter5_i_450_940)">
<path d="M119.721 74.4515L119.907 74.6418C121.58 72.6465 124.794 73.2608 125.614 75.7327L125.869 76.5036L126.333 75.6349C127.291 73.8413 129.522 73.1639 131.315 74.1219C133.109 75.0798 133.787 77.3104 132.829 79.104L132.365 79.9727L132.957 80.289C134.423 81.0723 134.977 82.8962 134.194 84.3627C133.708 85.2724 132.79 85.87 131.762 85.9466L129.067 86.1473L130.256 86.7825C131.393 87.3897 131.822 88.8033 131.215 89.94C130.608 91.0767 129.194 91.506 128.058 90.8989L124.703 89.1072C124.688 91.503 122.132 93.0246 120.019 91.8959L119.143 91.4281C118.51 91.0902 117.987 90.5795 117.633 89.9554L116.026 87.1181L115.876 87.2202C114.626 88.0675 113.011 88.1528 111.679 87.4417L111.579 87.3883C110.309 86.7101 109.52 85.3839 109.529 83.9442C109.54 82.2099 110.702 80.6939 112.373 80.232L114.444 79.66L114.416 79.6309C112.955 78.1343 113.02 75.726 114.561 74.311C116.036 72.9556 118.322 73.0178 119.721 74.4515Z" fill="#43784F"/>
</g>
<path d="M119.341 78.3073L119.907 74.6418M119.907 74.6418L119.721 74.4515C118.322 73.0178 116.036 72.9556 114.561 74.311C113.02 75.726 112.955 78.1343 114.416 79.6309L114.444 79.66L112.373 80.232C110.702 80.6939 109.54 82.2099 109.529 83.9442C109.52 85.3839 110.309 86.7101 111.579 87.3883L111.679 87.4417C113.011 88.1528 114.626 88.0675 115.876 87.2202L116.026 87.1181L117.633 89.9554C117.987 90.5795 118.51 91.0902 119.143 91.4281L120.019 91.8959C122.132 93.0246 124.688 91.503 124.703 89.1072L128.058 90.8989C129.194 91.506 130.608 91.0767 131.215 89.94C131.822 88.8033 131.393 87.3897 130.256 86.7825L129.067 86.1473L131.762 85.9466C132.79 85.87 133.708 85.2724 134.194 84.3627C134.977 82.8962 134.423 81.0723 132.957 80.289L132.365 79.9727L132.829 79.104C133.787 77.3104 133.109 75.0798 131.315 74.1219C129.522 73.1639 127.291 73.8413 126.333 75.6349L125.869 76.5036L125.614 75.7327C124.794 73.2608 121.58 72.6465 119.907 74.6418Z" stroke="#43784F"/>
<g filter="url(#filter6_g_450_940)">
<path d="M111.669 81.704L113.943 81.009C112.392 79.3682 112.469 76.7731 114.107 75.2181C115.743 73.6649 118.337 73.7268 119.886 75.3657C121.676 73.1853 125.174 73.8838 125.989 76.5842L126.195 77.2653L126.812 76.1102C127.82 74.2222 130.168 73.5091 132.056 74.5175C133.944 75.5258 134.657 77.8738 133.649 79.7619L133.032 80.917L133.469 81.1506C135.116 82.03 135.738 84.0776 134.858 85.7241C134.327 86.7192 133.334 87.3835 132.211 87.4951L129.368 87.7776L130.499 88.382C131.762 89.0566 132.239 90.6273 131.565 91.8903C130.89 93.1533 129.32 93.6303 128.057 92.9557L124.646 91.1341C124.571 93.7966 121.721 95.4506 119.372 94.1957L118.727 93.8511C118.021 93.4744 117.444 92.8969 117.067 92.1917L115.448 89.1606L115.193 89.3419C113.902 90.2591 112.204 90.3675 110.808 89.6216C109.411 88.8758 108.557 87.4042 108.602 85.8217L108.605 85.7242C108.657 83.8654 109.89 82.2475 111.669 81.704Z" fill="#43784F" fill-opacity="0.75"/>
<path d="M119.194 79.4046L119.886 75.3657M119.886 75.3657C121.676 73.1853 125.174 73.8838 125.989 76.5842L126.195 77.2653L126.812 76.1102C127.82 74.2222 130.168 73.5091 132.056 74.5175C133.944 75.5258 134.657 77.8738 133.649 79.7619L133.032 80.917L133.469 81.1506C135.116 82.03 135.738 84.0776 134.858 85.7241C134.327 86.7192 133.334 87.3835 132.211 87.4951L129.368 87.7776L130.499 88.382C131.762 89.0566 132.239 90.6273 131.565 91.8903C130.89 93.1533 129.32 93.6303 128.057 92.9557L124.646 91.1341C124.571 93.7966 121.721 95.4506 119.372 94.1957L118.727 93.8511C118.021 93.4744 117.444 92.8969 117.067 92.1917L115.448 89.1606L115.193 89.3419C113.902 90.2591 112.204 90.3675 110.808 89.6216C109.411 88.8758 108.557 87.4042 108.602 85.8217L108.605 85.7242C108.657 83.8654 109.89 82.2475 111.669 81.704L113.943 81.009C112.392 79.3682 112.469 76.7731 114.107 75.2181C115.743 73.6649 118.337 73.7268 119.886 75.3657Z" stroke="#43784F"/>
</g>
<g filter="url(#filter7_i_450_940)">
<path d="M143.934 102.084L145.166 97.9011L151.841 101.062L146.957 106.58L145.725 110.763L140.883 105.066L143.934 102.084Z" fill="#BBD765"/>
</g>
<g filter="url(#filter8_i_450_940)">
<path d="M156.938 84.1835L156.95 84.4492C159.528 84.0782 161.513 86.6789 160.475 89.0675L160.152 89.8125L161.077 89.4745C162.987 88.7767 165.101 89.7592 165.798 91.6691C166.496 93.579 165.514 95.6931 163.604 96.3909L162.679 96.7289L162.909 97.3595C163.48 98.9211 162.676 100.65 161.115 101.22C160.146 101.574 159.064 101.408 158.246 100.779L156.104 99.1313L156.567 100.398C157.009 101.608 156.386 102.948 155.176 103.39C153.966 103.833 152.626 103.21 152.184 101.999L150.878 98.4274C149.269 100.203 146.35 99.6322 145.528 97.3819L145.187 96.4494C144.941 95.7757 144.891 95.0459 145.044 94.3452L145.738 91.159L145.558 91.1348C144.062 90.9333 142.801 89.9194 142.283 88.5016L142.244 88.3952C141.75 87.0429 142.046 85.5282 143.013 84.4614C144.178 83.1762 146.054 82.821 147.608 83.5916L149.533 84.5461L149.531 84.5056C149.44 82.4159 151.095 80.6649 153.186 80.6376C155.19 80.6114 156.851 82.1818 156.938 84.1835Z" fill="#43784F"/>
</g>
<path d="M154.084 86.8031L156.95 84.4492M156.95 84.4492L156.938 84.1835C156.851 82.1818 155.19 80.6114 153.186 80.6376C151.095 80.6649 149.44 82.4159 149.531 84.5056L149.533 84.5461L147.608 83.5916C146.054 82.821 144.178 83.1762 143.013 84.4614C142.046 85.5282 141.75 87.0429 142.244 88.3952L142.283 88.5016C142.801 89.9194 144.062 90.9333 145.558 91.1348L145.738 91.159L145.044 94.3452C144.891 95.0459 144.941 95.7757 145.187 96.4494L145.528 97.3819C146.35 99.6322 149.269 100.203 150.878 98.4274L152.184 101.999C152.626 103.21 153.966 103.833 155.176 103.39C156.386 102.948 157.009 101.608 156.567 100.398L156.104 99.1313L158.246 100.779C159.064 101.408 160.146 101.574 161.115 101.22C162.676 100.65 163.48 98.9211 162.909 97.3595L162.679 96.7289L163.604 96.3909C165.514 95.6931 166.496 93.579 165.798 91.6691C165.101 89.7592 162.987 88.7767 161.077 89.4745L160.152 89.8125L160.475 89.0675C161.513 86.6789 159.528 84.0782 156.95 84.4492Z" stroke="#43784F"/>
<g filter="url(#filter9_g_450_940)">
<path d="M146.101 84.2188L148.26 85.2175C148.198 82.96 149.986 81.078 152.243 81.0112C154.498 80.9444 156.39 82.7202 156.452 84.975C159.239 84.5435 161.381 87.3966 160.187 89.9525L159.886 90.5972L161.116 90.1477C163.127 89.4131 165.352 90.4474 166.087 92.4578C166.821 94.4683 165.787 96.6935 163.777 97.4281L162.546 97.8776L162.717 98.3433C163.357 100.097 162.455 102.037 160.702 102.678C159.642 103.065 158.459 102.898 157.548 102.232L155.241 100.547L155.681 101.752C156.173 103.097 155.481 104.585 154.136 105.077C152.791 105.568 151.303 104.876 150.811 103.531L149.484 99.8996C147.653 101.834 144.426 101.166 143.512 98.6645L143.261 97.9773C142.987 97.2264 142.942 96.4109 143.131 95.6341L143.945 92.2955L143.635 92.2606C142.061 92.0837 140.724 91.0321 140.18 89.5451C139.637 88.0581 139.982 86.3918 141.07 85.2423L141.137 85.1715C142.416 83.8213 144.414 83.4379 146.101 84.2188Z" fill="#43784F" fill-opacity="0.75"/>
<path d="M153.243 87.5231L156.452 84.975M156.452 84.975C159.239 84.5435 161.381 87.3966 160.187 89.9525L159.886 90.5972L161.116 90.1477C163.127 89.4131 165.352 90.4474 166.087 92.4578C166.821 94.4683 165.787 96.6935 163.777 97.4281L162.546 97.8776L162.717 98.3433C163.357 100.097 162.455 102.037 160.702 102.678C159.642 103.065 158.459 102.898 157.548 102.232L155.241 100.547L155.681 101.752C156.173 103.097 155.481 104.585 154.136 105.077C152.791 105.568 151.303 104.876 150.811 103.531L149.484 99.8996C147.653 101.834 144.426 101.166 143.512 98.6645L143.261 97.9773C142.987 97.2264 142.942 96.4109 143.131 95.6341L143.945 92.2955L143.635 92.2606C142.061 92.0837 140.724 91.0321 140.18 89.5451C139.637 88.0581 139.982 86.3918 141.07 85.2423L141.137 85.1715C142.416 83.8213 144.414 83.4379 146.101 84.2188L148.26 85.2175C148.198 82.96 149.986 81.078 152.243 81.0112C154.498 80.9444 156.39 82.7202 156.452 84.975Z" stroke="#43784F"/>
</g>
<g filter="url(#filter10_i_450_940)">
<path d="M132.4 55.6526L133.493 52.2074L139.115 54.7223L134.91 59.3045L133.818 62.7498L129.78 58.1332L132.4 55.6526Z" fill="#BBD765"/>
</g>
<g filter="url(#filter11_i_450_940)">
<path d="M143.637 41.0044L143.638 41.0376C145.787 40.7095 147.439 42.9028 146.53 44.8776L146.29 45.3992L147.202 45.0659C148.76 44.4965 150.485 45.2982 151.055 46.8565C151.624 48.4149 150.822 50.1397 149.264 50.7091L148.352 51.0425L148.495 51.4354C148.985 52.7768 148.295 54.2615 146.954 54.7516C146.139 55.0494 145.229 54.9185 144.531 54.4031L142.751 53.089L143.1 54.0437C143.476 55.0748 142.946 56.2161 141.915 56.5929C140.884 56.9696 139.742 56.4392 139.366 55.408L138.329 52.5723C136.932 54.061 134.456 53.5545 133.755 51.6367L133.543 51.0568C133.333 50.4813 133.297 49.8567 133.439 49.2607L134.057 46.6707L133.835 46.6448C132.616 46.5022 131.58 45.6846 131.159 44.5312C130.737 43.3778 131.014 42.0718 131.855 41.1765C132.838 40.1294 134.398 39.8176 135.698 40.4278L137.35 41.203C137.296 39.4612 138.668 38.003 140.41 37.9572C142.141 37.9117 143.584 39.2737 143.637 41.0044Z" fill="#43784F"/>
</g>
<path d="M141.181 43.0014L143.638 41.0376M143.638 41.0376L143.637 41.0044C143.584 39.2737 142.141 37.9117 140.41 37.9572C138.668 38.003 137.296 39.4612 137.35 41.203L135.698 40.4278C134.398 39.8176 132.838 40.1294 131.855 41.1765C131.014 42.0718 130.737 43.3778 131.159 44.5312C131.58 45.6846 132.616 46.5022 133.835 46.6448L134.057 46.6707L133.439 49.2607C133.297 49.8567 133.333 50.4813 133.543 51.0568L133.755 51.6367C134.456 53.5545 136.932 54.061 138.329 52.5723L139.366 55.408C139.742 56.4392 140.884 56.9696 141.915 56.5929C142.946 56.2161 143.476 55.0748 143.1 54.0437L142.751 53.089L144.531 54.4031C145.229 54.9185 146.139 55.0494 146.954 54.7516C148.295 54.2615 148.985 52.7768 148.495 51.4354L148.352 51.0425L149.264 50.7091C150.822 50.1397 151.624 48.4149 151.055 46.8565C150.485 45.2982 148.76 44.4965 147.202 45.0659L146.29 45.3992L146.53 44.8776C147.439 42.9028 145.787 40.7095 143.638 41.0376Z" stroke="#43784F"/>
<g filter="url(#filter12_g_450_940)">
<path d="M139.561 38.2777L139.815 38.267C141.648 38.1895 143.183 39.6402 143.21 41.4746C145.532 41.0958 147.312 43.5003 146.27 45.6107L146.056 46.0458L147.234 45.6151C148.875 45.0158 150.691 45.8597 151.29 47.5C151.889 49.1404 151.045 50.9561 149.405 51.5554L148.226 51.9861L148.315 52.2291C148.865 53.7353 148.09 55.4024 146.584 55.9528C145.693 56.2783 144.7 56.1481 143.923 55.6041L142.003 54.2601L142.33 55.1558C142.749 56.3015 142.159 57.5696 141.014 57.9882C139.868 58.4068 138.6 57.8174 138.181 56.6717L137.13 53.7959C135.542 55.4177 132.805 54.8273 132.025 52.6948L131.894 52.3354C131.66 51.6951 131.628 50.9983 131.803 50.3393L132.524 47.6236L132.186 47.5914C130.904 47.4693 129.806 46.6212 129.364 45.4114C128.922 44.2016 129.215 42.8455 130.116 41.9255L130.277 41.7611C131.354 40.6619 132.998 40.3424 134.408 40.9584L136.263 41.7684C136.236 39.9038 137.698 38.3565 139.561 38.2777Z" fill="#43784F" fill-opacity="0.75"/>
<path d="M140.46 43.6016L143.21 41.4746M143.21 41.4746C145.532 41.0958 147.312 43.5003 146.27 45.6107L146.056 46.0458L147.234 45.6151C148.875 45.0158 150.691 45.8597 151.29 47.5C151.889 49.1404 151.045 50.9561 149.405 51.5554L148.226 51.9861L148.315 52.2291C148.865 53.7353 148.09 55.4024 146.584 55.9528C145.693 56.2783 144.7 56.1481 143.923 55.6041L142.003 54.2601L142.33 55.1558C142.749 56.3015 142.159 57.5696 141.014 57.9882C139.868 58.4068 138.6 57.8174 138.181 56.6717L137.13 53.7959C135.542 55.4177 132.805 54.8273 132.025 52.6948L131.894 52.3354C131.66 51.6951 131.628 50.9983 131.803 50.3393L132.524 47.6236L132.186 47.5914C130.904 47.4693 129.806 46.6212 129.364 45.4114C128.922 44.2016 129.215 42.8455 130.116 41.9255L130.277 41.7611C131.354 40.6619 132.998 40.3424 134.408 40.9584L136.263 41.7684C136.236 39.9038 137.698 38.3565 139.561 38.2777L139.815 38.267C141.648 38.1895 143.183 39.6402 143.21 41.4746Z" stroke="#43784F"/>
</g>
<g filter="url(#filter13_i_450_940)">
<path d="M94.8079 68.9989L96.0396 64.8157L102.715 67.9764L97.8306 73.4944L96.5988 77.6776L91.7569 71.9804L94.8079 68.9989Z" fill="#BBD765"/>
</g>
<g filter="url(#filter14_i_450_940)">
<path d="M107.812 51.098L107.824 51.3638C110.402 50.9928 112.387 53.5934 111.349 55.9821L111.026 56.7271L111.951 56.3891C113.861 55.6912 115.975 56.6738 116.672 58.5837C117.37 60.4936 116.388 62.6076 114.478 63.3055L113.553 63.6435L113.783 64.2741C114.354 65.8357 113.55 67.5642 111.989 68.1348C111.02 68.4887 109.938 68.3222 109.12 67.6935L106.978 66.0458L107.441 67.3124C107.883 68.5228 107.26 69.8625 106.05 70.3048C104.84 70.7471 103.5 70.1244 103.058 68.914L101.752 65.3419C100.143 67.1172 97.2242 66.5468 96.4019 64.2964L96.0612 63.3639C95.8151 62.6902 95.7654 61.9605 95.9181 61.2597L96.6124 58.0736L96.4322 58.0493C94.9363 57.8478 93.6752 56.8339 93.1572 55.4162L93.1183 55.3097C92.6242 53.9574 92.9202 52.4427 93.887 51.3759C95.0517 50.0908 96.9282 49.7356 98.482 50.5062L100.407 51.4607L100.405 51.4201C100.314 49.3305 101.969 47.5795 104.06 47.5522C106.064 47.526 107.725 49.0963 107.812 51.098Z" fill="#43784F"/>
</g>
<path d="M104.958 53.7177L107.824 51.3638M107.824 51.3638L107.812 51.098C107.725 49.0963 106.064 47.526 104.06 47.5522C101.969 47.5795 100.314 49.3305 100.405 51.4201L100.407 51.4607L98.482 50.5062C96.9282 49.7356 95.0517 50.0908 93.887 51.3759C92.9202 52.4427 92.6242 53.9574 93.1183 55.3097L93.1572 55.4162C93.6752 56.8339 94.9363 57.8478 96.4322 58.0493L96.6124 58.0736L95.9181 61.2597C95.7654 61.9605 95.8151 62.6902 96.0612 63.3639L96.4019 64.2964C97.2242 66.5468 100.143 67.1172 101.752 65.3419L103.058 68.914C103.5 70.1244 104.84 70.7471 106.05 70.3048C107.26 69.8625 107.883 68.5228 107.441 67.3124L106.978 66.0458L109.12 67.6935C109.938 68.3222 111.02 68.4887 111.989 68.1348C113.55 67.5642 114.354 65.8357 113.783 64.2741L113.553 63.6435L114.478 63.3055C116.388 62.6076 117.37 60.4936 116.672 58.5837C115.975 56.6738 113.861 55.6912 111.951 56.3891L111.026 56.7271L111.349 55.9821C112.387 53.5934 110.402 50.9928 107.824 51.3638Z" stroke="#43784F"/>
<g filter="url(#filter15_g_450_940)">
<path d="M96.9754 51.1333L99.1338 52.1321C99.0717 49.8746 100.86 47.9925 103.117 47.9257C105.372 47.859 107.264 49.6348 107.326 51.8896C110.114 51.4581 112.255 54.3111 111.061 56.867L110.76 57.5117L111.99 57.0623C114.001 56.3277 116.226 57.362 116.961 59.3724C117.695 61.3828 116.661 63.6081 114.651 64.3427L113.421 64.7921L113.591 65.2578C114.231 67.0111 113.329 68.9517 111.576 69.5923C110.516 69.9794 109.333 69.8124 108.422 69.1469L106.115 67.4614L106.555 68.6665C107.047 70.0114 106.355 71.5 105.01 71.9914C103.665 72.4828 102.177 71.7909 101.685 70.446L100.358 66.8141C98.5266 68.7481 95.3005 68.0809 94.3864 65.5791L94.1353 64.8919C93.8609 64.1409 93.8156 63.3254 94.0051 62.5487L94.8195 59.2101L94.5085 59.1751C92.9353 58.9982 91.5976 57.9466 91.0543 56.4596C90.5109 54.9727 90.8556 53.3063 91.9441 52.1568L92.0112 52.086C93.2899 50.7358 95.2877 50.3524 96.9754 51.1333Z" fill="#43784F" fill-opacity="0.75"/>
<path d="M104.117 54.4376L107.326 51.8896M107.326 51.8896C110.114 51.4581 112.255 54.3111 111.061 56.867L110.76 57.5117L111.99 57.0623C114.001 56.3277 116.226 57.362 116.961 59.3724C117.695 61.3828 116.661 63.6081 114.651 64.3427L113.421 64.7921L113.591 65.2578C114.231 67.0111 113.329 68.9517 111.576 69.5923C110.516 69.9794 109.333 69.8124 108.422 69.1469L106.115 67.4614L106.555 68.6665C107.047 70.0114 106.355 71.5 105.01 71.9914C103.665 72.4828 102.177 71.7909 101.685 70.446L100.358 66.8141C98.5266 68.7481 95.3005 68.0809 94.3864 65.5791L94.1353 64.8919C93.8609 64.1409 93.8156 63.3254 94.0051 62.5487L94.8195 59.2101L94.5085 59.1751C92.9353 58.9982 91.5976 57.9466 91.0543 56.4596C90.5109 54.9727 90.8556 53.3063 91.9441 52.1568L92.0112 52.086C93.2899 50.7358 95.2877 50.3524 96.9754 51.1333L99.1338 52.1321C99.0717 49.8746 100.86 47.9925 103.117 47.9257C105.372 47.859 107.264 49.6348 107.326 51.8896Z" stroke="#43784F"/>
</g>
<path d="M142.35 94.1259C146.351 95.3756 158.292 99.5739 158.206 105.142C158.132 109.955 152.451 111.974 149.273 112.727C147.904 113.052 146.487 112.913 145.174 112.409C141.203 110.884 132.555 106.975 130.682 101.254C128.727 95.2851 136.492 94.0592 139.717 93.8075C140.611 93.7377 141.493 93.8584 142.35 94.1259Z" fill="#ED9121"/>
<path d="M143.118 98.334C145.599 99.1331 150.786 101.122 150.715 103.761C150.661 105.821 148.621 106.916 146.975 107.466C145.645 107.91 144.211 107.768 142.917 107.228C140.657 106.286 137.182 104.461 136.364 101.903C135.487 99.163 138.598 98.321 140.485 98.0631C141.372 97.9416 142.265 98.0593 143.118 98.334Z" fill="#CE862F"/>
<path d="M143.725 99.8017C145.538 100.356 148.607 101.545 148.506 103.219C148.434 104.41 147.388 105.161 146.365 105.614C145.099 106.175 143.656 106.064 142.382 105.52C140.875 104.877 138.982 103.792 138.532 102.274C138.033 100.594 139.791 99.9067 141.109 99.6305C141.979 99.448 142.875 99.5417 143.725 99.8017Z" fill="#E1AF71"/>
<path d="M97.4243 67.8642C101.425 69.1139 113.367 73.3122 113.281 78.8799C113.207 83.6932 107.526 85.7121 104.348 86.4656C102.979 86.7901 101.562 86.6514 100.249 86.1472C96.2778 84.6226 87.6296 80.7129 85.7564 74.992C83.8021 69.0234 91.5666 67.7975 94.7913 67.5458C95.6859 67.476 96.5678 67.5966 97.4243 67.8642Z" fill="#ED9121"/>
<path d="M97.4243 67.8642C101.425 69.1139 113.367 73.3122 113.281 78.8799C113.207 83.6932 107.526 85.7121 104.348 86.4656C102.979 86.7901 101.562 86.6514 100.249 86.1472C96.2778 84.6226 87.6296 80.7129 85.7564 74.992C83.8021 69.0234 91.5666 67.7975 94.7913 67.5458C95.6859 67.476 96.5678 67.5966 97.4243 67.8642Z" fill="#ED9121"/>
<path d="M98.1927 72.0723C100.674 72.8714 105.86 74.8598 105.79 77.4993C105.735 79.5597 103.696 80.6547 102.05 81.2041C100.72 81.6479 99.2852 81.5063 97.9914 80.9665C95.7322 80.024 92.2567 78.1989 91.4386 75.6416C90.562 72.9013 93.6731 72.0593 95.5593 71.8013C96.447 71.6799 97.3399 71.7976 98.1927 72.0723Z" fill="#CE862F"/>
<path d="M98.8 73.54C100.612 74.0942 103.682 75.2831 103.581 76.9571C103.509 78.1479 102.463 78.8995 101.44 79.3526C100.174 79.9133 98.7306 79.8022 97.4571 79.2587C95.9493 78.6152 94.057 77.5298 93.6065 76.0127C93.1075 74.332 94.8657 73.645 96.1834 73.3688C97.0538 73.1863 97.9495 73.28 98.8 73.54Z" fill="#E1AF71"/>
<path d="M130.694 55.454C134.695 56.7037 146.637 60.9021 146.551 66.4697C146.477 71.2831 140.796 73.302 137.618 74.0555C136.249 74.3799 134.832 74.2412 133.519 73.7371C129.548 72.2124 120.9 68.3027 119.026 62.5818C117.072 56.6132 124.837 55.3874 128.061 55.1357C128.956 55.0658 129.838 55.1865 130.694 55.454Z" fill="#ED9121"/>
<path d="M130.694 55.454C134.695 56.7037 146.637 60.9021 146.551 66.4697C146.477 71.2831 140.796 73.302 137.618 74.0555C136.249 74.3799 134.832 74.2412 133.519 73.7371C129.548 72.2124 120.9 68.3027 119.026 62.5818C117.072 56.6132 124.837 55.3874 128.061 55.1357C128.956 55.0658 129.838 55.1865 130.694 55.454Z" fill="#ED9121"/>
<path d="M131.463 59.6621C133.944 60.4612 139.13 62.4496 139.06 65.0891C139.005 67.1495 136.966 68.2445 135.32 68.7939C133.99 69.2378 132.555 69.0962 131.261 68.5564C129.002 67.6138 125.527 65.7888 124.709 63.2314C123.832 60.4911 126.943 59.6492 128.829 59.3912C129.717 59.2698 130.61 59.3874 131.463 59.6621Z" fill="#CE862F"/>
<path d="M132.07 61.1299C133.882 61.684 136.952 62.8729 136.851 64.5469C136.779 65.7377 135.733 66.4893 134.71 66.9425C133.444 67.5031 132.001 67.392 130.727 66.8485C129.219 66.205 127.327 65.1197 126.877 63.6026C126.378 61.9218 128.136 61.2348 129.453 60.9586C130.324 60.7761 131.22 60.8698 132.07 61.1299Z" fill="#E1AF71"/>
<path d="M95.5426 68.6061C100.83 71.4201 103.382 77.5863 101.629 83.3138L100.763 86.1457" stroke="#8A1422" stroke-width="2.5"/>
<path d="M94.7138 69.8773C99.2337 72.5347 101.407 77.8956 100.012 82.9501L99.2044 85.8801" stroke="#D9AFB4"/>
<path d="M94.4779 70.3187C98.7182 72.8635 100.661 77.9838 99.175 82.7008L98.322 85.4093" stroke="#FFFAFB"/>
<path d="M157.126 114.019C162.551 111.48 169.014 113.141 172.542 117.982L174.286 120.375" stroke="#8A1422" stroke-width="2.5"/>
<path d="M157.645 115.445C162.484 113.426 168.075 114.907 171.28 119.056L173.138 121.462" stroke="#D9AFB4"/>
<path d="M157.856 115.898C162.437 114.035 167.698 115.556 170.578 119.576L172.232 121.884" stroke="#FFFAFB"/>
<path d="M168.124 59.0622C173.549 56.5233 180.012 58.1847 183.54 63.025L185.285 65.4183" stroke="#8A1422" stroke-width="2.5"/>
<path d="M168.643 60.4882C173.482 58.4692 179.073 59.9501 182.278 64.0996L184.136 66.505" stroke="#D9AFB4"/>
<path d="M168.854 60.9414C173.435 59.0784 178.696 60.5992 181.576 64.6193L183.23 66.9276" stroke="#FFFAFB"/>
<path d="M135.124 65.0622C140.549 62.5233 147.012 64.1847 150.54 69.025L152.285 71.4183" stroke="#8A1422" stroke-width="2.5"/>
<path d="M135.643 66.4882C140.482 64.4692 146.073 65.9501 149.278 70.0996L151.136 72.505" stroke="#D9AFB4"/>
<path d="M135.854 66.9414C140.435 65.0784 145.696 66.5992 148.576 70.6193L150.23 72.9276" stroke="#FFFAFB"/>
<path d="M112.917 54.2392C116.099 49.1643 122.43 47.0555 128.019 49.2092L130.783 50.2741" stroke="#8A1422" stroke-width="2.5"/>
<path d="M114.127 55.1564C117.098 50.836 122.599 49.0482 127.542 50.7967L130.407 51.8102" stroke="#D9AFB4"/>
<path d="M114.55 55.4226C117.389 51.3731 122.634 49.7982 127.233 51.614L129.875 52.6567" stroke="#FFFAFB"/>
<path d="M122.152 63.6257C128.136 63.8841 133.098 68.3468 133.987 74.27L134.426 77.1988" stroke="#8A1422" stroke-width="2.5"/>
<path d="M121.952 65.1299C127.176 65.5782 131.448 69.4777 132.371 74.6392L132.905 77.6312" stroke="#D9AFB4"/>
<path d="M121.93 65.6295C126.853 66.0967 130.814 69.8786 131.508 74.7751L131.906 77.5867" stroke="#FFFAFB"/>
</g>
<defs>
<filter id="filter0_i_450_940" x="288.23" y="159.659" width="132.24" height="43.0234" filterUnits="userSpaceOnUse" color-interpolation-filters="sRGB">
<feFlood flood-opacity="0" result="BackgroundImageFix"/>
<feBlend mode="normal" in="SourceGraphic" in2="BackgroundImageFix" result="shape"/>
<feColorMatrix in="SourceAlpha" type="matrix" values="0 0 0 0 0 0 0 0 0 0 0 0 0 0 0 0 0 0 127 0" result="hardAlpha"/>
<feOffset dx="-3"/>
<feGaussianBlur stdDeviation="2"/>
<feComposite in2="hardAlpha" operator="arithmetic" k2="-1" k3="1"/>
<feColorMatrix type="matrix" values="0 0 0 0 0 0 0 0 0 0 0 0 0 0 0 0 0 0 0.25 0"/>
<feBlend mode="normal" in2="shape" result="effect1_innerShadow_450_940"/>
</filter>
<filter id="filter1_i_450_940" x="261.345" y="160.041" width="33.9443" height="14.5234" filterUnits="userSpaceOnUse" color-interpolation-filters="sRGB">
<feFlood flood-opacity="0" result="BackgroundImageFix"/>
<feBlend mode="normal" in="SourceGraphic" in2="BackgroundImageFix" result="shape"/>
<feColorMatrix in="SourceAlpha" type="matrix" values="0 0 0 0 0 0 0 0 0 0 0 0 0 0 0 0 0 0 127 0" result="hardAlpha"/>
<feOffset dx="-1" dy="-1"/>
<feGaussianBlur stdDeviation="3.05"/>
<feComposite in2="hardAlpha" operator="arithmetic" k2="-1" k3="1"/>
<feColorMatrix type="matrix" values="0 0 0 0 0 0 0 0 0 0 0 0 0 0 0 0 0 0 0.25 0"/>
<feBlend mode="normal" in2="shape" result="effect1_innerShadow_450_940"/>
</filter>
<filter id="filter2_i_450_940" x="74.3952" y="63.0425" width="209.133" height="125.939" filterUnits="userSpaceOnUse" color-interpolation-filters="sRGB">
<feFlood flood-opacity="0" result="BackgroundImageFix"/>
<feBlend mode="normal" in="SourceGraphic" in2="BackgroundImageFix" result="shape"/>
<feColorMatrix in="SourceAlpha" type="matrix" values="0 0 0 0 0 0 0 0 0 0 0 0 0 0 0 0 0 0 127 0" result="hardAlpha"/>
<feOffset dx="6" dy="-5"/>
<feGaussianBlur stdDeviation="7.25"/>
<feComposite in2="hardAlpha" operator="arithmetic" k2="-1" k3="1"/>
<feColorMatrix type="matrix" values="0 0 0 0 0 0 0 0 0 0 0 0 0 0 0 0 0 0 0.25 0"/>
<feBlend mode="normal" in2="shape" result="effect1_innerShadow_450_940"/>
</filter>
<filter id="filter3_i_450_940" x="76.176" y="62.4463" width="202.216" height="90.3608" filterUnits="userSpaceOnUse" color-interpolation-filters="sRGB">
<feFlood flood-opacity="0" result="BackgroundImageFix"/>
<feBlend mode="normal" in="SourceGraphic" in2="BackgroundImageFix" result="shape"/>
<feColorMatrix in="SourceAlpha" type="matrix" values="0 0 0 0 0 0 0 0 0 0 0 0 0 0 0 0 0 0 127 0" result="hardAlpha"/>
<feOffset dx="-1" dy="-3"/>
<feGaussianBlur stdDeviation="6.3"/>
<feComposite in2="hardAlpha" operator="arithmetic" k2="-1" k3="1"/>
<feColorMatrix type="matrix" values="0 0 0 0 0 0 0 0 0 0 0 0 0 0 0 0 0 0 0.25 0"/>
<feBlend mode="normal" in2="shape" result="effect1_innerShadow_450_940"/>
</filter>
<filter id="filter4_i_450_940" x="120.095" y="90.4292" width="8.99316" height="11.3076" filterUnits="userSpaceOnUse" color-interpolation-filters="sRGB">
<feFlood flood-opacity="0" result="BackgroundImageFix"/>
<feBlend mode="normal" in="SourceGraphic" in2="BackgroundImageFix" result="shape"/>
<feColorMatrix in="SourceAlpha" type="matrix" values="0 0 0 0 0 0 0 0 0 0 0 0 0 0 0 0 0 0 127 0" result="hardAlpha"/>
<feOffset dx="5" dy="-10"/>
<feComposite in2="hardAlpha" operator="arithmetic" k2="-1" k3="1"/>
<feColorMatrix type="matrix" values="0 0 0 0 0.262745 0 0 0 0 0.470588 0 0 0 0 0.309804 0 0 0 0.2 0"/>
<feBlend mode="normal" in2="shape" result="effect1_innerShadow_450_940"/>
</filter>
<filter id="filter5_i_450_940" x="109.029" y="72.834" width="27.9205" height="21.8424" filterUnits="userSpaceOnUse" color-interpolation-filters="sRGB">
<feFlood flood-opacity="0" result="BackgroundImageFix"/>
<feBlend mode="normal" in="SourceGraphic" in2="BackgroundImageFix" result="shape"/>
<feColorMatrix in="SourceAlpha" type="matrix" values="0 0 0 0 0 0 0 0 0 0 0 0 0 0 0 0 0 0 127 0" result="hardAlpha"/>
<feOffset dx="12" dy="4"/>
<feGaussianBlur stdDeviation="0.95"/>
<feComposite in2="hardAlpha" operator="arithmetic" k2="-1" k3="1"/>
<feColorMatrix type="matrix" values="0 0 0 0 0 0 0 0 0 0 0 0 0 0 0 0 0 0 0.25 0"/>
<feBlend mode="normal" in2="shape" result="effect1_innerShadow_450_940"/>
</filter>
<filter id="filter6_g_450_940" x="108" y="73.4596" width="27.8572" height="21.764" filterUnits="userSpaceOnUse" color-interpolation-filters="sRGB">
<feFlood flood-opacity="0" result="BackgroundImageFix"/>
<feBlend mode="normal" in="SourceGraphic" in2="BackgroundImageFix" result="shape"/>
<feTurbulence type="fractalNoise" baseFrequency="0.99900001287460327 0.99900001287460327" numOctaves="3" seed="4316" />
<feDisplacementMap in="shape" scale="0.20000000298023224" xChannelSelector="R" yChannelSelector="G" result="displacedImage" width="100%" height="100%" />
<feMerge result="effect1_texture_450_940">
<feMergeNode in="displacedImage"/>
</feMerge>
</filter>
<filter id="filter7_i_450_940" x="140.883" y="97.9009" width="10.958" height="12.8623" filterUnits="userSpaceOnUse" color-interpolation-filters="sRGB">
<feFlood flood-opacity="0" result="BackgroundImageFix"/>
<feBlend mode="normal" in="SourceGraphic" in2="BackgroundImageFix" result="shape"/>
<feColorMatrix in="SourceAlpha" type="matrix" values="0 0 0 0 0 0 0 0 0 0 0 0 0 0 0 0 0 0 127 0" result="hardAlpha"/>
<feOffset dx="5" dy="-10"/>
<feComposite in2="hardAlpha" operator="arithmetic" k2="-1" k3="1"/>
<feColorMatrix type="matrix" values="0 0 0 0 0.262745 0 0 0 0 0.470588 0 0 0 0 0.309804 0 0 0 0.2 0"/>
<feBlend mode="normal" in2="shape" result="effect1_innerShadow_450_940"/>
</filter>
<filter id="filter8_i_450_940" x="141.508" y="80.1372" width="26.9146" height="25.7955" filterUnits="userSpaceOnUse" color-interpolation-filters="sRGB">
<feFlood flood-opacity="0" result="BackgroundImageFix"/>
<feBlend mode="normal" in="SourceGraphic" in2="BackgroundImageFix" result="shape"/>
<feColorMatrix in="SourceAlpha" type="matrix" values="0 0 0 0 0 0 0 0 0 0 0 0 0 0 0 0 0 0 127 0" result="hardAlpha"/>
<feOffset dx="12" dy="4"/>
<feGaussianBlur stdDeviation="0.95"/>
<feComposite in2="hardAlpha" operator="arithmetic" k2="-1" k3="1"/>
<feColorMatrix type="matrix" values="0 0 0 0 0 0 0 0 0 0 0 0 0 0 0 0 0 0 0.25 0"/>
<feBlend mode="normal" in2="shape" result="effect1_innerShadow_450_940"/>
</filter>
<filter id="filter9_g_450_940" x="139.326" y="80.4093" width="27.597" height="25.4261" filterUnits="userSpaceOnUse" color-interpolation-filters="sRGB">
<feFlood flood-opacity="0" result="BackgroundImageFix"/>
<feBlend mode="normal" in="SourceGraphic" in2="BackgroundImageFix" result="shape"/>
<feTurbulence type="fractalNoise" baseFrequency="0.99900001287460327 0.99900001287460327" numOctaves="3" seed="4316" />
<feDisplacementMap in="shape" scale="0.20000000298023224" xChannelSelector="R" yChannelSelector="G" result="displacedImage" width="100%" height="100%" />
<feMerge result="effect1_texture_450_940">
<feMergeNode in="displacedImage"/>
</feMerge>
</filter>
<filter id="filter10_i_450_940" x="129.779" y="52.2075" width="9.33496" height="10.5425" filterUnits="userSpaceOnUse" color-interpolation-filters="sRGB">
<feFlood flood-opacity="0" result="BackgroundImageFix"/>
<feBlend mode="normal" in="SourceGraphic" in2="BackgroundImageFix" result="shape"/>
<feColorMatrix in="SourceAlpha" type="matrix" values="0 0 0 0 0 0 0 0 0 0 0 0 0 0 0 0 0 0 127 0" result="hardAlpha"/>
<feOffset dx="5" dy="-10"/>
<feComposite in2="hardAlpha" operator="arithmetic" k2="-1" k3="1"/>
<feColorMatrix type="matrix" values="0 0 0 0 0.262745 0 0 0 0 0.470588 0 0 0 0 0.309804 0 0 0 0.2 0"/>
<feBlend mode="normal" in2="shape" result="effect1_innerShadow_450_940"/>
</filter>
<filter id="filter11_i_450_940" x="130.464" y="37.4561" width="23.1739" height="21.6583" filterUnits="userSpaceOnUse" color-interpolation-filters="sRGB">
<feFlood flood-opacity="0" result="BackgroundImageFix"/>
<feBlend mode="normal" in="SourceGraphic" in2="BackgroundImageFix" result="shape"/>
<feColorMatrix in="SourceAlpha" type="matrix" values="0 0 0 0 0 0 0 0 0 0 0 0 0 0 0 0 0 0 127 0" result="hardAlpha"/>
<feOffset dx="12" dy="4"/>
<feGaussianBlur stdDeviation="0.95"/>
<feComposite in2="hardAlpha" operator="arithmetic" k2="-1" k3="1"/>
<feColorMatrix type="matrix" values="0 0 0 0 0 0 0 0 0 0 0 0 0 0 0 0 0 0 0.25 0"/>
<feBlend mode="normal" in2="shape" result="effect1_innerShadow_450_940"/>
</filter>
<filter id="filter12_g_450_940" x="128.561" y="37.6642" width="23.5223" height="21.0589" filterUnits="userSpaceOnUse" color-interpolation-filters="sRGB">
<feFlood flood-opacity="0" result="BackgroundImageFix"/>
<feBlend mode="normal" in="SourceGraphic" in2="BackgroundImageFix" result="shape"/>
<feTurbulence type="fractalNoise" baseFrequency="0.99900001287460327 0.99900001287460327" numOctaves="3" seed="4316" />
<feDisplacementMap in="shape" scale="0.20000000298023224" xChannelSelector="R" yChannelSelector="G" result="displacedImage" width="100%" height="100%" />
<feMerge result="effect1_texture_450_940">
<feMergeNode in="displacedImage"/>
</feMerge>
</filter>
<filter id="filter13_i_450_940" x="91.757" y="64.8154" width="10.958" height="12.8623" filterUnits="userSpaceOnUse" color-interpolation-filters="sRGB">
<feFlood flood-opacity="0" result="BackgroundImageFix"/>
<feBlend mode="normal" in="SourceGraphic" in2="BackgroundImageFix" result="shape"/>
<feColorMatrix in="SourceAlpha" type="matrix" values="0 0 0 0 0 0 0 0 0 0 0 0 0 0 0 0 0 0 127 0" result="hardAlpha"/>
<feOffset dx="5" dy="-10"/>
<feComposite in2="hardAlpha" operator="arithmetic" k2="-1" k3="1"/>
<feColorMatrix type="matrix" values="0 0 0 0 0.262745 0 0 0 0 0.470588 0 0 0 0 0.309804 0 0 0 0.2 0"/>
<feBlend mode="normal" in2="shape" result="effect1_innerShadow_450_940"/>
</filter>
<filter id="filter14_i_450_940" x="92.3825" y="47.0518" width="26.9146" height="25.7955" filterUnits="userSpaceOnUse" color-interpolation-filters="sRGB">
<feFlood flood-opacity="0" result="BackgroundImageFix"/>
<feBlend mode="normal" in="SourceGraphic" in2="BackgroundImageFix" result="shape"/>
<feColorMatrix in="SourceAlpha" type="matrix" values="0 0 0 0 0 0 0 0 0 0 0 0 0 0 0 0 0 0 127 0" result="hardAlpha"/>
<feOffset dx="12" dy="4"/>
<feGaussianBlur stdDeviation="0.95"/>
<feComposite in2="hardAlpha" operator="arithmetic" k2="-1" k3="1"/>
<feColorMatrix type="matrix" values="0 0 0 0 0 0 0 0 0 0 0 0 0 0 0 0 0 0 0.25 0"/>
<feBlend mode="normal" in2="shape" result="effect1_innerShadow_450_940"/>
</filter>
<filter id="filter15_g_450_940" x="90.2005" y="47.3238" width="27.597" height="25.4261" filterUnits="userSpaceOnUse" color-interpolation-filters="sRGB">
<feFlood flood-opacity="0" result="BackgroundImageFix"/>
<feBlend mode="normal" in="SourceGraphic" in2="BackgroundImageFix" result="shape"/>
<feTurbulence type="fractalNoise" baseFrequency="0.99900001287460327 0.99900001287460327" numOctaves="3" seed="4316" />
<feDisplacementMap in="shape" scale="0.20000000298023224" xChannelSelector="R" yChannelSelector="G" result="displacedImage" width="100%" height="100%" />
<feMerge result="effect1_texture_450_940">
<feMergeNode in="displacedImage"/>
</feMerge>
</filter>
<clipPath id="clip0_450_940">
<rect width="407" height="249" fill="white" transform="translate(50.4958) rotate(11.7004)"/>
</clipPath>
</defs>
</svg>
