<svg width="421" height="272" viewBox="0 0 421 272" fill="none" xmlns="http://www.w3.org/2000/svg">
<g filter="url(#filter0_i_450_1009)">
<path d="M277.799 136.843L281.686 121.562L400.14 133.108C401.108 133.202 402.049 133.481 402.913 133.928L405.67 135.358C410.241 137.727 410.042 144.332 405.336 146.421C404.398 146.838 403.371 147.012 402.349 146.929L277.799 136.843Z" fill="#E8A020"/>
</g>
<g filter="url(#filter1_i_450_1009)">
<path d="M249.282 141.456L257.597 126.546L280.387 126.667L279.525 130.059L264.002 130.239L261.701 139.284L249.282 141.456Z" fill="#83919E"/>
</g>
<g filter="url(#filter2_i_450_1009)">
<path d="M260.176 116.883L51.8102 63.8857L51.8951 85.0798C51.9865 107.872 67.4805 127.718 89.5697 133.337L193.822 159.853C215.912 165.471 239.005 155.44 249.975 135.461L260.176 116.883Z" fill="#9AAAB8"/>
</g>
<path d="M260.176 116.883L51.8102 63.8857L51.8951 85.0798C51.9865 107.872 67.4805 127.718 89.5697 133.337L193.822 159.853C215.912 165.471 239.005 155.44 249.975 135.461L260.176 116.883Z" stroke="#9AAAB8"/>
<g filter="url(#filter3_i_450_1009)">
<ellipse cx="156.005" cy="89.1879" rx="108.5" ry="16" transform="rotate(13.7787 156.005 89.1879)" fill="#D9D9D9"/>
</g>
<path d="M134.919 45.0516C139.061 45.6984 151.491 48.092 152.226 53.6116C152.861 58.3834 147.54 61.217 144.507 62.4304C143.201 62.9529 141.779 63.0245 140.406 62.7192C136.254 61.7961 127.124 59.2029 124.429 53.8202C121.617 48.2046 129.116 45.8485 132.268 45.1245C133.143 44.9237 134.033 44.9131 134.919 45.0516Z" fill="#ED9121"/>
<path d="M134.919 45.0516C139.061 45.6984 151.491 48.092 152.226 53.6116C152.861 58.3834 147.54 61.217 144.507 62.4304C143.201 62.9529 141.779 63.0245 140.406 62.7192C136.254 61.7961 127.124 59.2029 124.429 53.8202C121.617 48.2046 129.116 45.8485 132.268 45.1245C133.143 44.9237 134.033 44.9131 134.919 45.0516Z" fill="#ED9121"/>
<path d="M136.299 49.1009C138.871 49.5258 144.294 50.7286 144.613 53.3497C144.862 55.3957 143.006 56.7791 141.459 57.5649C140.209 58.1998 138.769 58.2711 137.41 57.9278C135.036 57.3283 131.33 56.035 130.144 53.6261C128.874 51.0448 131.827 49.7538 133.654 49.2208C134.514 48.9699 135.415 48.9548 136.299 49.1009Z" fill="#CE862F"/>
<path d="M137.116 50.4628C138.991 50.744 142.201 51.4678 142.348 53.1384C142.453 54.3268 141.529 55.2243 140.583 55.8232C139.414 56.5642 137.97 56.6669 136.63 56.3169C135.044 55.9025 133.013 55.1077 132.344 53.6735C131.603 52.0845 133.24 51.1461 134.503 50.6788C135.337 50.3701 136.237 50.3308 137.116 50.4628Z" fill="#E1AF71"/>
<g filter="url(#filter4_i_450_1009)">
<path d="M98.9316 84.8842L96.5003 81.264L103.197 78.1479L104.321 85.4308L106.752 89.051L99.276 89.1361L98.9316 84.8842Z" fill="#BBD765"/>
</g>
<g filter="url(#filter5_i_450_1009)">
<path d="M93.4683 63.4432L93.6801 63.6041C95.0415 61.384 98.3106 61.5183 99.4853 63.8425L99.8517 64.5674L100.183 63.6398C100.866 61.7247 102.972 60.7261 104.888 61.4094C106.803 62.0928 107.801 64.1993 107.118 66.1144L106.787 67.042L107.419 67.2676C108.985 67.8263 109.802 69.5487 109.243 71.1146C108.897 72.0859 108.077 72.8122 107.071 73.0394L104.435 73.6349L105.705 74.088C106.918 74.5211 107.551 75.8561 107.118 77.0698C106.685 78.2835 105.35 78.9164 104.137 78.4833L100.555 77.2053C100.892 79.5772 98.5886 81.4586 96.332 80.6535L95.397 80.3198C94.7215 80.0788 94.1284 79.6508 93.6868 79.0856L91.6792 76.5159L91.5454 76.6391C90.4347 77.6611 88.849 77.9835 87.4274 77.4763L87.3207 77.4382C85.9647 76.9544 84.9885 75.7589 84.7855 74.3336C84.5409 72.6166 85.4665 70.946 87.052 70.243L89.016 69.3721L88.9836 69.3476C87.318 68.0825 87.0281 65.6908 88.3433 64.0644C89.6031 62.5064 91.8728 62.2313 93.4683 63.4432Z" fill="#43784F"/>
</g>
<path d="M93.6598 67.313L93.6801 63.6041M93.6801 63.6041L93.4683 63.4432C91.8728 62.2313 89.6031 62.5064 88.3433 64.0644C87.0281 65.6908 87.318 68.0825 88.9836 69.3476L89.016 69.3721L87.052 70.243C85.4665 70.946 84.5409 72.6166 84.7855 74.3336C84.9885 75.7589 85.9647 76.9544 87.3207 77.4382L87.4274 77.4763C88.849 77.9835 90.4347 77.6611 91.5454 76.6391L91.6792 76.5159L93.6868 79.0856C94.1284 79.6508 94.7215 80.0788 95.397 80.3198L96.332 80.6535C98.5886 81.4586 100.892 79.5772 100.555 77.2053L104.137 78.4833C105.35 78.9164 106.685 78.2835 107.118 77.0698C107.551 75.8561 106.918 74.5211 105.705 74.088L104.435 73.6349L107.071 73.0394C108.077 72.8122 108.897 72.0859 109.243 71.1146C109.802 69.5487 108.985 67.8263 107.419 67.2676L106.787 67.042L107.118 66.1144C107.801 64.1993 106.803 62.0928 104.888 61.4094C102.972 60.7261 100.866 61.7247 100.183 63.6398L99.8517 64.5674L99.4853 63.8425C98.3106 61.5183 95.0415 61.384 93.6801 63.6041Z" stroke="#43784F"/>
<g filter="url(#filter6_g_450_1009)">
<path d="M86.572 71.8027L88.7193 70.7802C86.9428 69.3858 86.6375 66.8076 88.0283 65.0283C89.4174 63.2512 91.9922 62.9303 93.7665 64.3231C95.2154 61.9029 98.7782 62.0785 99.9821 64.6294L100.286 65.2728L100.726 64.0394C101.445 62.0235 103.663 60.9723 105.678 61.6916C107.694 62.4109 108.746 64.6283 108.026 66.6442L107.586 67.8777L108.053 68.0443C109.811 68.6716 110.728 70.6053 110.101 72.3633C109.721 73.4259 108.837 74.2292 107.743 74.5049L104.972 75.2031L106.181 75.6343C107.529 76.1154 108.233 77.5987 107.751 78.9473C107.27 80.2959 105.787 80.9991 104.438 80.5179L100.796 79.2185C101.114 81.863 98.5398 83.9186 96.0311 83.0235L95.3421 82.7777C94.589 82.509 93.9327 82.0228 93.4562 81.3808L91.4081 78.6213L91.1825 78.8382C90.0414 79.9355 88.3777 80.2927 86.8866 79.7607C85.3956 79.2287 84.3338 77.899 84.145 76.3272L84.1334 76.2303C83.9116 74.384 84.893 72.6021 86.572 71.8027Z" fill="#43784F" fill-opacity="0.75"/>
<path d="M93.6764 68.4199L93.7665 64.3231M93.7665 64.3231C95.2154 61.9029 98.7782 62.0785 99.9821 64.6294L100.286 65.2728L100.726 64.0394C101.445 62.0235 103.663 60.9723 105.678 61.6916C107.694 62.4109 108.746 64.6283 108.026 66.6442L107.586 67.8777L108.053 68.0443C109.811 68.6716 110.728 70.6053 110.101 72.3633C109.721 73.4259 108.837 74.2292 107.743 74.5049L104.972 75.2031L106.181 75.6343C107.529 76.1154 108.233 77.5987 107.751 78.9473C107.27 80.2959 105.787 80.9991 104.438 80.5179L100.796 79.2185C101.114 81.863 98.5398 83.9186 96.0311 83.0235L95.3421 82.7777C94.589 82.509 93.9327 82.0228 93.4562 81.3808L91.4081 78.6213L91.1825 78.8382C90.0414 79.9355 88.3777 80.2927 86.8866 79.7607C85.3956 79.2287 84.3338 77.899 84.145 76.3272L84.1334 76.2303C83.9116 74.384 84.893 72.6021 86.572 71.8027L88.7193 70.7802C86.9428 69.3858 86.6375 66.8076 88.0283 65.0283C89.4174 63.2512 91.9922 62.9303 93.7665 64.3231Z" stroke="#43784F"/>
</g>
<g filter="url(#filter7_i_450_1009)">
<path d="M121.486 87.2087L122.089 82.8896L129.157 85.0326L125.138 91.2098L124.536 95.5289L118.908 90.6069L121.486 87.2087Z" fill="#BBD765"/>
</g>
<g filter="url(#filter8_i_450_1009)">
<path d="M131.713 67.5875L131.763 67.8487C134.258 67.102 136.605 69.3819 135.93 71.8973L135.72 72.6818L136.585 72.2113C138.371 71.2397 140.607 71.9002 141.579 73.6865C142.55 75.4728 141.89 77.7085 140.103 78.68L139.238 79.1506L139.559 79.7404C140.353 81.2009 139.813 83.0289 138.353 83.8233C137.447 84.3161 136.352 84.3108 135.451 83.8093L133.089 82.4952L133.733 83.6798C134.349 84.8118 133.93 86.2287 132.798 86.8444C131.666 87.4601 130.25 87.0415 129.634 85.9095L127.817 82.5686C126.487 84.5615 123.515 84.4273 122.371 82.3226L121.896 81.4504C121.554 80.8204 121.397 80.1059 121.445 79.3903L121.662 76.1366L121.48 76.1392C119.971 76.1602 118.575 75.3431 117.853 74.0171L117.799 73.9176C117.111 72.6528 117.181 71.111 117.98 69.9134C118.943 68.4708 120.747 67.843 122.397 68.3764L124.441 69.037L124.433 68.9971C124.036 66.9437 125.415 64.968 127.479 64.633C129.457 64.312 131.332 65.6205 131.713 67.5875Z" fill="#43784F"/>
</g>
<path d="M129.275 70.5991L131.763 67.8487M131.763 67.8487L131.713 67.5875C131.332 65.6205 129.457 64.312 127.479 64.633C125.415 64.968 124.036 66.9437 124.433 68.9971L124.441 69.037L122.397 68.3764C120.747 67.843 118.943 68.4708 117.98 69.9134C117.181 71.111 117.111 72.6528 117.799 73.9176L117.853 74.0171C118.575 75.3431 119.971 76.1602 121.48 76.1392L121.662 76.1366L121.445 79.3903C121.397 80.1059 121.554 80.8204 121.896 81.4504L122.371 82.3226C123.515 84.4273 126.487 84.5615 127.817 82.5686L129.634 85.9095C130.25 87.0415 131.666 87.4601 132.798 86.8444C133.93 86.2287 134.349 84.8118 133.733 83.6798L133.089 82.4952L135.451 83.8093C136.352 84.3108 137.447 84.3161 138.353 83.8233C139.813 83.0289 140.353 81.2009 139.559 79.7404L139.238 79.1506L140.103 78.68C141.89 77.7085 142.55 75.4728 141.579 73.6865C140.607 71.9002 138.371 71.2397 136.585 72.2113L135.72 72.6818L135.93 71.8973C136.605 69.3819 134.258 67.102 131.763 67.8487Z" stroke="#43784F"/>
<g filter="url(#filter9_g_450_1009)">
<path d="M120.999 69.2186L123.281 69.8885C122.887 67.6648 124.379 65.5399 126.602 65.1413C128.822 64.7432 130.955 66.221 131.348 68.4421C134.042 67.6047 136.58 70.1113 135.776 72.8151L135.573 73.497L136.724 72.8713C138.604 71.8486 140.957 72.5439 141.98 74.4242C143.003 76.3045 142.307 78.6578 140.427 79.6805L139.277 80.3062L139.514 80.7418C140.405 82.3815 139.799 84.4338 138.159 85.3257C137.168 85.8647 135.974 85.8737 134.975 85.3497L132.444 84.0224L133.057 85.1495C133.741 86.4073 133.276 87.9816 132.018 88.6657C130.76 89.3499 129.186 88.8848 128.502 87.627L126.655 84.2301C125.128 86.4128 121.839 86.228 120.566 83.8881L120.216 83.2454C119.834 82.5431 119.669 81.7431 119.742 80.9469L120.056 77.5248L119.744 77.536C118.161 77.5928 116.683 76.7497 115.927 75.3589C115.171 73.9682 115.266 72.2693 116.173 70.972L116.229 70.8921C117.295 69.3683 119.215 68.6948 120.999 69.2186Z" fill="#43784F" fill-opacity="0.75"/>
<path d="M128.549 71.435L131.348 68.4421M131.348 68.4421C134.042 67.6047 136.58 70.1113 135.776 72.8151L135.573 73.497L136.724 72.8713C138.604 71.8486 140.957 72.5439 141.98 74.4242C143.003 76.3045 142.307 78.6578 140.427 79.6805L139.277 80.3062L139.514 80.7418C140.405 82.3815 139.799 84.4338 138.159 85.3257C137.168 85.8647 135.974 85.8737 134.975 85.3497L132.444 84.0224L133.057 85.1495C133.741 86.4073 133.276 87.9816 132.018 88.6657C130.76 89.3499 129.186 88.8848 128.502 87.627L126.655 84.2301C125.128 86.4128 121.839 86.228 120.566 83.8881L120.216 83.2454C119.834 82.5431 119.669 81.7431 119.742 80.9469L120.056 77.5248L119.744 77.536C118.161 77.5928 116.683 76.7497 115.927 75.3589C115.171 73.9682 115.266 72.2693 116.173 70.972L116.229 70.8921C117.295 69.3683 119.215 68.6948 120.999 69.2186L123.281 69.8885C122.887 67.6648 124.379 65.5399 126.602 65.1413C128.822 64.7432 130.955 66.221 131.348 68.4421Z" stroke="#43784F"/>
</g>
<g filter="url(#filter10_i_450_1009)">
<path d="M115.548 50.9496L116.121 47.381L122.052 49.0405L118.569 54.192L117.995 57.7606L113.321 53.7892L115.548 50.9496Z" fill="#BBD765"/>
</g>
<g filter="url(#filter11_i_450_1009)">
<path d="M124.504 34.8064L124.51 34.8391C126.588 34.1981 128.544 36.1241 127.936 38.2113L127.776 38.7626L128.629 38.2985C130.086 37.5057 131.911 38.0446 132.703 39.5021C133.496 40.9596 132.957 42.7838 131.5 43.5765L130.646 44.0406L130.846 44.4081C131.529 45.6626 131.065 47.2328 129.81 47.9151C129.048 48.3297 128.128 48.3343 127.362 47.9274L125.408 46.8898L125.893 47.7826C126.418 48.747 126.061 49.954 125.097 50.4785C124.133 51.0031 122.926 50.6465 122.401 49.6821L120.959 47.0299C119.796 48.7082 117.272 48.572 116.296 46.7783L116.001 46.2359C115.709 45.6977 115.581 45.0852 115.634 44.4748L115.863 41.8219L115.64 41.829C114.413 41.8676 113.269 41.2114 112.682 40.1327C112.095 39.0539 112.177 37.7214 112.876 36.712C113.694 35.5316 115.191 34.9934 116.567 35.4055L118.315 35.9289C118.005 34.2141 119.148 32.5696 120.864 32.2677C122.57 31.9677 124.197 33.1025 124.504 34.8064Z" fill="#43784F"/>
</g>
<path d="M122.37 37.1434L124.51 34.8391M124.51 34.8391L124.504 34.8064C124.197 33.1025 122.57 31.9677 120.864 32.2677C119.148 32.5696 118.005 34.2141 118.315 35.9289L116.567 35.4055C115.191 34.9934 113.694 35.5316 112.876 36.712C112.177 37.7214 112.095 39.0539 112.682 40.1327C113.269 41.2114 114.413 41.8676 115.64 41.829L115.863 41.8219L115.634 44.4748C115.581 45.0852 115.709 45.6977 116.001 46.2359L116.296 46.7783C117.272 48.572 119.796 48.7082 120.959 47.0299L122.401 49.6821C122.926 50.6465 124.133 51.0031 125.097 50.4785C126.061 49.954 126.418 48.747 125.893 47.7826L125.408 46.8898L127.362 47.9274C128.128 48.3343 129.048 48.3297 129.81 47.9151C131.065 47.2328 131.529 45.6626 130.846 44.4081L130.646 44.0406L131.5 43.5765C132.957 42.7838 133.496 40.9596 132.703 39.5021C131.911 38.0446 130.086 37.5057 128.629 38.2985L127.776 38.7626L127.936 38.2113C128.544 36.1241 126.588 34.1981 124.51 34.8391Z" stroke="#43784F"/>
<g filter="url(#filter12_g_450_1009)">
<path d="M120.072 32.7098L120.321 32.6618C122.123 32.3151 123.855 33.5239 124.151 35.3344C126.393 34.6176 128.507 36.7339 127.788 38.9746L127.639 39.4366L128.742 38.837C130.276 38.0025 132.196 38.5698 133.031 40.104C133.865 41.6382 133.298 43.5584 131.764 44.3928L130.661 44.9924L130.785 45.2197C131.551 46.6284 131.03 48.3914 129.621 49.1576C128.788 49.6108 127.786 49.6284 126.937 49.2048L124.841 48.1582L125.296 48.9959C125.879 50.0675 125.483 51.4086 124.411 51.9914C123.34 52.5742 121.999 52.178 121.416 51.1064L119.953 48.4168C118.62 50.2548 115.826 50.0741 114.741 48.0796L114.559 47.7435C114.233 47.1446 114.099 46.4601 114.175 45.7825L114.487 42.9902L114.149 43.0082C112.863 43.0762 111.652 42.3991 111.036 41.2676C110.421 40.1361 110.511 38.7517 111.267 37.7089L111.402 37.5227C112.305 36.2768 113.884 35.7186 115.37 36.1202L117.323 36.6482C117.022 34.8079 118.241 33.0621 120.072 32.7098Z" fill="#43784F" fill-opacity="0.75"/>
<path d="M121.745 37.8432L124.151 35.3344M124.151 35.3344C126.393 34.6176 128.507 36.7339 127.788 38.9746L127.639 39.4366L128.742 38.837C130.276 38.0025 132.196 38.5698 133.031 40.104C133.865 41.6382 133.298 43.5584 131.764 44.3928L130.661 44.9924L130.785 45.2197C131.551 46.6284 131.03 48.3914 129.621 49.1576C128.788 49.6108 127.786 49.6284 126.937 49.2048L124.841 48.1582L125.296 48.9959C125.879 50.0675 125.483 51.4086 124.411 51.9914C123.34 52.5742 121.999 52.178 121.416 51.1064L119.953 48.4168C118.62 50.2548 115.826 50.0741 114.741 48.0796L114.559 47.7435C114.233 47.1446 114.099 46.4601 114.175 45.7825L114.487 42.9902L114.149 43.0082C112.863 43.0762 111.652 42.3991 111.036 41.2676C110.421 40.1361 110.511 38.7517 111.267 37.7089L111.402 37.5227C112.305 36.2768 113.884 35.7186 115.37 36.1202L117.323 36.6482C117.022 34.8079 118.241 33.0621 120.072 32.7098L120.321 32.6618C122.123 32.3151 123.855 33.5239 124.151 35.3344Z" stroke="#43784F"/>
</g>
<g filter="url(#filter13_i_450_1009)">
<path d="M68.0236 61.7194L68.6257 57.4003L75.6939 59.5434L71.6754 65.7206L71.0733 70.0396L65.445 65.1177L68.0236 61.7194Z" fill="#BBD765"/>
</g>
<g filter="url(#filter14_i_450_1009)">
<path d="M78.2497 42.0982L78.3003 42.3594C80.7952 41.6128 83.1418 43.8927 82.4674 46.4081L82.2571 47.1926L83.1223 46.722C84.9086 45.7505 87.1442 46.411 88.1158 48.1972C89.0874 49.9835 88.4269 52.2192 86.6406 53.1908L85.7754 53.6613L86.0962 54.2511C86.8906 55.7117 86.3506 57.5397 84.89 58.3341C83.9841 58.8268 82.889 58.8215 81.9878 58.3201L79.6261 57.0059L80.2704 58.1905C80.8862 59.3226 80.4676 60.7394 79.3355 61.3551C78.2035 61.9708 76.7866 61.5523 76.1709 60.4202L74.3538 57.0794C73.024 59.0723 70.0525 58.938 68.9077 56.8333L68.4334 55.9612C68.0907 55.3311 67.9341 54.6166 67.982 53.901L68.1994 50.6474L68.0175 50.6499C66.5082 50.6709 65.1116 49.8538 64.3904 48.5279L64.3363 48.4283C63.6484 47.1635 63.7181 45.6217 64.5172 44.4242C65.4799 42.9815 67.2836 42.3538 68.934 42.8871L70.9782 43.5477L70.9705 43.5079C70.5729 41.4544 71.9517 39.4788 74.0162 39.1437C75.9939 38.8227 77.8688 40.1312 78.2497 42.0982Z" fill="#43784F"/>
</g>
<path d="M75.812 45.1098L78.3003 42.3594M78.3003 42.3594L78.2497 42.0982C77.8688 40.1312 75.9939 38.8227 74.0162 39.1437C71.9517 39.4788 70.5729 41.4544 70.9705 43.5079L70.9782 43.5477L68.934 42.8871C67.2836 42.3538 65.4799 42.9815 64.5172 44.4242C63.7181 45.6217 63.6484 47.1635 64.3363 48.4283L64.3904 48.5279C65.1116 49.8538 66.5082 50.6709 68.0175 50.6499L68.1994 50.6474L67.982 53.901C67.9341 54.6166 68.0907 55.3311 68.4334 55.9612L68.9077 56.8333C70.0525 58.938 73.024 59.0723 74.3538 57.0794L76.1709 60.4202C76.7866 61.5523 78.2035 61.9708 79.3355 61.3551C80.4676 60.7394 80.8862 59.3226 80.2704 58.1905L79.6261 57.0059L81.9878 58.3201C82.889 58.8215 83.9841 58.8268 84.89 58.3341C86.3506 57.5397 86.8906 55.7117 86.0962 54.2511L85.7754 53.6613L86.6406 53.1908C88.4269 52.2192 89.0874 49.9835 88.1158 48.1972C87.1442 46.411 84.9086 45.7505 83.1223 46.722L82.2571 47.1926L82.4674 46.4081C83.1418 43.8927 80.7952 41.6128 78.3003 42.3594Z" stroke="#43784F"/>
<g filter="url(#filter15_g_450_1009)">
<path d="M67.5362 43.7293L69.8182 44.3993C69.4242 42.1755 70.9158 40.0506 73.1387 39.6521C75.3589 39.254 77.4917 40.7318 77.8852 42.9528C80.5788 42.1154 83.1168 44.622 82.313 47.3258L82.1102 48.0078L83.2607 47.382C85.141 46.3594 87.4943 47.0546 88.517 48.9349C89.5397 50.8152 88.8445 53.1686 86.9642 54.1912L85.8137 54.817L86.0506 55.2525C86.9425 56.8923 86.3362 58.9446 84.6964 59.8364C83.7054 60.3754 82.5107 60.3845 81.5116 59.8604L78.9812 58.5332L79.5942 59.6602C80.2783 60.9181 79.8132 62.4924 78.5554 63.1765C77.2976 63.8606 75.7233 63.3955 75.0392 62.1377L73.1916 58.7409C71.665 60.9235 68.3757 60.7387 67.1031 58.3989L66.7535 57.7562C66.3715 57.0538 66.2066 56.2539 66.2796 55.4577L66.5934 52.0355L66.2807 52.0468C64.6986 52.1035 63.2205 51.2604 62.4641 49.8697C61.7077 48.479 61.8031 46.78 62.7106 45.4827L62.7664 45.4028C63.8323 43.879 65.7519 43.2055 67.5362 43.7293Z" fill="#43784F" fill-opacity="0.75"/>
<path d="M75.0862 45.9458L77.8852 42.9528M77.8852 42.9528C80.5788 42.1154 83.1168 44.622 82.313 47.3258L82.1102 48.0078L83.2607 47.382C85.141 46.3594 87.4943 47.0546 88.517 48.9349C89.5397 50.8152 88.8445 53.1686 86.9642 54.1912L85.8137 54.817L86.0506 55.2525C86.9425 56.8923 86.3362 58.9446 84.6964 59.8364C83.7054 60.3755 82.5107 60.3845 81.5116 59.8604L78.9812 58.5332L79.5942 59.6602C80.2783 60.9181 79.8132 62.4924 78.5554 63.1765C77.2976 63.8606 75.7233 63.3955 75.0392 62.1377L73.1916 58.7409C71.665 60.9235 68.3757 60.7387 67.1031 58.3989L66.7535 57.7562C66.3715 57.0538 66.2066 56.2539 66.2796 55.4577L66.5934 52.0356L66.2807 52.0468C64.6986 52.1035 63.2205 51.2604 62.4641 49.8697C61.7077 48.479 61.8031 46.78 62.7106 45.4827L62.7664 45.4028C63.8323 43.879 65.7519 43.2055 67.5362 43.7293L69.8182 44.3993C69.4242 42.1755 70.9158 40.0506 73.1387 39.6521C75.3589 39.254 77.4917 40.7318 77.8852 42.9528Z" stroke="#43784F"/>
</g>
<path d="M118.748 79.5701C122.889 80.2169 135.319 82.6106 136.054 88.1302C136.689 92.902 131.368 95.7356 128.335 96.949C127.029 97.4715 125.607 97.543 124.234 97.2378C120.082 96.3146 110.952 93.7214 108.257 88.3388C105.445 82.7231 112.944 80.367 116.096 79.6431C116.971 79.4423 117.861 79.4317 118.748 79.5701Z" fill="#ED9121"/>
<path d="M120.127 83.6194C122.699 84.0444 128.122 85.2472 128.441 87.8682C128.69 89.9142 126.835 91.2976 125.287 92.0835C124.037 92.7184 122.597 92.7897 121.238 92.4463C118.865 91.8468 115.158 90.5536 113.972 88.1446C112.702 85.5633 115.655 84.2723 117.482 83.7393C118.343 83.4885 119.243 83.4733 120.127 83.6194Z" fill="#CE862F"/>
<path d="M120.944 84.9813C122.819 85.2625 126.03 85.9864 126.176 87.6569C126.281 88.8453 125.357 89.7428 124.411 90.3418C123.242 91.0828 121.798 91.1854 120.458 90.8354C118.872 90.421 116.841 89.6263 116.172 88.192C115.431 86.6031 117.068 85.6647 118.331 85.1973C119.165 84.8887 120.065 84.8494 120.944 84.9813Z" fill="#E1AF71"/>
<path d="M70.4443 60.2118C74.5857 60.8585 87.0155 63.2522 87.7506 68.7718C88.3862 73.5436 83.0644 76.3772 80.032 77.5906C78.7261 78.1131 77.304 78.1846 75.931 77.8794C71.7787 76.9562 62.6489 74.363 59.9535 68.9804C57.1414 63.3647 64.6406 61.0086 67.7932 60.2847C68.6677 60.0839 69.5578 60.0733 70.4443 60.2118Z" fill="#ED9121"/>
<path d="M70.4443 60.2118C74.5857 60.8585 87.0155 63.2522 87.7506 68.7718C88.3862 73.5436 83.0644 76.3772 80.032 77.5906C78.7261 78.1131 77.304 78.1846 75.931 77.8794C71.7787 76.9562 62.6489 74.363 59.9535 68.9804C57.1414 63.3647 64.6406 61.0086 67.7932 60.2847C68.6677 60.0839 69.5578 60.0733 70.4443 60.2118Z" fill="#ED9121"/>
<path d="M71.8238 64.261C74.3956 64.686 79.8184 65.8888 80.1378 68.5098C80.387 70.5558 78.5313 71.9392 76.9841 72.7251C75.7342 73.36 74.294 73.4313 72.9347 73.0879C70.5614 72.4884 66.855 71.1952 65.6691 68.7862C64.3984 66.2049 67.3516 64.9139 69.1792 64.3809C70.0393 64.1301 70.9399 64.115 71.8238 64.261Z" fill="#CE862F"/>
<path d="M72.6412 65.6229C74.5155 65.9041 77.7263 66.628 77.8731 68.2985C77.9776 69.4869 77.0536 70.3844 76.1082 70.9834C74.9385 71.7244 73.4949 71.827 72.1552 71.477C70.5691 71.0626 68.5376 70.2679 67.8686 68.8336C67.1274 67.2447 68.7653 66.3063 70.0279 65.8389C70.8619 65.5303 71.7617 65.491 72.6412 65.6229Z" fill="#E1AF71"/>
<path d="M101.523 43.0365C105.665 43.6832 118.095 46.0769 118.83 51.5965C119.465 56.3683 114.144 59.2019 111.111 60.4153C109.805 60.9378 108.383 61.0093 107.01 60.7041C102.858 59.7809 93.728 57.1877 91.0326 51.8051C88.2205 46.1894 95.7197 43.8333 98.8723 43.1094C99.7468 42.9086 100.637 42.898 101.523 43.0365Z" fill="#ED9121"/>
<path d="M101.523 43.0365C105.665 43.6832 118.095 46.0769 118.83 51.5965C119.465 56.3683 114.144 59.2019 111.111 60.4153C109.805 60.9378 108.383 61.0093 107.01 60.7041C102.858 59.7809 93.728 57.1877 91.0326 51.8051C88.2205 46.1894 95.7197 43.8333 98.8723 43.1094C99.7468 42.9086 100.637 42.898 101.523 43.0365Z" fill="#ED9121"/>
<path d="M102.903 47.0857C105.475 47.5107 110.898 48.7135 111.217 51.3345C111.466 53.3805 109.61 54.7639 108.063 55.5498C106.813 56.1847 105.373 56.256 104.014 55.9126C101.64 55.3131 97.9341 54.0199 96.7482 51.6109C95.4775 49.0296 98.4307 47.7386 100.258 47.2056C101.118 46.9548 102.019 46.9397 102.903 47.0857Z" fill="#CE862F"/>
<path d="M103.72 48.4476C105.595 48.7288 108.805 49.4527 108.952 51.1233C109.057 52.3117 108.133 53.2091 107.187 53.8081C106.018 54.5491 104.574 54.6517 103.234 54.3017C101.648 53.8874 99.6167 53.0926 98.9477 51.6584C98.2065 50.0694 99.8444 49.131 101.107 48.6637C101.941 48.355 102.841 48.3157 103.72 48.4476Z" fill="#E1AF71"/>
<path d="M68.6924 61.2229C74.3367 63.2274 77.7689 68.9505 76.8791 74.8736L76.4391 77.8023" stroke="#8A1422" stroke-width="2.5"/>
<path d="M68.0599 62.6024C72.9219 64.5651 75.8606 69.5475 75.2263 74.7522L74.8585 77.7692" stroke="#D9AFB4"/>
<path d="M67.8918 63.0735C72.4607 64.9661 75.136 69.7445 74.3614 74.6288L73.9166 77.4334" stroke="#FFFAFB"/>
<path d="M136.293 97.0698C141.284 93.7596 147.922 94.4509 152.124 98.7187L154.202 100.829" stroke="#8A1422" stroke-width="2.5"/>
<path d="M137.016 98.4037C141.505 95.6939 147.254 96.3352 151.035 99.9673L153.227 102.073" stroke="#D9AFB4"/>
<path d="M137.292 98.8207C141.548 96.3033 146.976 97.0327 150.417 100.585L152.392 102.624" stroke="#FFFAFB"/>
<path d="M149.051 58.7977C155.003 59.4674 159.646 64.261 160.125 70.2314L160.362 73.1835" stroke="#8A1422" stroke-width="2.5"/>
<path d="M148.748 60.2847C153.929 61.0915 157.923 65.2758 158.488 70.4885L158.815 73.5103" stroke="#D9AFB4"/>
<path d="M148.691 60.7816C153.571 61.5866 157.262 65.6322 157.617 70.5647L157.821 73.3971" stroke="#FFFAFB"/>
<path d="M107.32 51.8877C112.312 48.5774 118.949 49.2687 123.152 53.5366L125.23 55.6468" stroke="#8A1422" stroke-width="2.5"/>
<path d="M108.043 53.2215C112.532 50.5118 118.281 51.153 122.062 54.7852L124.254 56.8907" stroke="#D9AFB4"/>
<path d="M108.319 53.6386C112.575 51.1211 118.003 51.8505 121.444 55.4025L123.42 57.4421" stroke="#FFFAFB"/>
<path d="M83.8439 56.5909C86.2431 51.1028 92.1948 48.0843 98.0401 49.3914L100.93 50.0376" stroke="#8A1422" stroke-width="2.5"/>
<path d="M85.1751 57.3194C87.4772 52.6087 92.6551 50.0301 97.8018 51.0314L100.785 51.6118" stroke="#D9AFB4"/>
<path d="M85.6332 57.5207C87.8446 53.0973 92.8004 50.767 97.6176 51.8855L100.384 52.5277" stroke="#FFFAFB"/>
<path d="M131.611 72.9571C137.568 72.3313 143.133 76.0145 144.885 81.7422L145.751 84.5743" stroke="#8A1422" stroke-width="2.5"/>
<path d="M131.635 74.4744C136.868 74.1483 141.668 77.3761 143.341 82.3454L144.31 85.2261" stroke="#D9AFB4"/>
<path d="M131.687 74.9718C136.625 74.7088 141.1 77.8661 142.507 82.6069L143.315 85.3291" stroke="#FFFAFB"/>
<defs>
<filter id="filter0_i_450_1009" x="274.799" y="121.562" width="134.185" height="25.3877" filterUnits="userSpaceOnUse" color-interpolation-filters="sRGB">
<feFlood flood-opacity="0" result="BackgroundImageFix"/>
<feBlend mode="normal" in="SourceGraphic" in2="BackgroundImageFix" result="shape"/>
<feColorMatrix in="SourceAlpha" type="matrix" values="0 0 0 0 0 0 0 0 0 0 0 0 0 0 0 0 0 0 127 0" result="hardAlpha"/>
<feOffset dx="-3"/>
<feGaussianBlur stdDeviation="2"/>
<feComposite in2="hardAlpha" operator="arithmetic" k2="-1" k3="1"/>
<feColorMatrix type="matrix" values="0 0 0 0 0 0 0 0 0 0 0 0 0 0 0 0 0 0 0.25 0"/>
<feBlend mode="normal" in2="shape" result="effect1_innerShadow_450_1009"/>
</filter>
<filter id="filter1_i_450_1009" x="248.282" y="125.546" width="32.105" height="15.9106" filterUnits="userSpaceOnUse" color-interpolation-filters="sRGB">
<feFlood flood-opacity="0" result="BackgroundImageFix"/>
<feBlend mode="normal" in="SourceGraphic" in2="BackgroundImageFix" result="shape"/>
<feColorMatrix in="SourceAlpha" type="matrix" values="0 0 0 0 0 0 0 0 0 0 0 0 0 0 0 0 0 0 127 0" result="hardAlpha"/>
<feOffset dx="-1" dy="-1"/>
<feGaussianBlur stdDeviation="3.05"/>
<feComposite in2="hardAlpha" operator="arithmetic" k2="-1" k3="1"/>
<feColorMatrix type="matrix" values="0 0 0 0 0 0 0 0 0 0 0 0 0 0 0 0 0 0 0.25 0"/>
<feBlend mode="normal" in2="shape" result="effect1_innerShadow_450_1009"/>
</filter>
<filter id="filter2_i_450_1009" x="51.3077" y="58.2422" width="215.617" height="103.658" filterUnits="userSpaceOnUse" color-interpolation-filters="sRGB">
<feFlood flood-opacity="0" result="BackgroundImageFix"/>
<feBlend mode="normal" in="SourceGraphic" in2="BackgroundImageFix" result="shape"/>
<feColorMatrix in="SourceAlpha" type="matrix" values="0 0 0 0 0 0 0 0 0 0 0 0 0 0 0 0 0 0 127 0" result="hardAlpha"/>
<feOffset dx="6" dy="-5"/>
<feGaussianBlur stdDeviation="7.25"/>
<feComposite in2="hardAlpha" operator="arithmetic" k2="-1" k3="1"/>
<feColorMatrix type="matrix" values="0 0 0 0 0 0 0 0 0 0 0 0 0 0 0 0 0 0 0.25 0"/>
<feBlend mode="normal" in2="shape" result="effect1_innerShadow_450_1009"/>
</filter>
<filter id="filter3_i_450_1009" x="49.5572" y="56.0293" width="211.896" height="63.3174" filterUnits="userSpaceOnUse" color-interpolation-filters="sRGB">
<feFlood flood-opacity="0" result="BackgroundImageFix"/>
<feBlend mode="normal" in="SourceGraphic" in2="BackgroundImageFix" result="shape"/>
<feColorMatrix in="SourceAlpha" type="matrix" values="0 0 0 0 0 0 0 0 0 0 0 0 0 0 0 0 0 0 127 0" result="hardAlpha"/>
<feOffset dx="-1" dy="-3"/>
<feGaussianBlur stdDeviation="6.3"/>
<feComposite in2="hardAlpha" operator="arithmetic" k2="-1" k3="1"/>
<feColorMatrix type="matrix" values="0 0 0 0 0 0 0 0 0 0 0 0 0 0 0 0 0 0 0.25 0"/>
<feBlend mode="normal" in2="shape" result="effect1_innerShadow_450_1009"/>
</filter>
<filter id="filter4_i_450_1009" x="96.5001" y="78.1479" width="10.2524" height="10.9883" filterUnits="userSpaceOnUse" color-interpolation-filters="sRGB">
<feFlood flood-opacity="0" result="BackgroundImageFix"/>
<feBlend mode="normal" in="SourceGraphic" in2="BackgroundImageFix" result="shape"/>
<feColorMatrix in="SourceAlpha" type="matrix" values="0 0 0 0 0 0 0 0 0 0 0 0 0 0 0 0 0 0 127 0" result="hardAlpha"/>
<feOffset dx="5" dy="-10"/>
<feComposite in2="hardAlpha" operator="arithmetic" k2="-1" k3="1"/>
<feColorMatrix type="matrix" values="0 0 0 0 0.262745 0 0 0 0 0.470588 0 0 0 0 0.309804 0 0 0 0.2 0"/>
<feBlend mode="normal" in2="shape" result="effect1_innerShadow_450_1009"/>
</filter>
<filter id="filter5_i_450_1009" x="84.2467" y="60.6943" width="27.5724" height="22.5489" filterUnits="userSpaceOnUse" color-interpolation-filters="sRGB">
<feFlood flood-opacity="0" result="BackgroundImageFix"/>
<feBlend mode="normal" in="SourceGraphic" in2="BackgroundImageFix" result="shape"/>
<feColorMatrix in="SourceAlpha" type="matrix" values="0 0 0 0 0 0 0 0 0 0 0 0 0 0 0 0 0 0 127 0" result="hardAlpha"/>
<feOffset dx="12" dy="4"/>
<feGaussianBlur stdDeviation="0.95"/>
<feComposite in2="hardAlpha" operator="arithmetic" k2="-1" k3="1"/>
<feColorMatrix type="matrix" values="0 0 0 0 0 0 0 0 0 0 0 0 0 0 0 0 0 0 0.25 0"/>
<feBlend mode="normal" in2="shape" result="effect1_innerShadow_450_1009"/>
</filter>
<filter id="filter6_g_450_1009" x="83.5022" y="60.8648" width="27.3963" height="22.972" filterUnits="userSpaceOnUse" color-interpolation-filters="sRGB">
<feFlood flood-opacity="0" result="BackgroundImageFix"/>
<feBlend mode="normal" in="SourceGraphic" in2="BackgroundImageFix" result="shape"/>
<feTurbulence type="fractalNoise" baseFrequency="0.99900001287460327 0.99900001287460327" numOctaves="3" seed="4316" />
<feDisplacementMap in="shape" scale="0.20000000298023224" xChannelSelector="R" yChannelSelector="G" result="displacedImage" width="100%" height="100%" />
<feMerge result="effect1_texture_450_1009">
<feMergeNode in="displacedImage"/>
</feMerge>
</filter>
<filter id="filter7_i_450_1009" x="118.908" y="82.8896" width="10.249" height="12.6392" filterUnits="userSpaceOnUse" color-interpolation-filters="sRGB">
<feFlood flood-opacity="0" result="BackgroundImageFix"/>
<feBlend mode="normal" in="SourceGraphic" in2="BackgroundImageFix" result="shape"/>
<feColorMatrix in="SourceAlpha" type="matrix" values="0 0 0 0 0 0 0 0 0 0 0 0 0 0 0 0 0 0 127 0" result="hardAlpha"/>
<feOffset dx="5" dy="-10"/>
<feComposite in2="hardAlpha" operator="arithmetic" k2="-1" k3="1"/>
<feColorMatrix type="matrix" values="0 0 0 0 0.262745 0 0 0 0 0.470588 0 0 0 0 0.309804 0 0 0 0.2 0"/>
<feBlend mode="normal" in2="shape" result="effect1_innerShadow_450_1009"/>
</filter>
<filter id="filter8_i_450_1009" x="116.828" y="64.0845" width="27.5987" height="25.4439" filterUnits="userSpaceOnUse" color-interpolation-filters="sRGB">
<feFlood flood-opacity="0" result="BackgroundImageFix"/>
<feBlend mode="normal" in="SourceGraphic" in2="BackgroundImageFix" result="shape"/>
<feColorMatrix in="SourceAlpha" type="matrix" values="0 0 0 0 0 0 0 0 0 0 0 0 0 0 0 0 0 0 127 0" result="hardAlpha"/>
<feOffset dx="12" dy="4"/>
<feGaussianBlur stdDeviation="0.95"/>
<feComposite in2="hardAlpha" operator="arithmetic" k2="-1" k3="1"/>
<feColorMatrix type="matrix" values="0 0 0 0 0 0 0 0 0 0 0 0 0 0 0 0 0 0 0.25 0"/>
<feBlend mode="normal" in2="shape" result="effect1_innerShadow_450_1009"/>
</filter>
<filter id="filter9_g_450_1009" x="114.82" y="64.4767" width="28.2322" height="25.1048" filterUnits="userSpaceOnUse" color-interpolation-filters="sRGB">
<feFlood flood-opacity="0" result="BackgroundImageFix"/>
<feBlend mode="normal" in="SourceGraphic" in2="BackgroundImageFix" result="shape"/>
<feTurbulence type="fractalNoise" baseFrequency="0.99900001287460327 0.99900001287460327" numOctaves="3" seed="4316" />
<feDisplacementMap in="shape" scale="0.20000000298023224" xChannelSelector="R" yChannelSelector="G" result="displacedImage" width="100%" height="100%" />
<feMerge result="effect1_texture_450_1009">
<feMergeNode in="displacedImage"/>
</feMerge>
</filter>
<filter id="filter10_i_450_1009" x="113.321" y="47.3809" width="8.73047" height="10.3799" filterUnits="userSpaceOnUse" color-interpolation-filters="sRGB">
<feFlood flood-opacity="0" result="BackgroundImageFix"/>
<feBlend mode="normal" in="SourceGraphic" in2="BackgroundImageFix" result="shape"/>
<feColorMatrix in="SourceAlpha" type="matrix" values="0 0 0 0 0 0 0 0 0 0 0 0 0 0 0 0 0 0 127 0" result="hardAlpha"/>
<feOffset dx="5" dy="-10"/>
<feComposite in2="hardAlpha" operator="arithmetic" k2="-1" k3="1"/>
<feColorMatrix type="matrix" values="0 0 0 0 0.262745 0 0 0 0 0.470588 0 0 0 0 0.309804 0 0 0 0.2 0"/>
<feBlend mode="normal" in2="shape" result="effect1_innerShadow_450_1009"/>
</filter>
<filter id="filter11_i_450_1009" x="111.791" y="31.7197" width="23.6778" height="21.401" filterUnits="userSpaceOnUse" color-interpolation-filters="sRGB">
<feFlood flood-opacity="0" result="BackgroundImageFix"/>
<feBlend mode="normal" in="SourceGraphic" in2="BackgroundImageFix" result="shape"/>
<feColorMatrix in="SourceAlpha" type="matrix" values="0 0 0 0 0 0 0 0 0 0 0 0 0 0 0 0 0 0 127 0" result="hardAlpha"/>
<feOffset dx="12" dy="4"/>
<feGaussianBlur stdDeviation="0.95"/>
<feComposite in2="hardAlpha" operator="arithmetic" k2="-1" k3="1"/>
<feColorMatrix type="matrix" values="0 0 0 0 0 0 0 0 0 0 0 0 0 0 0 0 0 0 0.25 0"/>
<feBlend mode="normal" in2="shape" result="effect1_innerShadow_450_1009"/>
</filter>
<filter id="filter12_g_450_1009" x="110.03" y="32.0025" width="23.9856" height="20.8577" filterUnits="userSpaceOnUse" color-interpolation-filters="sRGB">
<feFlood flood-opacity="0" result="BackgroundImageFix"/>
<feBlend mode="normal" in="SourceGraphic" in2="BackgroundImageFix" result="shape"/>
<feTurbulence type="fractalNoise" baseFrequency="0.99900001287460327 0.99900001287460327" numOctaves="3" seed="4316" />
<feDisplacementMap in="shape" scale="0.20000000298023224" xChannelSelector="R" yChannelSelector="G" result="displacedImage" width="100%" height="100%" />
<feMerge result="effect1_texture_450_1009">
<feMergeNode in="displacedImage"/>
</feMerge>
</filter>
<filter id="filter13_i_450_1009" x="65.4449" y="57.4004" width="10.249" height="12.6392" filterUnits="userSpaceOnUse" color-interpolation-filters="sRGB">
<feFlood flood-opacity="0" result="BackgroundImageFix"/>
<feBlend mode="normal" in="SourceGraphic" in2="BackgroundImageFix" result="shape"/>
<feColorMatrix in="SourceAlpha" type="matrix" values="0 0 0 0 0 0 0 0 0 0 0 0 0 0 0 0 0 0 127 0" result="hardAlpha"/>
<feOffset dx="5" dy="-10"/>
<feComposite in2="hardAlpha" operator="arithmetic" k2="-1" k3="1"/>
<feColorMatrix type="matrix" values="0 0 0 0 0.262745 0 0 0 0 0.470588 0 0 0 0 0.309804 0 0 0 0.2 0"/>
<feBlend mode="normal" in2="shape" result="effect1_innerShadow_450_1009"/>
</filter>
<filter id="filter14_i_450_1009" x="63.3653" y="38.5952" width="27.5987" height="25.4439" filterUnits="userSpaceOnUse" color-interpolation-filters="sRGB">
<feFlood flood-opacity="0" result="BackgroundImageFix"/>
<feBlend mode="normal" in="SourceGraphic" in2="BackgroundImageFix" result="shape"/>
<feColorMatrix in="SourceAlpha" type="matrix" values="0 0 0 0 0 0 0 0 0 0 0 0 0 0 0 0 0 0 127 0" result="hardAlpha"/>
<feOffset dx="12" dy="4"/>
<feGaussianBlur stdDeviation="0.95"/>
<feComposite in2="hardAlpha" operator="arithmetic" k2="-1" k3="1"/>
<feColorMatrix type="matrix" values="0 0 0 0 0 0 0 0 0 0 0 0 0 0 0 0 0 0 0.25 0"/>
<feBlend mode="normal" in2="shape" result="effect1_innerShadow_450_1009"/>
</filter>
<filter id="filter15_g_450_1009" x="61.3566" y="38.9874" width="28.2322" height="25.1048" filterUnits="userSpaceOnUse" color-interpolation-filters="sRGB">
<feFlood flood-opacity="0" result="BackgroundImageFix"/>
<feBlend mode="normal" in="SourceGraphic" in2="BackgroundImageFix" result="shape"/>
<feTurbulence type="fractalNoise" baseFrequency="0.99900001287460327 0.99900001287460327" numOctaves="3" seed="4316" />
<feDisplacementMap in="shape" scale="0.20000000298023224" xChannelSelector="R" yChannelSelector="G" result="displacedImage" width="100%" height="100%" />
<feMerge result="effect1_texture_450_1009">
<feMergeNode in="displacedImage"/>
</feMerge>
</filter>
</defs>
</svg>
