<svg width="451" height="330" viewBox="0 0 451 330" fill="none" xmlns="http://www.w3.org/2000/svg">
<g filter="url(#filter0_i_450_1141)">
<path d="M290.644 147.696L290.332 131.931L407.597 111.592C408.555 111.426 409.536 111.444 410.487 111.646L413.525 112.292C418.561 113.362 420.124 119.782 416.142 123.046C415.349 123.697 414.405 124.138 413.397 124.33L290.644 147.696Z" fill="#E8A020"/>
</g>
<g filter="url(#filter1_i_450_1141)">
<path d="M264.378 159.719L268.432 143.136L290.436 137.198L290.505 140.697L275.588 144.994L275.773 154.326L264.378 159.719Z" fill="#83919E"/>
</g>
<g filter="url(#filter2_i_450_1141)">
<path d="M268.351 133.135L53.3936 137.4L59.1062 157.809C65.2496 179.758 85.4594 194.775 108.247 194.323L215.798 192.189C238.586 191.737 258.185 175.931 263.453 153.755L268.351 133.135Z" fill="#9AAAB8"/>
</g>
<path d="M268.351 133.135L53.3936 137.4L59.1062 157.809C65.2496 179.758 85.4594 194.775 108.247 194.323L215.798 192.189C238.586 191.737 258.185 175.931 263.453 153.755L268.351 133.135Z" stroke="#9AAAB8"/>
<g filter="url(#filter3_i_450_1141)">
<ellipse cx="160.566" cy="134.111" rx="108.5" ry="16" transform="rotate(-1.62834 160.566 134.111)" fill="#D9D9D9"/>
</g>
<path d="M205.986 131.243C210.15 130.766 222.769 129.772 224.944 134.898C226.825 139.329 222.447 143.475 219.846 145.45C218.726 146.301 217.374 146.748 215.969 146.818C211.721 147.031 202.23 146.957 198.202 142.484C193.999 137.817 200.603 133.553 203.449 132.018C204.239 131.592 205.094 131.345 205.986 131.243Z" fill="#ED9121"/>
<path d="M205.986 131.243C210.15 130.766 222.769 129.772 224.944 134.898C226.825 139.329 222.447 143.475 219.846 145.45C218.726 146.301 217.374 146.748 215.969 146.818C211.721 147.031 202.23 146.957 198.202 142.484C193.999 137.817 200.603 133.553 203.449 132.018C204.239 131.592 205.094 131.345 205.986 131.243Z" fill="#ED9121"/>
<path d="M208.392 134.78C210.984 134.507 216.531 134.226 217.536 136.668C218.32 138.574 216.898 140.401 215.615 141.569C214.579 142.513 213.209 142.965 211.808 142.995C209.36 143.048 205.444 142.785 203.66 140.778C201.75 138.627 204.254 136.598 205.874 135.599C206.637 135.128 207.501 134.874 208.392 134.78Z" fill="#CE862F"/>
<path d="M209.541 135.876C211.423 135.65 214.711 135.494 215.296 137.066C215.712 138.184 215.06 139.295 214.308 140.123C213.377 141.148 212.013 141.631 210.628 141.649C208.989 141.671 206.819 141.445 205.793 140.24C204.657 138.905 205.986 137.565 207.079 136.779C207.801 136.26 208.658 135.983 209.541 135.876Z" fill="#E1AF71"/>
<g filter="url(#filter4_i_450_1141)">
<path d="M104.4 145.125L101.094 142.281L106.722 137.497L109.741 144.22L113.047 147.064L105.862 149.132L104.4 145.125Z" fill="#BBD765"/>
</g>
<g filter="url(#filter5_i_450_1141)">
<path d="M93.4369 125.905L93.6838 126.004C94.4065 123.502 97.5937 122.763 99.3437 124.692L99.8895 125.293L99.9621 124.311C100.112 122.283 101.878 120.761 103.905 120.911C105.933 121.061 107.456 122.826 107.306 124.854L107.233 125.836L107.903 125.886C109.561 126.008 110.805 127.452 110.683 129.11C110.607 130.138 110.01 131.056 109.1 131.543L106.717 132.817L108.062 132.917C109.347 133.012 110.312 134.131 110.217 135.416C110.121 136.701 109.003 137.666 107.717 137.571L103.925 137.29C104.881 139.487 103.159 141.913 100.77 141.736L99.7799 141.663C99.0646 141.61 98.3791 141.355 97.8033 140.927L95.1852 138.983L95.0889 139.138C94.2896 140.418 92.8466 141.15 91.3413 141.039L91.2283 141.031C89.7925 140.924 88.5338 140.031 87.9594 138.711C87.2674 137.121 87.716 135.264 89.0577 134.165L90.7197 132.804L90.682 132.789C88.7401 132.012 87.8253 129.783 88.661 127.866C89.4617 126.029 91.5767 125.161 93.4369 125.905Z" fill="#43784F"/>
</g>
<path d="M94.6496 129.585L93.6838 126.004M93.6838 126.004L93.4369 125.905C91.5767 125.161 89.4617 126.029 88.661 127.866C87.8253 129.783 88.7401 132.012 90.682 132.789L90.7197 132.804L89.0577 134.165C87.716 135.264 87.2674 137.121 87.9594 138.711C88.5338 140.031 89.7925 140.924 91.2283 141.031L91.3413 141.039C92.8466 141.15 94.2896 140.418 95.0889 139.138L95.1852 138.983L97.8033 140.927C98.3791 141.355 99.0646 141.61 99.7799 141.663L100.77 141.736C103.159 141.913 104.881 139.487 103.925 137.29L107.717 137.571C109.003 137.666 110.121 136.701 110.217 135.416C110.312 134.131 109.347 133.012 108.062 132.917L106.717 132.817L109.1 131.543C110.01 131.056 110.607 130.138 110.683 129.11C110.805 127.452 109.561 126.008 107.903 125.886L107.233 125.836L107.306 124.854C107.456 122.826 105.933 121.061 103.905 120.911C101.878 120.761 100.112 122.283 99.9621 124.311L99.8895 125.293L99.3437 124.692C97.5937 122.763 94.4065 123.502 93.6838 126.004Z" stroke="#43784F"/>
<g filter="url(#filter6_g_450_1141)">
<path d="M89.0092 135.796L90.8078 134.24C88.7247 133.368 87.7454 130.963 88.6135 128.879C89.4805 126.796 91.8775 125.803 93.9581 126.674C94.712 123.956 98.1934 123.179 100.032 125.318L100.495 125.858L100.592 124.552C100.75 122.417 102.608 120.815 104.743 120.973C106.878 121.131 108.48 122.989 108.322 125.124L108.226 126.43L108.72 126.466C110.581 126.604 111.979 128.224 111.841 130.086C111.758 131.211 111.119 132.22 110.138 132.777L107.652 134.186L108.931 134.281C110.359 134.386 111.431 135.63 111.326 137.058C111.22 138.485 109.977 139.557 108.549 139.452L104.693 139.167C105.702 141.632 103.766 144.297 101.11 144.101L100.38 144.047C99.5826 143.988 98.8207 143.694 98.1907 143.201L95.4831 141.085L95.3233 141.354C94.5147 142.715 93.0057 143.502 91.4269 143.385C89.8481 143.268 88.4712 142.268 87.8716 140.803L87.8346 140.713C87.1303 138.992 87.603 137.013 89.0092 135.796Z" fill="#43784F" fill-opacity="0.75"/>
<path d="M94.9596 130.648L93.9581 126.674M93.9581 126.674C94.712 123.956 98.1934 123.179 100.032 125.318L100.495 125.858L100.592 124.552C100.75 122.417 102.608 120.815 104.743 120.973C106.878 121.131 108.48 122.989 108.322 125.124L108.226 126.43L108.72 126.466C110.581 126.604 111.979 128.224 111.841 130.086C111.758 131.211 111.119 132.22 110.138 132.777L107.652 134.186L108.931 134.281C110.359 134.386 111.431 135.63 111.326 137.058C111.22 138.485 109.977 139.557 108.549 139.452L104.693 139.167C105.702 141.632 103.766 144.297 101.11 144.101L100.38 144.047C99.5826 143.988 98.8207 143.694 98.1907 143.201L95.4831 141.085L95.3233 141.354C94.5147 142.715 93.0057 143.502 91.4269 143.385C89.8481 143.268 88.4712 142.268 87.8716 140.803L87.8346 140.713C87.1303 138.992 87.603 137.013 89.0092 135.796L90.8078 134.24C88.7247 133.368 87.7454 130.963 88.6135 128.879C89.4805 126.796 91.8775 125.803 93.9581 126.674Z" stroke="#43784F"/>
</g>
<g filter="url(#filter7_i_450_1141)">
<path d="M136.567 142.623L136 138.299L143.383 138.488L141.151 145.51L141.718 149.834L134.984 146.584L136.567 142.623Z" fill="#BBD765"/>
</g>
<g filter="url(#filter8_i_450_1141)">
<path d="M141.213 120.99L141.331 121.229C143.538 119.846 146.406 121.421 146.424 124.025L146.43 124.837L147.139 124.153C148.603 122.742 150.933 122.785 152.345 124.249C153.756 125.713 153.713 128.044 152.249 129.455L151.54 130.139L152.006 130.622C153.16 131.819 153.125 133.725 151.928 134.879C151.185 135.594 150.128 135.88 149.126 135.636L146.5 134.997L147.436 135.967C148.331 136.895 148.303 138.372 147.376 139.267C146.448 140.161 144.971 140.134 144.076 139.206L141.437 136.468C140.684 138.743 137.784 139.403 136.121 137.678L135.432 136.963C134.934 136.447 134.594 135.799 134.45 135.097L133.795 131.902L133.62 131.953C132.171 132.374 130.607 131.958 129.56 130.871L129.481 130.789C128.482 129.753 128.139 128.248 128.592 126.881C129.136 125.235 130.709 124.15 132.441 124.226L134.588 124.32L134.57 124.283C133.641 122.409 134.445 120.138 136.346 119.267C138.168 118.432 140.323 119.195 141.213 120.99Z" fill="#43784F"/>
</g>
<path d="M139.663 124.541L141.331 121.229M141.331 121.229L141.213 120.99C140.323 119.195 138.168 118.432 136.346 119.267C134.445 120.138 133.641 122.409 134.57 124.283L134.588 124.32L132.441 124.226C130.709 124.15 129.136 125.235 128.592 126.881C128.139 128.248 128.482 129.753 129.481 130.789L129.56 130.871C130.607 131.958 132.171 132.374 133.62 131.953L133.795 131.902L134.45 135.097C134.594 135.799 134.934 136.447 135.432 136.963L136.121 137.678C137.784 139.403 140.684 138.743 141.437 136.468L144.076 139.206C144.971 140.134 146.448 140.161 147.376 139.267C148.303 138.372 148.331 136.895 147.436 135.967L146.5 134.997L149.126 135.636C150.128 135.88 151.185 135.594 151.928 134.879C153.125 133.725 153.16 131.819 152.006 130.622L151.54 130.139L152.249 129.455C153.713 128.044 153.756 125.713 152.345 124.249C150.933 122.785 148.603 122.742 147.139 124.153L146.43 124.837L146.424 124.025C146.406 121.421 143.538 119.846 141.331 121.229Z" stroke="#43784F"/>
<g filter="url(#filter9_g_450_1141)">
<path d="M131.318 125.409L133.696 125.449C132.725 123.41 133.598 120.965 135.636 119.99C137.67 119.016 140.119 119.874 141.088 121.911C143.463 120.388 146.575 122.13 146.519 124.951L146.505 125.662L147.447 124.753C148.988 123.268 151.442 123.313 152.927 124.854C154.413 126.395 154.368 128.848 152.827 130.334L151.884 131.242L152.228 131.599C153.524 132.943 153.484 135.083 152.14 136.378C151.328 137.161 150.179 137.487 149.076 137.248L146.284 136.64L147.175 137.564C148.168 138.595 148.138 140.236 147.107 141.23C146.077 142.224 144.435 142.193 143.442 141.163L140.758 138.379C139.866 140.888 136.646 141.584 134.797 139.667L134.29 139.14C133.735 138.564 133.363 137.837 133.222 137.05L132.615 133.667L132.317 133.761C130.807 134.236 129.158 133.816 128.059 132.676C126.96 131.537 126.601 129.873 127.131 128.382L127.164 128.29C127.787 126.537 129.458 125.378 131.318 125.409Z" fill="#43784F" fill-opacity="0.75"/>
<path d="M139.185 125.54L141.088 121.911M141.088 121.911C143.463 120.388 146.575 122.13 146.519 124.951L146.505 125.662L147.447 124.753C148.988 123.268 151.442 123.313 152.927 124.854C154.413 126.395 154.368 128.848 152.827 130.334L151.884 131.242L152.228 131.599C153.524 132.943 153.484 135.083 152.14 136.378C151.328 137.161 150.179 137.487 149.076 137.248L146.284 136.64L147.175 137.564C148.168 138.595 148.138 140.236 147.107 141.23C146.077 142.224 144.435 142.193 143.442 141.163L140.758 138.379C139.866 140.888 136.646 141.584 134.797 139.667L134.29 139.14C133.735 138.564 133.363 137.837 133.222 137.05L132.615 133.667L132.317 133.761C130.807 134.236 129.158 133.816 128.059 132.676C126.96 131.537 126.601 129.873 127.131 128.382L127.164 128.29C127.787 126.537 129.458 125.378 131.318 125.409L133.696 125.449C132.725 123.41 133.598 120.965 135.636 119.99C137.67 119.016 140.119 119.874 141.088 121.911Z" stroke="#43784F"/>
</g>
<g filter="url(#filter10_i_450_1141)">
<path d="M191.823 141.729L191.428 138.136L197.586 138.16L195.597 144.052L195.992 147.645L190.431 145.058L191.823 141.729Z" fill="#BBD765"/>
</g>
<g filter="url(#filter11_i_450_1141)">
<path d="M196.169 123.786L196.183 123.816C198.016 122.646 200.414 123.983 200.382 126.157L200.374 126.731L201.073 126.057C202.267 124.905 204.169 124.94 205.321 126.135C206.472 127.329 206.437 129.231 205.243 130.382L204.543 131.056L204.834 131.358C205.825 132.386 205.795 134.023 204.767 135.014C204.142 135.616 203.257 135.865 202.41 135.676L200.25 135.195L200.955 135.927C201.717 136.717 201.694 137.975 200.904 138.737C200.113 139.499 198.855 139.476 198.093 138.686L195.998 136.512C195.323 138.439 192.853 138.978 191.436 137.508L191.008 137.064C190.583 136.623 190.297 136.066 190.185 135.464L189.702 132.845L189.489 132.911C188.316 133.274 187.038 132.946 186.186 132.062C185.334 131.178 185.059 129.871 185.465 128.712C185.94 127.357 187.24 126.44 188.676 126.472L190.5 126.512C189.746 124.942 190.411 123.053 191.985 122.305C193.549 121.563 195.42 122.225 196.169 123.786Z" fill="#43784F"/>
</g>
<path d="M194.732 126.606L196.183 123.816M196.183 123.816L196.169 123.786C195.42 122.225 193.549 121.563 191.985 122.305C190.411 123.053 189.746 124.942 190.5 126.512L188.676 126.472C187.24 126.44 185.94 127.357 185.465 128.712C185.059 129.871 185.334 131.178 186.186 132.062C187.038 132.946 188.316 133.274 189.489 132.911L189.702 132.845L190.185 135.464C190.297 136.066 190.583 136.623 191.008 137.064L191.436 137.508C192.853 138.978 195.323 138.439 195.998 136.512L198.093 138.686C198.855 139.476 200.113 139.499 200.904 138.737C201.694 137.975 201.717 136.717 200.955 135.927L200.25 135.195L202.41 135.676C203.257 135.865 204.142 135.616 204.767 135.014C205.795 134.023 205.825 132.386 204.834 131.358L204.543 131.056L205.243 130.382C206.437 129.231 206.472 127.329 205.321 126.135C204.169 124.94 202.267 124.905 201.073 126.057L200.374 126.731L200.382 126.157C200.414 123.983 198.016 122.646 196.183 123.816Z" stroke="#43784F"/>
<g filter="url(#filter12_g_450_1141)">
<path d="M191.338 122.942L191.566 122.83C193.211 122.017 195.202 122.722 195.969 124.389C197.939 123.102 200.539 124.581 200.441 126.932L200.421 127.417L201.325 126.546C202.582 125.334 204.584 125.371 205.796 126.628C207.008 127.885 206.971 129.887 205.714 131.099L204.811 131.97L204.99 132.156C206.103 133.311 206.069 135.149 204.915 136.262C204.232 136.92 203.27 137.203 202.34 137.02L200.04 136.569L200.702 137.255C201.549 138.133 201.523 139.531 200.645 140.378C199.767 141.225 198.368 141.199 197.522 140.321L195.397 138.116C194.6 140.242 191.859 140.81 190.283 139.176L190.017 138.9C189.544 138.41 189.233 137.785 189.126 137.112L188.686 134.337L188.364 134.444C187.142 134.851 185.795 134.52 184.901 133.593C184.007 132.666 183.726 131.307 184.178 130.101L184.259 129.886C184.799 128.444 186.173 127.487 187.712 127.479L189.735 127.469C188.956 125.775 189.667 123.768 191.338 122.942Z" fill="#43784F" fill-opacity="0.75"/>
<path d="M194.315 127.447L195.969 124.389M195.969 124.389C197.939 123.102 200.539 124.581 200.441 126.932L200.421 127.417L201.325 126.546C202.582 125.334 204.584 125.371 205.796 126.628C207.008 127.885 206.971 129.887 205.714 131.099L204.811 131.97L204.99 132.156C206.103 133.311 206.069 135.149 204.915 136.262C204.232 136.92 203.27 137.203 202.34 137.02L200.04 136.569L200.702 137.255C201.549 138.133 201.523 139.531 200.645 140.378C199.767 141.225 198.368 141.199 197.522 140.321L195.397 138.116C194.6 140.242 191.859 140.81 190.283 139.176L190.017 138.9C189.544 138.41 189.233 137.785 189.126 137.112L188.686 134.337L188.364 134.444C187.142 134.851 185.795 134.52 184.901 133.593C184.007 132.666 183.726 131.307 184.178 130.101L184.259 129.886C184.799 128.444 186.173 127.487 187.712 127.479L189.735 127.469C188.956 125.775 189.667 123.768 191.338 122.942L191.566 122.83C193.211 122.017 195.202 122.722 195.969 124.389Z" stroke="#43784F"/>
</g>
<g filter="url(#filter13_i_450_1141)">
<path d="M116.686 140.784L116.566 136.924L123.279 136.416L120.598 142.975L120.718 146.834L114.879 144.513L116.686 140.784Z" fill="#BBD765"/>
</g>
<g filter="url(#filter14_i_450_1141)">
<path d="M118.165 119.922L118.902 119.531C120.43 118.719 122.325 119.395 122.994 120.991C124.942 119.667 127.553 121.211 127.331 123.556L127.309 123.787L128.506 122.634C129.7 121.482 131.603 121.517 132.754 122.712C133.906 123.906 133.871 125.809 132.676 126.96L131.48 128.114C132.631 129.308 132.597 131.211 131.402 132.362L131.31 132.451C130.613 133.123 129.645 133.435 128.687 133.296L126.44 132.972L126.906 133.455C127.8 134.383 127.773 135.86 126.845 136.754C125.918 137.649 124.441 137.622 123.546 136.694L121.69 134.768L121.622 134.931C120.722 137.069 117.928 137.59 116.318 135.92C115.82 135.403 115.508 134.735 115.432 134.022L115.144 131.34L114.643 131.53C113.506 131.96 112.223 131.671 111.379 130.796C110.536 129.921 110.295 128.628 110.766 127.508L111.001 126.949C111.587 125.556 112.915 124.618 114.423 124.531L116.564 124.407C115.858 122.723 116.552 120.779 118.165 119.922Z" fill="#43784F"/>
</g>
<path d="M121.169 124.142L122.994 120.991M122.994 120.991C124.942 119.667 127.553 121.211 127.331 123.556L127.309 123.787L128.506 122.634C129.7 121.482 131.603 121.517 132.754 122.712C133.906 123.906 133.871 125.809 132.676 126.96L131.48 128.114C132.631 129.308 132.597 131.211 131.402 132.362L131.31 132.451C130.613 133.123 129.645 133.435 128.687 133.296L126.44 132.972L126.906 133.455C127.8 134.383 127.773 135.86 126.845 136.754C125.918 137.649 124.441 137.622 123.546 136.694L121.69 134.768L121.622 134.931C120.722 137.069 117.928 137.59 116.318 135.92C115.82 135.403 115.508 134.735 115.432 134.022L115.144 131.34L114.643 131.53C113.506 131.96 112.223 131.671 111.379 130.796C110.536 129.921 110.295 128.628 110.766 127.508L111.001 126.949C111.587 125.556 112.915 124.618 114.423 124.531L116.564 124.407C115.858 122.723 116.552 120.779 118.165 119.922L118.902 119.531C120.43 118.719 122.325 119.395 122.994 120.991Z" stroke="#43784F"/>
<g filter="url(#filter15_g_450_1141)">
<path d="M117.381 120.688L118.452 120.1C120.043 119.226 122.04 119.944 122.71 121.631C124.801 120.182 127.623 121.885 127.316 124.41L127.302 124.527L128.758 123.123C130.015 121.911 132.018 121.947 133.23 123.205C134.442 124.463 134.405 126.465 133.148 127.677L131.692 129.081C132.904 130.338 132.867 132.341 131.61 133.553L131.353 133.8C130.594 134.532 129.547 134.885 128.499 134.762L126.092 134.479L126.488 134.889C127.482 135.92 127.451 137.561 126.421 138.555C125.39 139.549 123.748 139.519 122.755 138.488L120.896 136.559L120.694 137.015C119.706 139.241 116.777 139.758 115.087 138.005C114.537 137.434 114.201 136.69 114.137 135.899L113.907 133.045L113.267 133.302C112.083 133.776 110.73 133.485 109.846 132.567C108.961 131.649 108.72 130.287 109.237 129.122L109.59 128.327C110.245 126.851 111.653 125.848 113.263 125.712L115.647 125.511C114.926 123.696 115.67 121.628 117.381 120.688Z" fill="#43784F" fill-opacity="0.75"/>
<path d="M120.642 125.089L122.71 121.631M122.71 121.631C124.801 120.182 127.623 121.885 127.316 124.41L127.302 124.527L128.758 123.123C130.015 121.911 132.018 121.947 133.23 123.205C134.442 124.463 134.405 126.465 133.148 127.677L131.692 129.081C132.904 130.338 132.867 132.341 131.61 133.553L131.353 133.8C130.594 134.532 129.547 134.885 128.499 134.762L126.092 134.479L126.488 134.889C127.482 135.92 127.451 137.561 126.421 138.555C125.39 139.549 123.748 139.519 122.755 138.488L120.896 136.559L120.694 137.015C119.706 139.241 116.777 139.758 115.087 138.005C114.537 137.434 114.201 136.69 114.137 135.899L113.907 133.045L113.267 133.302C112.083 133.776 110.73 133.485 109.846 132.567C108.961 131.649 108.72 130.287 109.237 129.122L109.59 128.327C110.245 126.851 111.653 125.848 113.263 125.712L115.647 125.511C114.926 123.696 115.67 121.628 117.381 120.688L118.452 120.1C120.043 119.226 122.04 119.944 122.71 121.631Z" stroke="#43784F"/>
</g>
<path d="M122.093 134.737C126.257 134.26 138.876 133.265 141.051 138.391C142.932 142.823 138.554 146.968 135.953 148.944C134.833 149.795 133.481 150.241 132.076 150.312C127.828 150.525 118.337 150.451 114.308 145.977C110.105 141.311 116.709 137.047 119.556 135.511C120.346 135.086 121.201 134.839 122.093 134.737Z" fill="#ED9121"/>
<path d="M124.498 138.274C127.091 138.001 132.638 137.719 133.642 140.161C134.426 142.068 133.005 143.894 131.722 145.063C130.686 146.007 129.316 146.458 127.914 146.489C125.467 146.541 121.55 146.279 119.767 144.272C117.856 142.121 120.36 140.092 121.981 139.092C122.743 138.622 123.607 138.368 124.498 138.274Z" fill="#CE862F"/>
<path d="M125.648 139.37C127.53 139.143 130.817 138.988 131.403 140.56C131.819 141.678 131.167 142.788 130.415 143.617C129.484 144.642 128.119 145.124 126.735 145.143C125.096 145.165 122.926 144.938 121.9 143.733C120.763 142.398 122.093 141.059 123.186 140.273C123.908 139.753 124.765 139.477 125.648 139.37Z" fill="#E1AF71"/>
<path d="M70.3819 128.907C74.5463 128.43 87.1653 127.435 89.3405 132.561C91.2209 136.993 86.8432 141.138 84.2421 143.114C83.122 143.965 81.77 144.411 80.3652 144.482C76.1169 144.695 66.6263 144.62 62.5977 140.147C58.3947 135.481 64.9985 131.217 67.8454 129.681C68.6352 129.255 69.4904 129.009 70.3819 128.907Z" fill="#ED9121"/>
<path d="M70.3819 128.907C74.5463 128.43 87.1653 127.435 89.3405 132.561C91.2209 136.993 86.8432 141.138 84.2421 143.114C83.122 143.965 81.77 144.411 80.3652 144.482C76.1169 144.695 66.6263 144.62 62.5977 140.147C58.3947 135.481 64.9985 131.217 67.8454 129.681C68.6352 129.255 69.4904 129.009 70.3819 128.907Z" fill="#ED9121"/>
<path d="M72.7877 132.444C75.3799 132.17 80.9274 131.889 81.9316 134.331C82.7155 136.238 81.294 138.064 80.0112 139.233C78.9748 140.177 77.6054 140.628 76.2037 140.659C73.7564 140.711 69.8397 140.449 68.0564 138.442C66.1456 136.291 68.6496 134.262 70.27 133.262C71.0325 132.792 71.8967 132.538 72.7877 132.444Z" fill="#CE862F"/>
<path d="M73.9373 133.54C75.8189 133.313 79.1067 133.158 79.6921 134.73C80.1085 135.847 79.4562 136.958 78.7038 137.787C77.7731 138.812 76.4086 139.294 75.0241 139.313C73.3849 139.335 71.2152 139.108 70.1892 137.903C69.0526 136.568 70.3822 135.229 71.4753 134.443C72.1974 133.923 73.0544 133.647 73.9373 133.54Z" fill="#E1AF71"/>
<path d="M160.986 130.243C165.15 129.766 177.769 128.772 179.944 133.898C181.825 138.329 177.447 142.475 174.846 144.45C173.726 145.301 172.374 145.748 170.969 145.818C166.721 146.031 157.23 145.957 153.202 141.484C148.999 136.817 155.603 132.553 158.449 131.018C159.239 130.592 160.094 130.345 160.986 130.243Z" fill="#ED9121"/>
<path d="M160.986 130.243C165.15 129.766 177.769 128.772 179.944 133.898C181.825 138.329 177.447 142.475 174.846 144.45C173.726 145.301 172.374 145.748 170.969 145.818C166.721 146.031 157.23 145.957 153.202 141.484C148.999 136.817 155.603 132.553 158.449 131.018C159.239 130.592 160.094 130.345 160.986 130.243Z" fill="#ED9121"/>
<path d="M163.392 133.78C165.984 133.507 171.531 133.226 172.536 135.668C173.32 137.574 171.898 139.401 170.615 140.569C169.579 141.513 168.209 141.965 166.808 141.995C164.36 142.048 160.444 141.785 158.66 139.778C156.75 137.627 159.254 135.598 160.874 134.599C161.637 134.128 162.501 133.874 163.392 133.78Z" fill="#CE862F"/>
<path d="M164.541 134.876C166.423 134.65 169.711 134.494 170.296 136.066C170.712 137.184 170.06 138.295 169.308 139.123C168.377 140.148 167.013 140.631 165.628 140.649C163.989 140.671 161.819 140.445 160.793 139.24C159.657 137.905 160.986 136.565 162.079 135.779C162.801 135.26 163.658 134.983 164.541 134.876Z" fill="#E1AF71"/>
<path d="M68.9616 130.347C74.9355 130.78 79.7649 135.386 80.4807 141.332L80.8346 144.273" stroke="#8A1422" stroke-width="2.5"/>
<path d="M68.7181 131.845C73.9268 132.446 78.0837 136.468 78.8549 141.654L79.3019 144.661" stroke="#D9AFB4"/>
<path d="M68.6812 132.344C73.5887 132.955 77.4374 136.851 77.9882 141.765L78.3045 144.587" stroke="#FFFAFB"/>
<path d="M143.656 146.946C147.589 142.428 154.172 141.331 159.357 144.329L161.921 145.812" stroke="#8A1422" stroke-width="2.5"/>
<path d="M144.708 148.04C148.315 144.235 154.028 143.326 158.638 145.823L161.311 147.27" stroke="#D9AFB4"/>
<path d="M145.084 148.369C148.519 144.811 153.946 144.072 158.207 146.582L160.653 148.024" stroke="#FFFAFB"/>
<path d="M230.37 142.222C233.126 136.904 239.263 134.284 245.01 135.974L247.851 136.809" stroke="#8A1422" stroke-width="2.5"/>
<path d="M231.65 143.037C234.258 138.488 239.594 136.257 244.664 137.595L247.603 138.371" stroke="#D9AFB4"/>
<path d="M232.094 143.268C234.592 139 239.69 137.001 244.423 138.435L247.141 139.258" stroke="#FFFAFB"/>
<path d="M170.055 130.761C173.988 126.244 180.571 125.147 185.756 128.145L188.32 129.627" stroke="#8A1422" stroke-width="2.5"/>
<path d="M171.107 131.855C174.714 128.05 180.427 127.141 185.037 129.638L187.71 131.086" stroke="#D9AFB4"/>
<path d="M171.484 132.184C174.918 128.626 180.345 127.888 184.606 130.398L187.052 131.839" stroke="#FFFAFB"/>
<path d="M105.309 135.503C106.163 129.574 111.099 125.083 117.082 124.79L120.04 124.646" stroke="#8A1422" stroke-width="2.5"/>
<path d="M106.786 135.852C107.753 130.699 112.06 126.837 117.288 126.435L120.318 126.202" stroke="#D9AFB4"/>
<path d="M107.28 135.924C108.237 131.072 112.396 127.509 117.337 127.307L120.174 127.192" stroke="#FFFAFB"/>
<path d="M146.605 125.03C152.182 122.844 158.525 124.917 161.736 129.973L163.323 132.473" stroke="#8A1422" stroke-width="2.5"/>
<path d="M147.032 126.487C151.99 124.782 157.475 126.618 160.408 130.965L162.108 133.484" stroke="#D9AFB4"/>
<path d="M147.213 126.953C151.904 125.387 157.057 127.242 159.673 131.439L161.176 133.848" stroke="#FFFAFB"/>
<defs>
<filter id="filter0_i_450_1141" x="287.332" y="111.48" width="131.062" height="36.2163" filterUnits="userSpaceOnUse" color-interpolation-filters="sRGB">
<feFlood flood-opacity="0" result="BackgroundImageFix"/>
<feBlend mode="normal" in="SourceGraphic" in2="BackgroundImageFix" result="shape"/>
<feColorMatrix in="SourceAlpha" type="matrix" values="0 0 0 0 0 0 0 0 0 0 0 0 0 0 0 0 0 0 127 0" result="hardAlpha"/>
<feOffset dx="-3"/>
<feGaussianBlur stdDeviation="2"/>
<feComposite in2="hardAlpha" operator="arithmetic" k2="-1" k3="1"/>
<feColorMatrix type="matrix" values="0 0 0 0 0 0 0 0 0 0 0 0 0 0 0 0 0 0 0.25 0"/>
<feBlend mode="normal" in2="shape" result="effect1_innerShadow_450_1141"/>
</filter>
<filter id="filter1_i_450_1141" x="263.377" y="136.198" width="27.1279" height="23.521" filterUnits="userSpaceOnUse" color-interpolation-filters="sRGB">
<feFlood flood-opacity="0" result="BackgroundImageFix"/>
<feBlend mode="normal" in="SourceGraphic" in2="BackgroundImageFix" result="shape"/>
<feColorMatrix in="SourceAlpha" type="matrix" values="0 0 0 0 0 0 0 0 0 0 0 0 0 0 0 0 0 0 127 0" result="hardAlpha"/>
<feOffset dx="-1" dy="-1"/>
<feGaussianBlur stdDeviation="3.05"/>
<feComposite in2="hardAlpha" operator="arithmetic" k2="-1" k3="1"/>
<feColorMatrix type="matrix" values="0 0 0 0 0 0 0 0 0 0 0 0 0 0 0 0 0 0 0.25 0"/>
<feBlend mode="normal" in2="shape" result="effect1_innerShadow_450_1141"/>
</filter>
<filter id="filter2_i_450_1141" x="52.738" y="127.622" width="222.249" height="67.2104" filterUnits="userSpaceOnUse" color-interpolation-filters="sRGB">
<feFlood flood-opacity="0" result="BackgroundImageFix"/>
<feBlend mode="normal" in="SourceGraphic" in2="BackgroundImageFix" result="shape"/>
<feColorMatrix in="SourceAlpha" type="matrix" values="0 0 0 0 0 0 0 0 0 0 0 0 0 0 0 0 0 0 127 0" result="hardAlpha"/>
<feOffset dx="6" dy="-5"/>
<feGaussianBlur stdDeviation="7.25"/>
<feComposite in2="hardAlpha" operator="arithmetic" k2="-1" k3="1"/>
<feColorMatrix type="matrix" values="0 0 0 0 0 0 0 0 0 0 0 0 0 0 0 0 0 0 0.25 0"/>
<feBlend mode="normal" in2="shape" result="effect1_innerShadow_450_1141"/>
</filter>
<filter id="filter3_i_450_1141" x="51.1089" y="114.819" width="217.914" height="35.582" filterUnits="userSpaceOnUse" color-interpolation-filters="sRGB">
<feFlood flood-opacity="0" result="BackgroundImageFix"/>
<feBlend mode="normal" in="SourceGraphic" in2="BackgroundImageFix" result="shape"/>
<feColorMatrix in="SourceAlpha" type="matrix" values="0 0 0 0 0 0 0 0 0 0 0 0 0 0 0 0 0 0 127 0" result="hardAlpha"/>
<feOffset dx="-1" dy="-3"/>
<feGaussianBlur stdDeviation="6.3"/>
<feComposite in2="hardAlpha" operator="arithmetic" k2="-1" k3="1"/>
<feColorMatrix type="matrix" values="0 0 0 0 0 0 0 0 0 0 0 0 0 0 0 0 0 0 0.25 0"/>
<feBlend mode="normal" in2="shape" result="effect1_innerShadow_450_1141"/>
</filter>
<filter id="filter4_i_450_1141" x="101.094" y="137.497" width="11.9524" height="11.6353" filterUnits="userSpaceOnUse" color-interpolation-filters="sRGB">
<feFlood flood-opacity="0" result="BackgroundImageFix"/>
<feBlend mode="normal" in="SourceGraphic" in2="BackgroundImageFix" result="shape"/>
<feColorMatrix in="SourceAlpha" type="matrix" values="0 0 0 0 0 0 0 0 0 0 0 0 0 0 0 0 0 0 127 0" result="hardAlpha"/>
<feOffset dx="5" dy="-10"/>
<feComposite in2="hardAlpha" operator="arithmetic" k2="-1" k3="1"/>
<feColorMatrix type="matrix" values="0 0 0 0 0.262745 0 0 0 0 0.470588 0 0 0 0 0.309804 0 0 0 0.2 0"/>
<feBlend mode="normal" in2="shape" result="effect1_innerShadow_450_1141"/>
</filter>
<filter id="filter5_i_450_1141" x="87.1372" y="120.401" width="25.954" height="23.7447" filterUnits="userSpaceOnUse" color-interpolation-filters="sRGB">
<feFlood flood-opacity="0" result="BackgroundImageFix"/>
<feBlend mode="normal" in="SourceGraphic" in2="BackgroundImageFix" result="shape"/>
<feColorMatrix in="SourceAlpha" type="matrix" values="0 0 0 0 0 0 0 0 0 0 0 0 0 0 0 0 0 0 127 0" result="hardAlpha"/>
<feOffset dx="12" dy="4"/>
<feGaussianBlur stdDeviation="0.95"/>
<feComposite in2="hardAlpha" operator="arithmetic" k2="-1" k3="1"/>
<feColorMatrix type="matrix" values="0 0 0 0 0 0 0 0 0 0 0 0 0 0 0 0 0 0 0.25 0"/>
<feBlend mode="normal" in2="shape" result="effect1_innerShadow_450_1141"/>
</filter>
<filter id="filter6_g_450_1141" x="86.9117" y="120.362" width="25.5389" height="24.3494" filterUnits="userSpaceOnUse" color-interpolation-filters="sRGB">
<feFlood flood-opacity="0" result="BackgroundImageFix"/>
<feBlend mode="normal" in="SourceGraphic" in2="BackgroundImageFix" result="shape"/>
<feTurbulence type="fractalNoise" baseFrequency="0.99900001287460327 0.99900001287460327" numOctaves="3" seed="4316" />
<feDisplacementMap in="shape" scale="0.20000000298023224" xChannelSelector="R" yChannelSelector="G" result="displacedImage" width="100%" height="100%" />
<feMerge result="effect1_texture_450_1141">
<feMergeNode in="displacedImage"/>
</feMerge>
</filter>
<filter id="filter7_i_450_1141" x="134.984" y="138.299" width="8.39966" height="11.5347" filterUnits="userSpaceOnUse" color-interpolation-filters="sRGB">
<feFlood flood-opacity="0" result="BackgroundImageFix"/>
<feBlend mode="normal" in="SourceGraphic" in2="BackgroundImageFix" result="shape"/>
<feColorMatrix in="SourceAlpha" type="matrix" values="0 0 0 0 0 0 0 0 0 0 0 0 0 0 0 0 0 0 127 0" result="hardAlpha"/>
<feOffset dx="5" dy="-10"/>
<feComposite in2="hardAlpha" operator="arithmetic" k2="-1" k3="1"/>
<feColorMatrix type="matrix" values="0 0 0 0 0.262745 0 0 0 0 0.470588 0 0 0 0 0.309804 0 0 0 0.2 0"/>
<feBlend mode="normal" in2="shape" result="effect1_innerShadow_450_1141"/>
</filter>
<filter id="filter8_i_450_1141" x="127.895" y="118.429" width="27.8805" height="23.8912" filterUnits="userSpaceOnUse" color-interpolation-filters="sRGB">
<feFlood flood-opacity="0" result="BackgroundImageFix"/>
<feBlend mode="normal" in="SourceGraphic" in2="BackgroundImageFix" result="shape"/>
<feColorMatrix in="SourceAlpha" type="matrix" values="0 0 0 0 0 0 0 0 0 0 0 0 0 0 0 0 0 0 127 0" result="hardAlpha"/>
<feOffset dx="12" dy="4"/>
<feGaussianBlur stdDeviation="0.95"/>
<feComposite in2="hardAlpha" operator="arithmetic" k2="-1" k3="1"/>
<feColorMatrix type="matrix" values="0 0 0 0 0 0 0 0 0 0 0 0 0 0 0 0 0 0 0.25 0"/>
<feBlend mode="normal" in2="shape" result="effect1_innerShadow_450_1141"/>
</filter>
<filter id="filter9_g_450_1141" x="126.29" y="118.989" width="28.3226" height="23.5672" filterUnits="userSpaceOnUse" color-interpolation-filters="sRGB">
<feFlood flood-opacity="0" result="BackgroundImageFix"/>
<feBlend mode="normal" in="SourceGraphic" in2="BackgroundImageFix" result="shape"/>
<feTurbulence type="fractalNoise" baseFrequency="0.99900001287460327 0.99900001287460327" numOctaves="3" seed="4316" />
<feDisplacementMap in="shape" scale="0.20000000298023224" xChannelSelector="R" yChannelSelector="G" result="displacedImage" width="100%" height="100%" />
<feMerge result="effect1_texture_450_1141">
<feMergeNode in="displacedImage"/>
</feMerge>
</filter>
<filter id="filter10_i_450_1141" x="190.431" y="138.136" width="7.15552" height="9.50879" filterUnits="userSpaceOnUse" color-interpolation-filters="sRGB">
<feFlood flood-opacity="0" result="BackgroundImageFix"/>
<feBlend mode="normal" in="SourceGraphic" in2="BackgroundImageFix" result="shape"/>
<feColorMatrix in="SourceAlpha" type="matrix" values="0 0 0 0 0 0 0 0 0 0 0 0 0 0 0 0 0 0 127 0" result="hardAlpha"/>
<feOffset dx="5" dy="-10"/>
<feComposite in2="hardAlpha" operator="arithmetic" k2="-1" k3="1"/>
<feColorMatrix type="matrix" values="0 0 0 0 0.262745 0 0 0 0 0.470588 0 0 0 0 0.309804 0 0 0 0.2 0"/>
<feBlend mode="normal" in2="shape" result="effect1_innerShadow_450_1141"/>
</filter>
<filter id="filter11_i_450_1141" x="184.78" y="121.501" width="23.7816" height="20.193" filterUnits="userSpaceOnUse" color-interpolation-filters="sRGB">
<feFlood flood-opacity="0" result="BackgroundImageFix"/>
<feBlend mode="normal" in="SourceGraphic" in2="BackgroundImageFix" result="shape"/>
<feColorMatrix in="SourceAlpha" type="matrix" values="0 0 0 0 0 0 0 0 0 0 0 0 0 0 0 0 0 0 127 0" result="hardAlpha"/>
<feOffset dx="12" dy="4"/>
<feGaussianBlur stdDeviation="0.95"/>
<feComposite in2="hardAlpha" operator="arithmetic" k2="-1" k3="1"/>
<feColorMatrix type="matrix" values="0 0 0 0 0 0 0 0 0 0 0 0 0 0 0 0 0 0 0.25 0"/>
<feBlend mode="normal" in2="shape" result="effect1_innerShadow_450_1141"/>
</filter>
<filter id="filter12_g_450_1141" x="183.365" y="121.892" width="23.9163" height="19.7049" filterUnits="userSpaceOnUse" color-interpolation-filters="sRGB">
<feFlood flood-opacity="0" result="BackgroundImageFix"/>
<feBlend mode="normal" in="SourceGraphic" in2="BackgroundImageFix" result="shape"/>
<feTurbulence type="fractalNoise" baseFrequency="0.99900001287460327 0.99900001287460327" numOctaves="3" seed="4316" />
<feDisplacementMap in="shape" scale="0.20000000298023224" xChannelSelector="R" yChannelSelector="G" result="displacedImage" width="100%" height="100%" />
<feMerge result="effect1_texture_450_1141">
<feMergeNode in="displacedImage"/>
</feMerge>
</filter>
<filter id="filter13_i_450_1141" x="114.879" y="136.416" width="8.39966" height="10.418" filterUnits="userSpaceOnUse" color-interpolation-filters="sRGB">
<feFlood flood-opacity="0" result="BackgroundImageFix"/>
<feBlend mode="normal" in="SourceGraphic" in2="BackgroundImageFix" result="shape"/>
<feColorMatrix in="SourceAlpha" type="matrix" values="0 0 0 0 0 0 0 0 0 0 0 0 0 0 0 0 0 0 127 0" result="hardAlpha"/>
<feOffset dx="5" dy="-10"/>
<feComposite in2="hardAlpha" operator="arithmetic" k2="-1" k3="1"/>
<feColorMatrix type="matrix" values="0 0 0 0 0.262745 0 0 0 0 0.470588 0 0 0 0 0.309804 0 0 0 0.2 0"/>
<feBlend mode="normal" in2="shape" result="effect1_innerShadow_450_1141"/>
</filter>
<filter id="filter14_i_450_1141" x="110.028" y="118.686" width="25.9679" height="21.1222" filterUnits="userSpaceOnUse" color-interpolation-filters="sRGB">
<feFlood flood-opacity="0" result="BackgroundImageFix"/>
<feBlend mode="normal" in="SourceGraphic" in2="BackgroundImageFix" result="shape"/>
<feColorMatrix in="SourceAlpha" type="matrix" values="0 0 0 0 0 0 0 0 0 0 0 0 0 0 0 0 0 0 127 0" result="hardAlpha"/>
<feOffset dx="12" dy="4"/>
<feGaussianBlur stdDeviation="0.95"/>
<feComposite in2="hardAlpha" operator="arithmetic" k2="-1" k3="1"/>
<feColorMatrix type="matrix" values="0 0 0 0 0 0 0 0 0 0 0 0 0 0 0 0 0 0 0.25 0"/>
<feBlend mode="normal" in2="shape" result="effect1_innerShadow_450_1141"/>
</filter>
<filter id="filter15_g_450_1141" x="108.368" y="119.126" width="26.3477" height="20.7557" filterUnits="userSpaceOnUse" color-interpolation-filters="sRGB">
<feFlood flood-opacity="0" result="BackgroundImageFix"/>
<feBlend mode="normal" in="SourceGraphic" in2="BackgroundImageFix" result="shape"/>
<feTurbulence type="fractalNoise" baseFrequency="0.99900001287460327 0.99900001287460327" numOctaves="3" seed="4316" />
<feDisplacementMap in="shape" scale="0.20000000298023224" xChannelSelector="R" yChannelSelector="G" result="displacedImage" width="100%" height="100%" />
<feMerge result="effect1_texture_450_1141">
<feMergeNode in="displacedImage"/>
</feMerge>
</filter>
</defs>
</svg>
