<svg width="446" height="320" viewBox="0 0 446 320" fill="none" xmlns="http://www.w3.org/2000/svg">
<g filter="url(#filter0_i_449_1542)">
<path d="M288.903 140.479L287.759 124.753L403.788 98.2568C404.736 98.0403 405.717 98.007 406.678 98.1586L409.745 98.6429C414.831 99.4457 416.73 105.775 412.926 109.245C412.168 109.936 411.249 110.427 410.253 110.671L288.903 140.479Z" fill="#E8A020"/>
</g>
<g filter="url(#filter1_i_449_1542)">
<path d="M263.307 153.871L266.481 137.097L288.141 130.007L288.395 133.498L273.725 138.575L274.402 147.884L263.307 153.871Z" fill="#83919E"/>
</g>
<g filter="url(#filter2_i_449_1542)">
<path d="M265.873 127.114L51.439 142.711L58.2202 162.791C65.5127 184.386 86.4864 198.315 109.219 196.662L216.507 188.858C239.24 187.205 257.977 170.387 262.068 147.964L265.873 127.114Z" fill="#9AAAB8"/>
</g>
<path d="M265.873 127.114L51.439 142.711L58.2202 162.791C65.5127 184.386 86.4864 198.315 109.219 196.662L216.507 188.858C239.24 187.205 257.977 170.387 262.068 147.964L265.873 127.114Z" stroke="#9AAAB8"/>
<g filter="url(#filter3_i_449_1542)">
<ellipse cx="158.289" cy="133.774" rx="108.5" ry="16" transform="rotate(-4.6518 158.289 133.774)" fill="#D9D9D9"/>
</g>
<g filter="url(#filter4_i_449_1542)">
<path d="M97.6183 148.328L94.1118 145.736L99.3716 140.55L102.878 147.032L106.385 149.624L99.3716 152.217L97.6183 148.328Z" fill="#BBD765"/>
</g>
<g filter="url(#filter5_i_449_1542)">
<path d="M85.2676 129.97L85.5211 130.05C86.0573 127.502 89.1813 126.53 91.0688 128.324L91.6575 128.883L91.6575 127.899C91.6575 125.865 93.3059 124.217 95.3393 124.217C97.3727 124.217 99.0211 125.865 99.0211 127.899L99.0211 128.883L99.6925 128.883C101.355 128.883 102.703 130.231 102.703 131.894C102.703 132.925 102.175 133.885 101.304 134.437L99.0211 135.883L100.37 135.883C101.658 135.883 102.703 136.928 102.703 138.217C102.703 139.505 101.658 140.55 100.37 140.55L96.5666 140.55C97.6819 142.671 96.1442 145.217 93.7483 145.217L92.7555 145.217C92.0383 145.217 91.3358 145.013 90.73 144.629L87.9757 142.883L87.891 143.044C87.1884 144.38 85.8033 145.217 84.2939 145.217L84.1805 145.217C82.7408 145.217 81.4197 144.419 80.7495 143.145C79.9421 141.61 80.2525 139.725 81.5095 138.53L83.0666 137.05L83.0279 137.038C81.034 136.406 79.9572 134.251 80.6493 132.277C81.3123 130.386 83.3576 129.365 85.2676 129.97Z" fill="#43784F"/>
</g>
<path d="M86.7484 133.55L85.5211 130.05M85.5211 130.05L85.2676 129.97C83.3576 129.365 81.3123 130.386 80.6493 132.277C79.9572 134.251 81.034 136.406 83.0279 137.038L83.0666 137.05L81.5095 138.53C80.2525 139.725 79.9421 141.61 80.7495 143.145C81.4197 144.419 82.7408 145.217 84.1805 145.217L84.2939 145.217C85.8033 145.217 87.1884 144.38 87.891 143.044L87.9757 142.883L90.73 144.629C91.3358 145.013 92.0383 145.217 92.7555 145.217L93.7483 145.217C96.1442 145.217 97.6819 142.671 96.5666 140.55L100.37 140.55C101.658 140.55 102.703 139.505 102.703 138.217C102.703 136.928 101.658 135.883 100.37 135.883L99.0211 135.883L101.304 134.437C102.175 133.885 102.703 132.925 102.703 131.894C102.703 130.231 101.355 128.883 99.6925 128.883L99.0211 128.883L99.0211 127.899C99.0211 125.865 97.3727 124.217 95.3393 124.217C93.3059 124.217 91.6575 125.865 91.6575 127.899L91.6575 128.883L91.0688 128.324C89.1813 126.53 86.0573 127.502 85.5211 130.05Z" stroke="#43784F"/>
<g filter="url(#filter6_g_449_1542)">
<path d="M81.5815 140.161L83.2604 138.476C81.1186 137.76 79.9647 135.434 80.6766 133.291C81.3877 131.15 83.705 129.983 85.8441 130.698C86.3955 127.932 89.8101 126.9 91.8012 128.898L92.3034 129.402L92.3034 128.092C92.3034 125.952 94.0386 124.217 96.179 124.217C98.3195 124.217 100.055 125.952 100.055 128.092L100.055 129.402L100.55 129.402C102.417 129.402 103.93 130.915 103.93 132.782C103.93 133.91 103.367 134.964 102.43 135.591L100.055 137.18L101.338 137.18C102.769 137.18 103.93 138.341 103.93 139.772C103.93 141.204 102.769 142.365 101.338 142.365L97.4709 142.365C98.6588 144.749 96.9249 147.55 94.2614 147.55L93.5298 147.55C92.7302 147.55 91.9487 147.313 91.2841 146.868L88.4278 144.958L88.2883 145.238C87.5822 146.655 86.1353 147.55 84.5522 147.55C82.9691 147.55 81.5222 146.655 80.8162 145.238L80.7727 145.15C79.9433 143.486 80.2688 141.478 81.5815 140.161Z" fill="#43784F" fill-opacity="0.75"/>
<path d="M87.136 134.587L85.8441 130.698M85.8441 130.698C86.3955 127.932 89.8101 126.9 91.8012 128.898L92.3034 129.402L92.3034 128.092C92.3034 125.952 94.0386 124.217 96.179 124.217C98.3195 124.217 100.055 125.952 100.055 128.092L100.055 129.402L100.55 129.402C102.417 129.402 103.93 130.915 103.93 132.782C103.93 133.91 103.367 134.964 102.43 135.591L100.055 137.18L101.338 137.18C102.769 137.18 103.93 138.341 103.93 139.772C103.93 141.204 102.769 142.365 101.338 142.365L97.4709 142.365C98.6588 144.749 96.9249 147.55 94.2614 147.55L93.5298 147.55C92.7302 147.55 91.9487 147.313 91.2841 146.868L88.4278 144.958L88.2883 145.238C87.5822 146.655 86.1353 147.55 84.5522 147.55C82.9691 147.55 81.5222 146.655 80.8162 145.238L80.7727 145.15C79.9433 143.486 80.2688 141.478 81.5815 140.161L83.2604 138.476C81.1186 137.76 79.9647 135.434 80.6766 133.291C81.3877 131.15 83.705 129.983 85.8441 130.698Z" stroke="#43784F"/>
</g>
<path d="M114.497 136.664C118.615 135.881 131.126 133.958 133.673 138.91C135.875 143.191 131.815 147.648 129.367 149.81C128.313 150.741 126.997 151.286 125.602 151.46C121.381 151.986 111.91 152.612 107.563 148.448C103.027 144.104 109.298 139.364 112.024 137.623C112.78 137.14 113.615 136.831 114.497 136.664Z" fill="#ED9121"/>
<path d="M117.157 140.014C119.722 139.55 125.234 138.86 126.415 141.222C127.338 143.065 126.055 144.991 124.862 146.252C123.898 147.27 122.565 147.821 121.17 147.954C118.733 148.187 114.808 148.215 112.881 146.344C110.817 144.34 113.164 142.132 114.707 141.016C115.432 140.49 116.276 140.173 117.157 140.014Z" fill="#CE862F"/>
<path d="M118.384 141.022C120.244 140.657 123.511 140.26 124.211 141.784C124.709 142.868 124.14 144.024 123.451 144.906C122.598 145.997 121.273 146.578 119.894 146.699C118.261 146.842 116.08 146.776 114.968 145.65C113.736 144.402 114.963 142.968 115.995 142.104C116.677 141.533 117.511 141.193 118.384 141.022Z" fill="#E1AF71"/>
<path d="M62.4967 134.664C66.6147 133.881 79.1259 131.958 81.6732 136.91C83.8754 141.191 79.8154 145.648 77.367 147.81C76.3127 148.741 74.9973 149.286 73.6016 149.46C69.3805 149.986 59.9103 150.612 55.5628 146.448C51.0271 142.104 57.2984 137.364 60.0243 135.623C60.7805 135.14 61.6152 134.831 62.4967 134.664Z" fill="#ED9121"/>
<path d="M65.1572 138.014C67.7221 137.55 73.2338 136.86 74.4154 139.222C75.3377 141.065 74.0548 142.991 72.8617 144.252C71.8978 145.27 70.5654 145.821 69.1698 145.954C66.733 146.187 62.8076 146.215 60.8811 144.344C58.8169 142.34 61.1644 140.132 62.7066 139.016C63.4325 138.49 64.2755 138.173 65.1572 138.014Z" fill="#CE862F"/>
<path d="M66.3842 139.022C68.2439 138.657 71.5113 138.26 72.211 139.784C72.7087 140.868 72.1401 142.024 71.4509 142.906C70.5983 143.997 69.2731 144.578 67.8938 144.699C66.2606 144.842 64.0802 144.776 62.9681 143.65C61.7361 142.402 62.9633 140.968 63.9955 140.104C64.6773 139.533 65.5115 139.193 66.3842 139.022Z" fill="#E1AF71"/>
<path d="M61.187 136.205C67.1766 136.196 72.3325 140.433 73.4849 146.311L74.0547 149.217" stroke="#8A1422" stroke-width="2.5"/>
<path d="M61.0546 137.716C66.2934 137.931 70.7356 141.636 71.8871 146.751L72.5547 149.717" stroke="#D9AFB4"/>
<path d="M61.0546 138.217C65.9937 138.464 70.1193 142.065 71.0311 146.926L71.5547 149.717" stroke="#FFFAFB"/>
<path d="M135.456 148.776C139.045 143.981 145.529 142.401 150.921 145.009L153.587 146.298" stroke="#8A1422" stroke-width="2.5"/>
<path d="M136.585 149.79C139.902 145.729 145.532 144.401 150.314 146.551L153.086 147.798" stroke="#D9AFB4"/>
<path d="M136.985 150.09C140.148 146.288 145.505 145.151 149.94 147.34L152.486 148.597" stroke="#FFFAFB"/>
<defs>
<filter id="filter0_i_449_1542" x="284.759" y="98.0655" width="130.175" height="42.4141" filterUnits="userSpaceOnUse" color-interpolation-filters="sRGB">
<feFlood flood-opacity="0" result="BackgroundImageFix"/>
<feBlend mode="normal" in="SourceGraphic" in2="BackgroundImageFix" result="shape"/>
<feColorMatrix in="SourceAlpha" type="matrix" values="0 0 0 0 0 0 0 0 0 0 0 0 0 0 0 0 0 0 127 0" result="hardAlpha"/>
<feOffset dx="-3"/>
<feGaussianBlur stdDeviation="2"/>
<feComposite in2="hardAlpha" operator="arithmetic" k2="-1" k3="1"/>
<feColorMatrix type="matrix" values="0 0 0 0 0 0 0 0 0 0 0 0 0 0 0 0 0 0 0.25 0"/>
<feBlend mode="normal" in2="shape" result="effect1_innerShadow_449_1542"/>
</filter>
<filter id="filter1_i_449_1542" x="262.307" y="129.007" width="26.0884" height="24.8643" filterUnits="userSpaceOnUse" color-interpolation-filters="sRGB">
<feFlood flood-opacity="0" result="BackgroundImageFix"/>
<feBlend mode="normal" in="SourceGraphic" in2="BackgroundImageFix" result="shape"/>
<feColorMatrix in="SourceAlpha" type="matrix" values="0 0 0 0 0 0 0 0 0 0 0 0 0 0 0 0 0 0 127 0" result="hardAlpha"/>
<feOffset dx="-1" dy="-1"/>
<feGaussianBlur stdDeviation="3.05"/>
<feComposite in2="hardAlpha" operator="arithmetic" k2="-1" k3="1"/>
<feColorMatrix type="matrix" values="0 0 0 0 0 0 0 0 0 0 0 0 0 0 0 0 0 0 0.25 0"/>
<feBlend mode="normal" in2="shape" result="effect1_innerShadow_449_1542"/>
</filter>
<filter id="filter2_i_449_1542" x="50.7588" y="121.569" width="221.722" height="75.7256" filterUnits="userSpaceOnUse" color-interpolation-filters="sRGB">
<feFlood flood-opacity="0" result="BackgroundImageFix"/>
<feBlend mode="normal" in="SourceGraphic" in2="BackgroundImageFix" result="shape"/>
<feColorMatrix in="SourceAlpha" type="matrix" values="0 0 0 0 0 0 0 0 0 0 0 0 0 0 0 0 0 0 127 0" result="hardAlpha"/>
<feOffset dx="6" dy="-5"/>
<feGaussianBlur stdDeviation="7.25"/>
<feComposite in2="hardAlpha" operator="arithmetic" k2="-1" k3="1"/>
<feColorMatrix type="matrix" values="0 0 0 0 0 0 0 0 0 0 0 0 0 0 0 0 0 0 0.25 0"/>
<feBlend mode="normal" in2="shape" result="effect1_innerShadow_449_1542"/>
</filter>
<filter id="filter3_i_449_1542" x="49.1382" y="112.557" width="217.301" height="39.4346" filterUnits="userSpaceOnUse" color-interpolation-filters="sRGB">
<feFlood flood-opacity="0" result="BackgroundImageFix"/>
<feBlend mode="normal" in="SourceGraphic" in2="BackgroundImageFix" result="shape"/>
<feColorMatrix in="SourceAlpha" type="matrix" values="0 0 0 0 0 0 0 0 0 0 0 0 0 0 0 0 0 0 127 0" result="hardAlpha"/>
<feOffset dx="-1" dy="-3"/>
<feGaussianBlur stdDeviation="6.3"/>
<feComposite in2="hardAlpha" operator="arithmetic" k2="-1" k3="1"/>
<feColorMatrix type="matrix" values="0 0 0 0 0 0 0 0 0 0 0 0 0 0 0 0 0 0 0.25 0"/>
<feBlend mode="normal" in2="shape" result="effect1_innerShadow_449_1542"/>
</filter>
<filter id="filter4_i_449_1542" x="94.1118" y="140.55" width="12.2729" height="11.6665" filterUnits="userSpaceOnUse" color-interpolation-filters="sRGB">
<feFlood flood-opacity="0" result="BackgroundImageFix"/>
<feBlend mode="normal" in="SourceGraphic" in2="BackgroundImageFix" result="shape"/>
<feColorMatrix in="SourceAlpha" type="matrix" values="0 0 0 0 0 0 0 0 0 0 0 0 0 0 0 0 0 0 127 0" result="hardAlpha"/>
<feOffset dx="5" dy="-10"/>
<feComposite in2="hardAlpha" operator="arithmetic" k2="-1" k3="1"/>
<feColorMatrix type="matrix" values="0 0 0 0 0.262745 0 0 0 0 0.470588 0 0 0 0 0.309804 0 0 0 0.2 0"/>
<feBlend mode="normal" in2="shape" result="effect1_innerShadow_449_1542"/>
</filter>
<filter id="filter5_i_449_1542" x="79.8037" y="123.717" width="25.2994" height="23.9" filterUnits="userSpaceOnUse" color-interpolation-filters="sRGB">
<feFlood flood-opacity="0" result="BackgroundImageFix"/>
<feBlend mode="normal" in="SourceGraphic" in2="BackgroundImageFix" result="shape"/>
<feColorMatrix in="SourceAlpha" type="matrix" values="0 0 0 0 0 0 0 0 0 0 0 0 0 0 0 0 0 0 127 0" result="hardAlpha"/>
<feOffset dx="12" dy="4"/>
<feGaussianBlur stdDeviation="0.95"/>
<feComposite in2="hardAlpha" operator="arithmetic" k2="-1" k3="1"/>
<feColorMatrix type="matrix" values="0 0 0 0 0 0 0 0 0 0 0 0 0 0 0 0 0 0 0.25 0"/>
<feBlend mode="normal" in2="shape" result="effect1_innerShadow_449_1542"/>
</filter>
<filter id="filter6_g_449_1542" x="79.7179" y="123.617" width="24.8123" height="24.5335" filterUnits="userSpaceOnUse" color-interpolation-filters="sRGB">
<feFlood flood-opacity="0" result="BackgroundImageFix"/>
<feBlend mode="normal" in="SourceGraphic" in2="BackgroundImageFix" result="shape"/>
<feTurbulence type="fractalNoise" baseFrequency="0.99900001287460327 0.99900001287460327" numOctaves="3" seed="4316" />
<feDisplacementMap in="shape" scale="0.20000000298023224" xChannelSelector="R" yChannelSelector="G" result="displacedImage" width="100%" height="100%" />
<feMerge result="effect1_texture_449_1542">
<feMergeNode in="displacedImage"/>
</feMerge>
</filter>
</defs>
</svg>
