<svg width="435" height="297" viewBox="0 0 435 297" fill="none" xmlns="http://www.w3.org/2000/svg">
<g clip-path="url(#clip0_450_830)">
<g filter="url(#filter0_i_450_830)">
<path d="M284.528 153.838L289.408 138.845L406.85 158.13C407.81 158.288 408.731 158.627 409.563 159.13L412.221 160.737C416.627 163.401 415.995 169.979 411.162 171.755C410.199 172.109 409.163 172.216 408.148 172.067L284.528 153.838Z" fill="#E8A020"/>
</g>
<g filter="url(#filter1_i_450_830)">
<path d="M255.77 156.572L265.044 142.239L287.778 143.854L286.694 147.182L271.193 146.343L268.304 155.218L255.77 156.572Z" fill="#83919E"/>
</g>
<g filter="url(#filter2_i_450_830)">
<path d="M268.25 132.766L63.8066 66.2246L62.5022 87.3787C61.0994 110.128 75.2593 130.947 96.9327 138.001L199.223 171.294C220.897 178.348 244.598 169.852 256.854 150.635L268.25 132.766Z" fill="#9AAAB8"/>
</g>
<path d="M268.25 132.766L63.8066 66.2246L62.5022 87.3787C61.0994 110.128 75.2593 130.947 96.9327 138.001L199.223 171.294C220.897 178.348 244.598 169.852 256.854 150.635L268.25 132.766Z" stroke="#9AAAB8"/>
<g filter="url(#filter3_i_450_830)">
<ellipse cx="166.119" cy="98.3022" rx="108.5" ry="16" transform="rotate(17.5369 166.119 98.3022)" fill="#D9D9D9"/>
</g>
<g filter="url(#filter4_i_450_830)">
<path d="M109.45 90.2665L107.261 86.4948L114.147 83.8243L114.792 91.1652L116.981 94.937L109.515 94.5319L109.45 90.2665Z" fill="#BBD765"/>
</g>
<g filter="url(#filter5_i_450_830)">
<path d="M105.404 68.5133L105.605 68.6878C107.109 66.5617 110.362 66.91 111.382 69.3062L111.7 70.0536L112.091 69.1497C112.898 67.2834 115.066 66.4251 116.932 67.2325C118.798 68.0399 119.657 70.2073 118.849 72.0735L118.458 72.9774L119.074 73.244C120.6 73.9042 121.302 75.6763 120.642 77.2023C120.232 78.1488 119.367 78.8198 118.348 78.9806L115.679 79.4019L116.916 79.9374C118.099 80.4491 118.643 81.8226 118.131 83.0054C117.62 84.1881 116.246 84.7321 115.063 84.2204L111.573 82.7103C111.755 85.0993 109.332 86.8256 107.133 85.8743L106.222 85.4801C105.564 85.1953 105 84.7293 104.597 84.1364L102.762 81.4407L102.62 81.5548C101.445 82.5019 99.8415 82.7196 98.4562 82.1203L98.3522 82.0753C97.0308 81.5036 96.1351 80.2468 96.0259 78.8112C95.8944 77.0818 96.9276 75.4755 98.5557 74.8779L100.573 74.1377L100.542 74.1111C98.9628 72.7395 98.8303 70.3339 100.249 68.7973C101.608 67.3252 103.891 67.1995 105.404 68.5133Z" fill="#43784F"/>
</g>
<path d="M105.341 72.3873L105.605 68.6878M105.605 68.6878L105.404 68.5133C103.891 67.1995 101.608 67.3252 100.249 68.7973C98.8303 70.3339 98.9628 72.7395 100.542 74.1111L100.573 74.1377L98.5557 74.8779C96.9276 75.4755 95.8944 77.0818 96.0259 78.8112C96.1351 80.2468 97.0308 81.5036 98.3522 82.0753L98.4562 82.1203C99.8415 82.7196 101.445 82.5019 102.62 81.5548L102.762 81.4407L104.597 84.1364C105 84.7293 105.564 85.1953 106.222 85.4801L107.133 85.8743C109.332 86.8256 111.755 85.0993 111.573 82.7103L115.063 84.2204C116.246 84.7321 117.62 84.1881 118.131 83.0054C118.643 81.8226 118.099 80.4491 116.916 79.9374L115.679 79.4019L118.348 78.9806C119.367 78.8198 120.232 78.1488 120.642 77.2023C121.302 75.6763 120.6 73.9042 119.074 73.244L118.458 72.9774L118.849 72.0735C119.657 70.2073 118.798 68.0399 116.932 67.2325C115.066 66.4251 112.898 67.2834 112.091 69.1497L111.7 70.0536L111.382 69.3062C110.362 66.91 107.109 66.5617 105.605 68.6878Z" stroke="#43784F"/>
<g filter="url(#filter6_g_450_830)">
<path d="M97.9745 76.4028L100.184 75.5233C98.503 74.0155 98.3673 71.4228 99.8717 69.7385C101.374 68.0562 103.965 67.9048 105.644 69.4109C107.248 67.0909 110.792 67.4997 111.826 70.124L112.087 70.7859L112.607 69.584C113.457 67.6195 115.738 66.716 117.703 67.5659C119.667 68.4158 120.571 70.6973 119.721 72.6617L119.201 73.8637L119.656 74.0605C121.369 74.8017 122.157 76.7913 121.416 78.5045C120.968 79.5399 120.033 80.2835 118.923 80.4869L116.113 81.002L117.29 81.5115C118.604 82.08 119.209 83.6062 118.64 84.9203C118.072 86.2345 116.545 86.8389 115.231 86.2704L111.682 84.735C111.826 87.3947 109.122 89.2772 106.678 88.2195L106.006 87.9291C105.273 87.6116 104.649 87.0835 104.216 86.4116L102.353 83.5238L102.114 83.7254C100.903 84.7455 99.2198 84.993 97.7669 84.3644C96.3139 83.7358 95.3416 82.3393 95.2562 80.7585L95.2509 80.6611C95.1506 78.8042 96.2467 77.0905 97.9745 76.4028Z" fill="#43784F" fill-opacity="0.75"/>
<path d="M105.285 73.493L105.644 69.4109M105.644 69.4109C107.248 67.0909 110.792 67.4997 111.826 70.124L112.087 70.7859L112.607 69.584C113.457 67.6195 115.738 66.716 117.703 67.5659C119.667 68.4158 120.571 70.6973 119.721 72.6617L119.201 73.8637L119.656 74.0605C121.369 74.8017 122.157 76.7913 121.416 78.5045C120.968 79.5399 120.033 80.2835 118.923 80.4869L116.113 81.002L117.29 81.5115C118.604 82.08 119.209 83.6062 118.64 84.9203C118.072 86.2345 116.545 86.8389 115.231 86.2704L111.682 84.735C111.826 87.3947 109.122 89.2772 106.678 88.2195L106.006 87.9291C105.273 87.6116 104.649 87.0835 104.216 86.4116L102.353 83.5238L102.114 83.7254C100.903 84.7455 99.2198 84.993 97.7669 84.3644C96.3139 83.7358 95.3416 82.3393 95.2562 80.7585L95.2509 80.6611C95.1506 78.8042 96.2467 77.0905 97.9745 76.4028L100.184 75.5233C98.503 74.0155 98.3673 71.4228 99.8717 69.7385C101.374 68.0562 103.965 67.9048 105.644 69.4109Z" stroke="#43784F"/>
</g>
<g filter="url(#filter7_i_450_830)">
<path d="M131.804 94.0645L132.688 89.7942L139.601 92.3959L135.186 98.2964L134.302 102.567L129.009 97.2864L131.804 94.0645Z" fill="#BBD765"/>
</g>
<g filter="url(#filter8_i_450_830)">
<path d="M143.295 75.1554L143.328 75.4193C145.866 74.8378 148.059 77.2666 147.221 79.7324L146.959 80.5014L147.854 80.0886C149.7 79.2362 151.887 80.0418 152.74 81.888C153.592 83.7341 152.787 85.9217 150.94 86.7741L150.046 87.1869L150.328 87.7964C151.025 89.3059 150.366 91.0946 148.856 91.7915C147.92 92.2238 146.828 92.1468 145.961 91.5874L143.691 90.1212L144.256 91.3455C144.796 92.5155 144.286 93.9018 143.116 94.442C141.946 94.9822 140.56 94.4717 140.019 93.3017L138.425 89.8489C136.968 91.7504 134.011 91.4216 133.007 89.2464L132.591 88.3451C132.29 87.6939 132.181 86.9707 132.275 86.2597L132.706 83.0274L132.524 83.018C131.016 82.94 129.676 82.0331 129.044 80.6627L128.996 80.5598C128.393 79.2527 128.563 77.7188 129.439 76.5762C130.494 75.1997 132.335 74.6916 133.947 75.3319L135.944 76.1251L135.939 76.0848C135.676 74.0098 137.182 72.1287 139.264 71.9297C141.258 71.7391 143.043 73.1676 143.295 75.1554Z" fill="#43784F"/>
</g>
<path d="M140.665 78.0007L143.328 75.4193M143.328 75.4193L143.295 75.1554C143.043 73.1676 141.258 71.7391 139.264 71.9297C137.182 72.1287 135.676 74.0098 135.939 76.0848L135.944 76.1251L133.947 75.3319C132.335 74.6916 130.494 75.1997 129.439 76.5762C128.563 77.7188 128.393 79.2527 128.996 80.5598L129.044 80.6627C129.676 82.0331 131.016 82.94 132.524 83.018L132.706 83.0274L132.275 86.2597C132.181 86.9707 132.29 87.6939 132.591 88.3451L133.007 89.2464C134.011 91.4216 136.968 91.7504 138.425 89.8489L140.019 93.3017C140.56 94.4717 141.946 94.9822 143.116 94.442C144.286 93.9018 144.796 92.5155 144.256 91.3455L143.691 90.1212L145.961 91.5874C146.828 92.1468 147.92 92.2238 148.856 91.7915C150.366 91.0946 151.025 89.3059 150.328 87.7964L150.046 87.1869L150.94 86.7741C152.787 85.9217 153.592 83.7341 152.74 81.888C151.887 80.0418 149.7 79.2362 147.854 80.0886L146.959 80.5014L147.221 79.7324C148.059 77.2666 145.866 74.8378 143.328 75.4193Z" stroke="#43784F"/>
<g filter="url(#filter9_g_450_830)">
<path d="M132.497 76.0807L134.73 76.8988C134.483 74.654 136.111 72.6315 138.355 72.3795C140.596 72.1277 142.628 73.7422 142.875 75.9842C145.618 75.3252 147.986 77.9927 147.006 80.638L146.759 81.3052L147.948 80.7563C149.892 79.859 152.194 80.707 153.092 82.6503C153.989 84.5936 153.141 86.8963 151.198 87.7936L150.009 88.3426L150.217 88.7927C150.999 90.4874 150.259 92.4955 148.565 93.278C147.541 93.7509 146.348 93.6816 145.385 93.0932L142.947 91.6029L143.485 92.7677C144.085 94.0677 143.518 95.6081 142.218 96.2083C140.918 96.8085 139.378 96.2413 138.777 94.9413L137.157 91.4307C135.49 93.5085 132.22 93.1086 131.104 90.6903L130.797 90.0261C130.462 89.3002 130.35 88.4912 130.475 87.7015L131.012 84.3073L130.699 84.298C129.117 84.2509 127.697 83.3127 127.034 81.8754C126.37 80.4381 126.577 78.7491 127.567 77.5141L127.628 77.438C128.791 75.9873 130.751 75.4411 132.497 76.0807Z" fill="#43784F" fill-opacity="0.75"/>
<path d="M139.886 78.7873L142.875 75.9842M142.875 75.9842C145.618 75.3252 147.986 77.9927 147.006 80.638L146.759 81.3052L147.948 80.7563C149.892 79.859 152.194 80.707 153.092 82.6503C153.989 84.5936 153.141 86.8963 151.198 87.7936L150.009 88.3426L150.217 88.7927C150.999 90.4874 150.259 92.4955 148.565 93.278C147.541 93.7509 146.348 93.6816 145.385 93.0932L142.947 91.6029L143.485 92.7677C144.085 94.0677 143.518 95.6081 142.218 96.2083C140.918 96.8085 139.378 96.2413 138.777 94.9413L137.157 91.4307C135.49 93.5085 132.22 93.1086 131.104 90.6903L130.797 90.0261C130.462 89.3002 130.35 88.4912 130.475 87.7015L131.012 84.3073L130.699 84.298C129.117 84.2509 127.697 83.3127 127.034 81.8754C126.37 80.4381 126.577 78.7491 127.567 77.5141L127.628 77.438C128.791 75.9873 130.751 75.4411 132.497 76.0807L134.73 76.8988C134.483 74.654 136.111 72.6315 138.355 72.3795C140.596 72.1277 142.628 73.7422 142.875 75.9842Z" stroke="#43784F"/>
</g>
<g filter="url(#filter10_i_450_830)">
<path d="M116.496 48.7368L117.302 45.2134L123.111 47.2581L119.298 52.1702L118.492 55.6936L114.088 51.4243L116.496 48.7368Z" fill="#BBD765"/>
</g>
<g filter="url(#filter11_i_450_830)">
<path d="M126.492 33.215L126.495 33.2479C128.61 32.7445 130.436 34.7946 129.693 36.8374L129.496 37.377L130.378 36.9698C131.885 36.2743 133.67 36.9316 134.365 38.438C135.061 39.9443 134.403 41.7292 132.897 42.4247L132.015 42.8318L132.19 43.2116C132.789 44.5082 132.223 46.0446 130.927 46.6432C130.139 47.007 129.221 46.9513 128.483 46.495L126.601 45.3315L127.027 46.2543C127.487 47.251 127.052 48.432 126.056 48.8922C125.059 49.3524 123.878 48.9175 123.418 47.9208L122.152 45.1797C120.882 46.7782 118.372 46.4768 117.516 44.623L117.258 44.0625C117.001 43.5062 116.913 42.8867 117.006 42.2811L117.409 39.649L117.186 39.6414C115.959 39.5995 114.86 38.8697 114.345 37.7548C113.831 36.6399 113.999 35.3156 114.763 34.3543C115.657 33.23 117.186 32.7911 118.532 33.2924L120.242 33.9293C120.045 32.1979 121.293 30.6318 123.026 30.4431C124.747 30.2555 126.296 31.4945 126.492 33.215Z" fill="#43784F"/>
</g>
<path d="M124.208 35.4069L126.495 33.2479M126.495 33.2479L126.492 33.215C126.296 31.4945 124.747 30.2555 123.026 30.4431C121.293 30.6318 120.045 32.1979 120.242 33.9293L118.532 33.2924C117.186 32.7911 115.657 33.23 114.763 34.3543C113.999 35.3156 113.831 36.6399 114.345 37.7548C114.86 38.8697 115.959 39.5995 117.186 39.6414L117.409 39.649L117.006 42.2811C116.913 42.8867 117.001 43.5062 117.258 44.0625L117.516 44.623C118.372 46.4768 120.882 46.7782 122.152 45.1797L123.418 47.9208C123.878 48.9175 125.059 49.3524 126.056 48.8922C127.052 48.432 127.487 47.251 127.027 46.2543L126.601 45.3315L128.483 46.495C129.221 46.9513 130.139 47.007 130.927 46.6432C132.223 46.0446 132.789 44.5082 132.19 43.2116L132.015 42.8318L132.897 42.4247C134.403 41.7292 135.061 39.9443 134.365 38.438C133.67 36.9316 131.885 36.2743 130.378 36.9698L129.496 37.377L129.693 36.8374C130.436 34.7946 128.61 32.7445 126.495 33.2479Z" stroke="#43784F"/>
<g filter="url(#filter12_g_450_830)">
<path d="M122.206 30.8323L122.458 30.8007C124.278 30.5729 125.928 31.8926 126.105 33.7186C128.388 33.1503 130.359 35.4006 129.495 37.5893L129.316 38.0407L130.456 37.5146C132.041 36.7825 133.92 37.4744 134.652 39.06C135.384 40.6456 134.692 42.5244 133.107 43.2565L131.968 43.7826L132.076 44.0175C132.748 45.4733 132.113 47.1985 130.657 47.8707C129.796 48.2683 128.795 48.2202 127.976 47.7418L125.952 46.56L126.352 47.4258C126.863 48.5333 126.38 49.8455 125.272 50.3568C124.165 50.8681 122.853 50.3849 122.341 49.2775L121.058 46.4977C119.608 48.2445 116.831 47.8809 115.88 45.8196L115.719 45.4723C115.433 44.8533 115.345 44.1615 115.465 43.4904L115.96 40.7246L115.621 40.7203C114.333 40.7038 113.169 39.9488 112.629 38.7794C112.089 37.61 112.269 36.2345 113.092 35.2435L113.239 35.0665C114.222 33.8825 115.835 33.4291 117.291 33.9272L119.205 34.5821C119.025 32.726 120.356 31.0638 122.206 30.8323Z" fill="#43784F" fill-opacity="0.75"/>
<path d="M123.539 36.0643L126.105 33.7186M126.105 33.7186C128.388 33.1503 130.359 35.4006 129.495 37.5893L129.316 38.0407L130.456 37.5146C132.041 36.7825 133.92 37.4744 134.652 39.06C135.384 40.6456 134.692 42.5244 133.107 43.2565L131.968 43.7826L132.076 44.0175C132.748 45.4733 132.113 47.1985 130.657 47.8707C129.796 48.2683 128.795 48.2202 127.976 47.7418L125.952 46.56L126.352 47.4258C126.863 48.5333 126.38 49.8455 125.272 50.3568C124.165 50.8681 122.853 50.3849 122.341 49.2775L121.058 46.4977C119.608 48.2444 116.831 47.8809 115.88 45.8196L115.719 45.4723C115.433 44.8533 115.345 44.1615 115.465 43.4904L115.96 40.7246L115.621 40.7203C114.333 40.7038 113.169 39.9488 112.629 38.7794C112.089 37.61 112.269 36.2345 113.092 35.2435L113.239 35.0665C114.222 33.8825 115.835 33.4291 117.291 33.9272L119.205 34.5821C119.025 32.726 120.356 31.0638 122.206 30.8323L122.458 30.8007C124.278 30.5729 125.928 31.8926 126.105 33.7186Z" stroke="#43784F"/>
</g>
<g filter="url(#filter13_i_450_830)">
<path d="M80.1267 65.126L81.0106 60.8557L87.9231 63.4574L83.5084 69.3579L82.6245 73.6283L77.3309 68.348L80.1267 65.126Z" fill="#BBD765"/>
</g>
<g filter="url(#filter14_i_450_830)">
<path d="M91.6169 46.2169L91.6502 46.4808C94.1887 45.8993 96.3809 48.3281 95.543 50.7939L95.2817 51.563L96.1759 51.1501C98.022 50.2978 100.21 51.1033 101.062 52.9495C101.914 54.7956 101.109 56.9832 99.2626 57.8356L98.3685 58.2484L98.6499 58.858C99.3469 60.3674 98.6882 62.1561 97.1787 62.8531C96.2424 63.2854 95.15 63.2083 94.2837 62.6489L92.0132 61.1827L92.5785 62.407C93.1187 63.577 92.6081 64.9634 91.4381 65.5036C90.2682 66.0437 88.8818 65.5332 88.3416 64.3632L86.7474 60.9105C85.2898 62.8119 82.3335 62.4832 81.3292 60.308L80.913 59.4066C80.6123 58.7554 80.503 58.0322 80.5976 57.3213L81.0278 54.0889L80.8462 54.0795C79.3388 54.0015 77.9987 53.0947 77.366 51.7243L77.3185 51.6214C76.7149 50.3142 76.8855 48.7803 77.7614 47.6377C78.8166 46.2613 80.6576 45.7531 82.2695 46.3935L84.266 47.1867L84.2609 47.1464C83.9987 45.0713 85.5041 43.1903 87.5862 42.9912C89.5807 42.8006 91.3657 44.2291 91.6169 46.2169Z" fill="#43784F"/>
</g>
<path d="M88.987 49.0622L91.6502 46.4808M91.6502 46.4808L91.6169 46.2169C91.3657 44.2291 89.5807 42.8006 87.5862 42.9912C85.5041 43.1903 83.9987 45.0713 84.2609 47.1464L84.266 47.1867L82.2695 46.3935C80.6576 45.7531 78.8166 46.2613 77.7614 47.6377C76.8855 48.7803 76.715 50.3142 77.3185 51.6214L77.366 51.7243C77.9987 53.0947 79.3388 54.0015 80.8462 54.0795L81.0278 54.0889L80.5976 57.3213C80.503 58.0322 80.6123 58.7554 80.913 59.4066L81.3292 60.308C82.3335 62.4832 85.2898 62.8119 86.7474 60.9105L88.3416 64.3632C88.8818 65.5332 90.2682 66.0437 91.4381 65.5036C92.6081 64.9634 93.1187 63.577 92.5785 62.407L92.0132 61.1827L94.2837 62.6489C95.15 63.2083 96.2424 63.2854 97.1787 62.8531C98.6882 62.1561 99.3469 60.3674 98.6499 58.858L98.3685 58.2484L99.2626 57.8356C101.109 56.9832 101.914 54.7956 101.062 52.9495C100.21 51.1033 98.022 50.2978 96.1759 51.1501L95.2817 51.563L95.543 50.7939C96.3809 48.3281 94.1887 45.8993 91.6502 46.4808Z" stroke="#43784F"/>
<g filter="url(#filter15_g_450_830)">
<path d="M80.8195 47.1423L83.0527 47.9603C82.8053 45.7156 84.433 43.693 86.6772 43.441C88.9188 43.1893 90.9501 44.8037 91.1972 47.0457C93.9399 46.3867 96.3081 49.0543 95.3288 51.6996L95.0817 52.3668L96.2707 51.8178C98.214 50.9206 100.517 51.7686 101.414 53.7119C102.311 55.6552 101.463 57.9579 99.5199 58.8551L98.331 59.4041L98.5388 59.8542C99.3212 61.5489 98.5817 63.557 96.887 64.3395C95.8628 64.8124 94.6701 64.7431 93.7075 64.1547L91.2695 62.6644L91.8073 63.8293C92.4075 65.1292 91.8403 66.6696 90.5403 67.2699C89.2403 67.8701 87.6999 67.3028 87.0997 66.0028L85.4788 62.4922C83.8124 64.5701 80.5423 64.1701 79.4258 61.7519L79.1191 61.0876C78.784 60.3617 78.6718 59.5527 78.7968 58.763L79.3343 55.3688L79.0215 55.3595C77.4391 55.3125 76.0195 54.3743 75.3558 52.9369C74.6922 51.4996 74.8988 49.8106 75.8893 48.5756L75.9503 48.4995C77.1138 47.0488 79.0733 46.5026 80.8195 47.1423Z" fill="#43784F" fill-opacity="0.75"/>
<path d="M88.208 49.8488L91.1972 47.0457M91.1972 47.0457C93.9399 46.3867 96.3081 49.0543 95.3288 51.6996L95.0817 52.3668L96.2707 51.8178C98.214 50.9206 100.517 51.7686 101.414 53.7119C102.311 55.6552 101.463 57.9579 99.5199 58.8551L98.331 59.4041L98.5388 59.8542C99.3212 61.5489 98.5817 63.557 96.887 64.3395C95.8628 64.8124 94.6701 64.7431 93.7075 64.1547L91.2695 62.6644L91.8073 63.8293C92.4075 65.1292 91.8403 66.6696 90.5403 67.2699C89.2403 67.8701 87.6999 67.3028 87.0997 66.0028L85.4788 62.4922C83.8124 64.5701 80.5423 64.1701 79.4258 61.7519L79.1191 61.0876C78.784 60.3617 78.6718 59.5527 78.7968 58.763L79.3343 55.3688L79.0215 55.3595C77.4391 55.3125 76.0195 54.3743 75.3558 52.9369C74.6922 51.4996 74.8988 49.8106 75.8893 48.5756L75.9503 48.4995C77.1138 47.0488 79.0733 46.5026 80.8195 47.1423L83.0527 47.9603C82.8053 45.7156 84.433 43.693 86.6772 43.441C88.9188 43.1893 90.9501 44.8037 91.1972 47.0457Z" stroke="#43784F"/>
</g>
<path d="M129.572 86.2628C133.662 87.1797 145.908 90.3829 146.28 95.9388C146.601 100.742 141.105 103.221 138 104.233C136.662 104.669 135.239 104.647 133.889 104.252C129.806 103.059 120.866 99.8727 118.529 94.325C116.091 88.5371 123.728 86.6776 126.922 86.1618C127.807 86.0188 128.696 86.0666 129.572 86.2628Z" fill="#ED9121"/>
<path d="M130.683 90.3937C133.222 90.9864 138.554 92.542 138.701 95.1783C138.816 97.2363 136.873 98.4951 135.278 99.1778C133.989 99.7294 132.547 99.7062 131.213 99.2745C128.884 98.5207 125.271 96.9873 124.245 94.5058C123.146 91.8467 126.178 90.7521 128.037 90.34C128.911 90.1461 129.811 90.19 130.683 90.3937Z" fill="#CE862F"/>
<path d="M131.409 91.8064C133.261 92.2098 136.417 93.1426 136.454 94.8192C136.481 96.0119 135.5 96.8469 134.517 97.3825C133.301 98.0453 131.854 98.0531 130.54 97.616C128.985 97.0986 127.01 96.1723 126.436 94.6974C125.801 93.0633 127.497 92.2342 128.787 91.8506C129.64 91.5973 130.54 91.6171 131.409 91.8064Z" fill="#E1AF71"/>
<path d="M82.6412 63.7799C86.7313 64.6968 98.9775 67.9 99.3492 73.4559C99.6706 78.2591 94.1746 80.7378 91.0691 81.7498C89.7318 82.1856 88.308 82.1638 86.958 81.7692C82.8751 80.5759 73.935 77.3898 71.5982 71.8421C69.1602 66.0542 76.7978 64.1947 79.991 63.6789C80.8768 63.5359 81.7656 63.5837 82.6412 63.7799Z" fill="#ED9121"/>
<path d="M82.6412 63.7799C86.7313 64.6968 98.9775 67.9 99.3492 73.4559C99.6706 78.2591 94.1746 80.7378 91.0691 81.7498C89.7318 82.1856 88.308 82.1638 86.958 81.7692C82.8751 80.5759 73.935 77.3898 71.5982 71.8421C69.1602 66.0542 76.7978 64.1947 79.991 63.6789C80.8768 63.5359 81.7656 63.5837 82.6412 63.7799Z" fill="#ED9121"/>
<path d="M83.7527 67.9108C86.291 68.5034 91.6234 70.0591 91.7702 72.6954C91.8849 74.7534 89.9424 76.0122 88.3471 76.6949C87.0582 77.2465 85.6164 77.2232 84.2826 76.7915C81.9536 76.0378 78.34 74.5044 77.3146 72.0229C76.2158 69.3638 79.2473 68.2692 81.1059 67.8571C81.9806 67.6632 82.8802 67.7071 83.7527 67.9108Z" fill="#CE862F"/>
<path d="M84.4783 69.3235C86.3301 69.7269 89.4866 70.6597 89.5236 72.3363C89.5499 73.529 88.5691 74.3639 87.5865 74.8996C86.3707 75.5624 84.9235 75.5702 83.6097 75.1331C82.0541 74.6157 80.079 73.6894 79.5055 72.2145C78.8701 70.5804 80.5659 69.7513 81.8565 69.3677C82.7089 69.1144 83.6093 69.1342 84.4783 69.3235Z" fill="#E1AF71"/>
<path d="M114.779 48.6789C118.87 49.5957 131.116 52.7989 131.487 58.3549C131.809 63.158 126.313 65.6367 123.207 66.6488C121.87 67.0846 120.446 67.0627 119.096 66.6681C115.013 65.4748 106.073 62.2887 103.736 56.741C101.298 50.9531 108.936 49.0936 112.129 48.5779C113.015 48.4348 113.904 48.4826 114.779 48.6789Z" fill="#ED9121"/>
<path d="M114.779 48.6789C118.87 49.5957 131.116 52.7989 131.487 58.3549C131.809 63.158 126.313 65.6367 123.207 66.6488C121.87 67.0846 120.446 67.0627 119.096 66.6681C115.013 65.4748 106.073 62.2887 103.736 56.741C101.298 50.9531 108.936 49.0936 112.129 48.5779C113.015 48.4348 113.904 48.4826 114.779 48.6789Z" fill="#ED9121"/>
<path d="M115.891 52.8097C118.429 53.4024 123.762 54.958 123.908 57.5944C124.023 59.6523 122.081 60.9111 120.485 61.5939C119.196 62.1454 117.755 62.1222 116.421 61.6905C114.092 60.9367 110.478 59.4033 109.453 56.9218C108.354 54.2628 111.385 53.1681 113.244 52.756C114.119 52.5621 115.018 52.606 115.891 52.8097Z" fill="#CE862F"/>
<path d="M116.616 54.2224C118.468 54.6258 121.625 55.5586 121.662 57.2352C121.688 58.4279 120.707 59.2629 119.725 59.7986C118.509 60.4613 117.062 60.4691 115.748 60.0321C114.192 59.5146 112.217 58.5884 111.644 57.1134C111.008 55.4793 112.704 54.6502 113.995 54.2667C114.847 54.0133 115.748 54.0331 116.616 54.2224Z" fill="#E1AF71"/>
<path d="M80.8266 64.6746C86.3273 67.0447 89.377 72.9805 88.1009 78.8325L87.4698 81.7261" stroke="#8A1422" stroke-width="2.5"/>
<path d="M80.1048 66.0096C84.8276 68.2868 87.4335 73.451 86.4593 78.6029L85.8946 81.5894" stroke="#D9AFB4"/>
<path d="M79.9066 66.4682C84.3416 68.6562 86.698 73.5996 85.6049 78.4226L84.9773 81.1921" stroke="#FFFAFB"/>
<path d="M145.932 104.875C151.13 101.899 157.708 103.024 161.622 107.558L163.557 109.8" stroke="#8A1422" stroke-width="2.5"/>
<path d="M146.566 106.254C151.223 103.844 156.917 104.861 160.453 108.733L162.502 110.978" stroke="#D9AFB4"/>
<path d="M146.814 106.688C151.227 104.455 156.595 105.538 159.795 109.308L161.633 111.473" stroke="#FFFAFB"/>
<path d="M96.9635 48.9287C99.7172 43.6096 105.854 40.9878 111.601 42.6751L114.443 43.5095" stroke="#8A1422" stroke-width="2.5"/>
<path d="M98.244 49.743C100.85 45.1932 106.186 42.9596 111.256 44.2961L114.195 45.0708" stroke="#D9AFB4"/>
<path d="M98.6874 49.9736C101.184 45.7046 106.282 43.7042 111.015 45.1361L113.733 45.9583" stroke="#FFFAFB"/>
<path d="M106.937 57.5246C112.922 57.2907 118.233 61.3307 119.606 67.1609L120.284 70.0437" stroke="#8A1422" stroke-width="2.5"/>
<path d="M106.861 59.0403C112.104 59.058 116.683 62.5934 118.026 67.6617L118.804 70.5997" stroke="#D9AFB4"/>
<path d="M106.88 59.5402C111.825 59.6015 116.083 63.0453 117.177 67.8681L117.805 70.6375" stroke="#FFFAFB"/>
</g>
<defs>
<filter id="filter0_i_450_830" x="281.527" y="138.845" width="133.657" height="33.2876" filterUnits="userSpaceOnUse" color-interpolation-filters="sRGB">
<feFlood flood-opacity="0" result="BackgroundImageFix"/>
<feBlend mode="normal" in="SourceGraphic" in2="BackgroundImageFix" result="shape"/>
<feColorMatrix in="SourceAlpha" type="matrix" values="0 0 0 0 0 0 0 0 0 0 0 0 0 0 0 0 0 0 127 0" result="hardAlpha"/>
<feOffset dx="-3"/>
<feGaussianBlur stdDeviation="2"/>
<feComposite in2="hardAlpha" operator="arithmetic" k2="-1" k3="1"/>
<feColorMatrix type="matrix" values="0 0 0 0 0 0 0 0 0 0 0 0 0 0 0 0 0 0 0.25 0"/>
<feBlend mode="normal" in2="shape" result="effect1_innerShadow_450_830"/>
</filter>
<filter id="filter1_i_450_830" x="254.77" y="141.239" width="33.0078" height="15.3335" filterUnits="userSpaceOnUse" color-interpolation-filters="sRGB">
<feFlood flood-opacity="0" result="BackgroundImageFix"/>
<feBlend mode="normal" in="SourceGraphic" in2="BackgroundImageFix" result="shape"/>
<feColorMatrix in="SourceAlpha" type="matrix" values="0 0 0 0 0 0 0 0 0 0 0 0 0 0 0 0 0 0 127 0" result="hardAlpha"/>
<feOffset dx="-1" dy="-1"/>
<feGaussianBlur stdDeviation="3.05"/>
<feComposite in2="hardAlpha" operator="arithmetic" k2="-1" k3="1"/>
<feColorMatrix type="matrix" values="0 0 0 0 0 0 0 0 0 0 0 0 0 0 0 0 0 0 0.25 0"/>
<feBlend mode="normal" in2="shape" result="effect1_innerShadow_450_830"/>
</filter>
<filter id="filter2_i_450_830" x="61.9067" y="60.5493" width="213.112" height="113.704" filterUnits="userSpaceOnUse" color-interpolation-filters="sRGB">
<feFlood flood-opacity="0" result="BackgroundImageFix"/>
<feBlend mode="normal" in="SourceGraphic" in2="BackgroundImageFix" result="shape"/>
<feColorMatrix in="SourceAlpha" type="matrix" values="0 0 0 0 0 0 0 0 0 0 0 0 0 0 0 0 0 0 127 0" result="hardAlpha"/>
<feOffset dx="6" dy="-5"/>
<feGaussianBlur stdDeviation="7.25"/>
<feComposite in2="hardAlpha" operator="arithmetic" k2="-1" k3="1"/>
<feColorMatrix type="matrix" values="0 0 0 0 0 0 0 0 0 0 0 0 0 0 0 0 0 0 0.25 0"/>
<feBlend mode="normal" in2="shape" result="effect1_innerShadow_450_830"/>
</filter>
<filter id="filter3_i_450_830" x="61.5474" y="59.2158" width="208.143" height="75.1729" filterUnits="userSpaceOnUse" color-interpolation-filters="sRGB">
<feFlood flood-opacity="0" result="BackgroundImageFix"/>
<feBlend mode="normal" in="SourceGraphic" in2="BackgroundImageFix" result="shape"/>
<feColorMatrix in="SourceAlpha" type="matrix" values="0 0 0 0 0 0 0 0 0 0 0 0 0 0 0 0 0 0 127 0" result="hardAlpha"/>
<feOffset dx="-1" dy="-3"/>
<feGaussianBlur stdDeviation="6.3"/>
<feComposite in2="hardAlpha" operator="arithmetic" k2="-1" k3="1"/>
<feColorMatrix type="matrix" values="0 0 0 0 0 0 0 0 0 0 0 0 0 0 0 0 0 0 0.25 0"/>
<feBlend mode="normal" in2="shape" result="effect1_innerShadow_450_830"/>
</filter>
<filter id="filter4_i_450_830" x="107.261" y="83.8242" width="9.71973" height="11.1128" filterUnits="userSpaceOnUse" color-interpolation-filters="sRGB">
<feFlood flood-opacity="0" result="BackgroundImageFix"/>
<feBlend mode="normal" in="SourceGraphic" in2="BackgroundImageFix" result="shape"/>
<feColorMatrix in="SourceAlpha" type="matrix" values="0 0 0 0 0 0 0 0 0 0 0 0 0 0 0 0 0 0 127 0" result="hardAlpha"/>
<feOffset dx="5" dy="-10"/>
<feComposite in2="hardAlpha" operator="arithmetic" k2="-1" k3="1"/>
<feColorMatrix type="matrix" values="0 0 0 0 0.262745 0 0 0 0 0.470588 0 0 0 0 0.309804 0 0 0 0.2 0"/>
<feBlend mode="normal" in2="shape" result="effect1_innerShadow_450_830"/>
</filter>
<filter id="filter5_i_450_830" x="95.5147" y="66.4287" width="27.7755" height="22.1124" filterUnits="userSpaceOnUse" color-interpolation-filters="sRGB">
<feFlood flood-opacity="0" result="BackgroundImageFix"/>
<feBlend mode="normal" in="SourceGraphic" in2="BackgroundImageFix" result="shape"/>
<feColorMatrix in="SourceAlpha" type="matrix" values="0 0 0 0 0 0 0 0 0 0 0 0 0 0 0 0 0 0 127 0" result="hardAlpha"/>
<feOffset dx="12" dy="4"/>
<feGaussianBlur stdDeviation="0.95"/>
<feComposite in2="hardAlpha" operator="arithmetic" k2="-1" k3="1"/>
<feColorMatrix type="matrix" values="0 0 0 0 0 0 0 0 0 0 0 0 0 0 0 0 0 0 0.25 0"/>
<feBlend mode="normal" in2="shape" result="effect1_innerShadow_450_830"/>
</filter>
<filter id="filter6_g_450_830" x="94.6446" y="66.6461" width="27.6502" height="22.4734" filterUnits="userSpaceOnUse" color-interpolation-filters="sRGB">
<feFlood flood-opacity="0" result="BackgroundImageFix"/>
<feBlend mode="normal" in="SourceGraphic" in2="BackgroundImageFix" result="shape"/>
<feTurbulence type="fractalNoise" baseFrequency="0.99900001287460327 0.99900001287460327" numOctaves="3" seed="4316" />
<feDisplacementMap in="shape" scale="0.20000000298023224" xChannelSelector="R" yChannelSelector="G" result="displacedImage" width="100%" height="100%" />
<feMerge result="effect1_texture_450_830">
<feMergeNode in="displacedImage"/>
</feMerge>
</filter>
<filter id="filter7_i_450_830" x="129.009" y="89.7939" width="10.5918" height="12.7729" filterUnits="userSpaceOnUse" color-interpolation-filters="sRGB">
<feFlood flood-opacity="0" result="BackgroundImageFix"/>
<feBlend mode="normal" in="SourceGraphic" in2="BackgroundImageFix" result="shape"/>
<feColorMatrix in="SourceAlpha" type="matrix" values="0 0 0 0 0 0 0 0 0 0 0 0 0 0 0 0 0 0 127 0" result="hardAlpha"/>
<feOffset dx="5" dy="-10"/>
<feComposite in2="hardAlpha" operator="arithmetic" k2="-1" k3="1"/>
<feColorMatrix type="matrix" values="0 0 0 0 0.262745 0 0 0 0 0.470588 0 0 0 0 0.309804 0 0 0 0.2 0"/>
<feBlend mode="normal" in2="shape" result="effect1_innerShadow_450_830"/>
</filter>
<filter id="filter8_i_450_830" x="128.139" y="71.4126" width="27.3404" height="25.6451" filterUnits="userSpaceOnUse" color-interpolation-filters="sRGB">
<feFlood flood-opacity="0" result="BackgroundImageFix"/>
<feBlend mode="normal" in="SourceGraphic" in2="BackgroundImageFix" result="shape"/>
<feColorMatrix in="SourceAlpha" type="matrix" values="0 0 0 0 0 0 0 0 0 0 0 0 0 0 0 0 0 0 127 0" result="hardAlpha"/>
<feOffset dx="12" dy="4"/>
<feGaussianBlur stdDeviation="0.95"/>
<feComposite in2="hardAlpha" operator="arithmetic" k2="-1" k3="1"/>
<feColorMatrix type="matrix" values="0 0 0 0 0 0 0 0 0 0 0 0 0 0 0 0 0 0 0.25 0"/>
<feBlend mode="normal" in2="shape" result="effect1_innerShadow_450_830"/>
</filter>
<filter id="filter9_g_450_830" x="126.049" y="71.7535" width="28.0008" height="25.2942" filterUnits="userSpaceOnUse" color-interpolation-filters="sRGB">
<feFlood flood-opacity="0" result="BackgroundImageFix"/>
<feBlend mode="normal" in="SourceGraphic" in2="BackgroundImageFix" result="shape"/>
<feTurbulence type="fractalNoise" baseFrequency="0.99900001287460327 0.99900001287460327" numOctaves="3" seed="4316" />
<feDisplacementMap in="shape" scale="0.20000000298023224" xChannelSelector="R" yChannelSelector="G" result="displacedImage" width="100%" height="100%" />
<feMerge result="effect1_texture_450_830">
<feMergeNode in="displacedImage"/>
</feMerge>
</filter>
<filter id="filter10_i_450_830" x="114.088" y="45.2134" width="9.02295" height="10.48" filterUnits="userSpaceOnUse" color-interpolation-filters="sRGB">
<feFlood flood-opacity="0" result="BackgroundImageFix"/>
<feBlend mode="normal" in="SourceGraphic" in2="BackgroundImageFix" result="shape"/>
<feColorMatrix in="SourceAlpha" type="matrix" values="0 0 0 0 0 0 0 0 0 0 0 0 0 0 0 0 0 0 127 0" result="hardAlpha"/>
<feOffset dx="5" dy="-10"/>
<feComposite in2="hardAlpha" operator="arithmetic" k2="-1" k3="1"/>
<feColorMatrix type="matrix" values="0 0 0 0 0.262745 0 0 0 0 0.470588 0 0 0 0 0.309804 0 0 0 0.2 0"/>
<feBlend mode="normal" in2="shape" result="effect1_innerShadow_450_830"/>
</filter>
<filter id="filter11_i_450_830" x="113.55" y="29.9243" width="23.4928" height="21.5514" filterUnits="userSpaceOnUse" color-interpolation-filters="sRGB">
<feFlood flood-opacity="0" result="BackgroundImageFix"/>
<feBlend mode="normal" in="SourceGraphic" in2="BackgroundImageFix" result="shape"/>
<feColorMatrix in="SourceAlpha" type="matrix" values="0 0 0 0 0 0 0 0 0 0 0 0 0 0 0 0 0 0 127 0" result="hardAlpha"/>
<feOffset dx="12" dy="4"/>
<feGaussianBlur stdDeviation="0.95"/>
<feComposite in2="hardAlpha" operator="arithmetic" k2="-1" k3="1"/>
<feColorMatrix type="matrix" values="0 0 0 0 0 0 0 0 0 0 0 0 0 0 0 0 0 0 0.25 0"/>
<feBlend mode="normal" in2="shape" result="effect1_innerShadow_450_830"/>
</filter>
<filter id="filter12_g_450_830" x="111.721" y="30.1749" width="23.823" height="20.9861" filterUnits="userSpaceOnUse" color-interpolation-filters="sRGB">
<feFlood flood-opacity="0" result="BackgroundImageFix"/>
<feBlend mode="normal" in="SourceGraphic" in2="BackgroundImageFix" result="shape"/>
<feTurbulence type="fractalNoise" baseFrequency="0.99900001287460327 0.99900001287460327" numOctaves="3" seed="4316" />
<feDisplacementMap in="shape" scale="0.20000000298023224" xChannelSelector="R" yChannelSelector="G" result="displacedImage" width="100%" height="100%" />
<feMerge result="effect1_texture_450_830">
<feMergeNode in="displacedImage"/>
</feMerge>
</filter>
<filter id="filter13_i_450_830" x="77.3311" y="60.8555" width="10.5918" height="12.7729" filterUnits="userSpaceOnUse" color-interpolation-filters="sRGB">
<feFlood flood-opacity="0" result="BackgroundImageFix"/>
<feBlend mode="normal" in="SourceGraphic" in2="BackgroundImageFix" result="shape"/>
<feColorMatrix in="SourceAlpha" type="matrix" values="0 0 0 0 0 0 0 0 0 0 0 0 0 0 0 0 0 0 127 0" result="hardAlpha"/>
<feOffset dx="5" dy="-10"/>
<feComposite in2="hardAlpha" operator="arithmetic" k2="-1" k3="1"/>
<feColorMatrix type="matrix" values="0 0 0 0 0.262745 0 0 0 0 0.470588 0 0 0 0 0.309804 0 0 0 0.2 0"/>
<feBlend mode="normal" in2="shape" result="effect1_innerShadow_450_830"/>
</filter>
<filter id="filter14_i_450_830" x="76.4614" y="42.4741" width="27.3404" height="25.6451" filterUnits="userSpaceOnUse" color-interpolation-filters="sRGB">
<feFlood flood-opacity="0" result="BackgroundImageFix"/>
<feBlend mode="normal" in="SourceGraphic" in2="BackgroundImageFix" result="shape"/>
<feColorMatrix in="SourceAlpha" type="matrix" values="0 0 0 0 0 0 0 0 0 0 0 0 0 0 0 0 0 0 127 0" result="hardAlpha"/>
<feOffset dx="12" dy="4"/>
<feGaussianBlur stdDeviation="0.95"/>
<feComposite in2="hardAlpha" operator="arithmetic" k2="-1" k3="1"/>
<feColorMatrix type="matrix" values="0 0 0 0 0 0 0 0 0 0 0 0 0 0 0 0 0 0 0.25 0"/>
<feBlend mode="normal" in2="shape" result="effect1_innerShadow_450_830"/>
</filter>
<filter id="filter15_g_450_830" x="74.3712" y="42.815" width="28.0008" height="25.2942" filterUnits="userSpaceOnUse" color-interpolation-filters="sRGB">
<feFlood flood-opacity="0" result="BackgroundImageFix"/>
<feBlend mode="normal" in="SourceGraphic" in2="BackgroundImageFix" result="shape"/>
<feTurbulence type="fractalNoise" baseFrequency="0.99900001287460327 0.99900001287460327" numOctaves="3" seed="4316" />
<feDisplacementMap in="shape" scale="0.20000000298023224" xChannelSelector="R" yChannelSelector="G" result="displacedImage" width="100%" height="100%" />
<feMerge result="effect1_texture_450_830">
<feMergeNode in="displacedImage"/>
</feMerge>
</filter>
<clipPath id="clip0_450_830">
<rect width="407" height="249" fill="white" transform="translate(30.2969) rotate(6.98874)"/>
</clipPath>
</defs>
</svg>
