<svg width="446" height="320" viewBox="0 0 446 320" fill="none" xmlns="http://www.w3.org/2000/svg">
<g filter="url(#filter0_i_450_788)">
<path d="M288.796 144.633L288.925 128.865L406.714 111.822C407.677 111.682 408.657 111.728 409.602 111.957L412.621 112.687C417.625 113.898 419.007 120.36 414.936 123.511C414.124 124.139 413.168 124.554 412.156 124.717L288.796 144.633Z" fill="#E8A020"/>
</g>
<g filter="url(#filter1_i_450_788)">
<path d="M262.202 155.915L266.72 139.451L288.882 134.133L288.853 137.633L273.821 141.51L273.744 150.843L262.202 155.915Z" fill="#83919E"/>
</g>
<g filter="url(#filter2_i_450_788)">
<path d="M266.92 129.453L51.9268 127.689L57.0649 148.251C62.5906 170.364 82.3714 185.941 105.163 186.128L212.732 187.01C235.523 187.197 255.557 171.947 261.445 149.928L266.92 129.453Z" fill="#9AAAB8"/>
</g>
<path d="M266.92 129.453L51.9268 127.689L57.0649 148.251C62.5906 170.364 82.3714 185.941 105.163 186.128L212.732 187.01C235.523 187.197 255.557 171.947 261.445 149.928L266.92 129.453Z" stroke="#9AAAB8"/>
<g filter="url(#filter3_i_450_788)">
<ellipse cx="159.15" cy="127.406" rx="108.5" ry="16" transform="rotate(-0.0218019 159.15 127.406)" fill="#D9D9D9"/>
</g>
<g filter="url(#filter4_i_450_788)">
<path d="M102.697 136.841L99.4723 133.905L105.232 129.281L108.061 136.086L111.286 139.022L104.046 140.888L102.697 136.841Z" fill="#BBD765"/>
</g>
<g filter="url(#filter5_i_450_788)">
<path d="M92.2771 117.321L92.5212 117.427C93.3137 114.946 96.5204 114.297 98.2156 116.274L98.7444 116.89L98.8445 115.911C99.0513 113.888 100.859 112.416 102.882 112.622C104.904 112.829 106.377 114.637 106.17 116.659L106.07 117.639L106.738 117.707C108.392 117.877 109.596 119.354 109.426 121.008C109.322 122.034 108.699 122.935 107.776 123.396L105.358 124.603L106.7 124.74C107.982 124.871 108.915 126.017 108.784 127.299C108.652 128.581 107.507 129.514 106.225 129.383L102.442 128.996C103.336 131.219 101.547 133.595 99.1635 133.352L98.1759 133.251C97.4624 133.178 96.7843 132.904 96.2206 132.46L93.6581 130.443L93.5575 130.595C92.7226 131.853 91.2596 132.544 89.7581 132.39L89.6453 132.379C88.2131 132.232 86.9799 131.304 86.4427 129.969C85.7956 128.359 86.296 126.516 87.6681 125.455L89.3676 124.141L89.3303 124.125C87.411 123.294 86.559 121.04 87.4482 119.147C88.3 117.334 90.4385 116.525 92.2771 117.321Z" fill="#43784F"/>
</g>
<path d="M93.3862 121.034L92.5212 117.427M92.5212 117.427L92.2771 117.321C90.4385 116.525 88.3 117.334 87.4482 119.147C86.559 121.04 87.411 123.294 89.3303 124.125L89.3676 124.141L87.6681 125.455C86.296 126.516 85.7956 128.359 86.4427 129.969C86.9799 131.304 88.2131 132.232 89.6453 132.379L89.7581 132.39C91.2596 132.544 92.7226 131.853 93.5575 130.595L93.6581 130.443L96.2206 132.46C96.7843 132.904 97.4624 133.178 98.1759 133.251L99.1635 133.352C101.547 133.595 103.336 131.219 102.442 128.996L106.225 129.383C107.507 129.514 108.652 128.581 108.784 127.299C108.915 126.017 107.982 124.871 106.7 124.74L105.358 124.603L107.776 123.396C108.699 122.935 109.322 122.034 109.426 121.008C109.596 119.354 108.392 117.877 106.738 117.707L106.07 117.639L106.17 116.659C106.377 114.637 104.904 112.829 102.882 112.622C100.859 112.416 99.0513 113.888 98.8445 115.911L98.7444 116.89L98.2156 116.274C96.5204 114.297 93.3137 114.946 92.5212 117.427Z" stroke="#43784F"/>
<g filter="url(#filter6_g_450_788)">
<path d="M87.5739 127.085L89.4153 125.579C87.3576 124.649 86.4461 122.218 87.3723 120.158C88.2973 118.101 90.7213 117.175 92.7766 118.105C93.6064 115.409 97.1082 114.729 98.8858 116.92L99.3342 117.472L99.4674 116.169C99.685 114.04 101.588 112.49 103.717 112.708C105.846 112.925 107.396 114.828 107.178 116.957L107.045 118.26L107.538 118.311C109.395 118.5 110.747 120.16 110.557 122.016C110.442 123.139 109.775 124.13 108.779 124.659L106.254 125.998L107.531 126.128C108.955 126.274 109.992 127.546 109.846 128.971C109.701 130.395 108.428 131.432 107.003 131.286L103.157 130.893C104.096 133.386 102.086 135.996 99.4366 135.725L98.7088 135.651C97.9134 135.569 97.1601 135.254 96.5442 134.744L93.897 132.553L93.7297 132.817C92.8832 134.155 91.3527 134.899 89.7778 134.738C88.2029 134.577 86.8546 133.539 86.2963 132.057L86.2619 131.966C85.6061 130.226 86.1341 128.262 87.5739 127.085Z" fill="#43784F" fill-opacity="0.75"/>
<path d="M93.6663 122.105L92.7766 118.105M92.7766 118.105C93.6064 115.409 97.1082 114.729 98.8858 116.92L99.3342 117.472L99.4674 116.169C99.685 114.04 101.588 112.49 103.717 112.708C105.846 112.925 107.396 114.828 107.178 116.957L107.045 118.26L107.538 118.311C109.395 118.5 110.747 120.16 110.557 122.016C110.442 123.139 109.775 124.13 108.779 124.659L106.254 125.998L107.531 126.128C108.955 126.274 109.992 127.546 109.846 128.971C109.701 130.395 108.428 131.432 107.003 131.286L103.157 130.893C104.096 133.386 102.086 135.996 99.4366 135.725L98.7088 135.651C97.9134 135.569 97.1601 135.254 96.5442 134.744L93.897 132.553L93.7297 132.817C92.8832 134.155 91.3527 134.899 89.7778 134.738C88.2029 134.577 86.8546 133.539 86.2963 132.057L86.2619 131.966C85.6061 130.226 86.1341 128.262 87.5739 127.085L89.4153 125.579C87.3576 124.649 86.4461 122.218 87.3723 120.158C88.2973 118.101 90.7213 117.175 92.7766 118.105Z" stroke="#43784F"/>
</g>
<g filter="url(#filter7_i_450_788)">
<path d="M125.155 133.717L124.71 129.379L132.085 129.774L129.656 136.732L130.102 141.07L123.462 137.633L125.155 133.717Z" fill="#BBD765"/>
</g>
<g filter="url(#filter8_i_450_788)">
<path d="M130.406 112.223L130.517 112.465C132.762 111.144 135.585 112.799 135.53 115.402L135.513 116.215L136.241 115.551C137.744 114.182 140.072 114.29 141.442 115.793C142.812 117.296 142.704 119.624 141.201 120.994L140.473 121.657L140.925 122.153C142.045 123.382 141.956 125.286 140.727 126.406C139.965 127.101 138.9 127.357 137.906 127.085L135.299 126.372L136.207 127.369C137.075 128.321 137.006 129.797 136.054 130.665C135.101 131.533 133.626 131.465 132.758 130.512L130.196 127.701C129.38 129.954 126.462 130.532 124.849 128.761L124.18 128.028C123.697 127.497 123.374 126.841 123.25 126.134L122.685 122.923L122.509 122.969C121.048 123.349 119.497 122.889 118.48 121.773L118.404 121.689C117.434 120.625 117.134 119.111 117.625 117.758C118.215 116.127 119.817 115.087 121.547 115.211L123.69 115.365L123.673 115.328C122.797 113.429 123.665 111.182 125.59 110.364C127.434 109.58 129.567 110.404 130.406 112.223Z" fill="#43784F"/>
</g>
<path d="M128.757 115.729L130.517 112.465M130.517 112.465L130.406 112.223C129.567 110.404 127.434 109.58 125.59 110.364C123.665 111.182 122.797 113.429 123.673 115.328L123.69 115.365L121.547 115.211C119.817 115.087 118.215 116.127 117.625 117.758C117.134 119.111 117.434 120.625 118.404 121.689L118.48 121.773C119.497 122.889 121.048 123.349 122.509 122.969L122.685 122.923L123.25 126.134C123.374 126.841 123.697 127.497 124.18 128.028L124.849 128.761C126.462 130.532 129.38 129.954 130.196 127.701L132.758 130.512C133.626 131.465 135.101 131.533 136.054 130.665C137.006 129.797 137.075 128.321 136.207 127.369L135.299 126.372L137.906 127.085C138.9 127.357 139.965 127.101 140.727 126.406C141.956 125.286 142.045 123.382 140.925 122.153L140.473 121.657L141.201 120.994C142.704 119.624 142.812 117.296 141.442 115.793C140.072 114.29 137.744 114.182 136.241 115.551L135.513 116.215L135.53 115.402C135.585 112.799 132.762 111.144 130.517 112.465Z" stroke="#43784F"/>
<g filter="url(#filter9_g_450_788)">
<path d="M120.391 116.363L122.767 116.469C121.854 114.403 122.795 111.984 124.859 111.067C126.92 110.151 129.344 111.077 130.256 113.14C132.672 111.684 135.735 113.513 135.599 116.331L135.565 117.041L136.533 116.159C138.115 114.717 140.566 114.831 142.008 116.413C143.449 117.995 143.336 120.447 141.753 121.888L140.786 122.77L141.119 123.137C142.377 124.517 142.277 126.654 140.898 127.911C140.064 128.671 138.906 128.965 137.811 128.694L135.037 128.009L135.901 128.957C136.865 130.016 136.789 131.656 135.731 132.62C134.672 133.584 133.033 133.508 132.068 132.45L129.464 129.592C128.502 132.076 125.264 132.681 123.469 130.712L122.977 130.171C122.438 129.58 122.087 128.843 121.968 128.052L121.457 124.654L121.156 124.74C119.633 125.172 117.996 124.706 116.93 123.536C115.864 122.366 115.551 120.693 116.123 119.217L116.158 119.126C116.83 117.392 118.533 116.28 120.391 116.363Z" fill="#43784F" fill-opacity="0.75"/>
<path d="M128.252 116.714L130.256 113.14M130.256 113.14C132.672 111.684 135.735 113.513 135.599 116.331L135.565 117.041L136.533 116.159C138.115 114.717 140.566 114.831 142.008 116.413C143.449 117.995 143.336 120.447 141.753 121.888L140.786 122.77L141.119 123.137C142.377 124.517 142.277 126.654 140.898 127.911C140.064 128.671 138.906 128.965 137.811 128.694L135.037 128.009L135.901 128.957C136.865 130.016 136.789 131.656 135.731 132.62C134.672 133.584 133.033 133.508 132.068 132.45L129.464 129.592C128.502 132.076 125.264 132.681 123.469 130.712L122.977 130.171C122.438 129.58 122.087 128.843 121.968 128.052L121.457 124.654L121.156 124.74C119.633 125.172 117.996 124.706 116.93 123.536C115.864 122.366 115.551 120.693 116.123 119.217L116.158 119.126C116.83 117.392 118.533 116.28 120.391 116.363L122.767 116.469C121.854 114.403 122.795 111.984 124.859 111.067C126.92 110.151 129.344 111.077 130.256 113.14Z" stroke="#43784F"/>
</g>
<g filter="url(#filter10_i_450_788)">
<path d="M67.1555 121.717L66.7099 117.379L74.0852 117.774L71.6563 124.732L72.1019 129.07L65.4619 125.633L67.1555 121.717Z" fill="#BBD765"/>
</g>
<g filter="url(#filter11_i_450_788)">
<path d="M72.4059 100.223L72.5173 100.465C74.7621 99.1445 77.5849 100.799 77.53 103.402L77.5129 104.215L78.2408 103.551C79.7438 102.182 82.0725 102.29 83.4421 103.793C84.8117 105.296 84.7036 107.624 83.2006 108.994L82.4727 109.657L82.9249 110.153C84.0447 111.382 83.9564 113.286 82.7274 114.406C81.9652 115.101 80.9004 115.357 79.9057 115.085L77.2987 114.372L78.207 115.369C79.075 116.321 79.0065 117.797 78.054 118.665C77.1015 119.533 75.6257 119.465 74.7577 118.512L72.1961 115.701C71.38 117.954 68.4623 118.532 66.8486 116.761L66.1799 116.028C65.6968 115.497 65.3743 114.841 65.25 114.134L64.685 110.923L64.509 110.969C63.0484 111.349 61.4971 110.889 60.4805 109.773L60.4041 109.689C59.4344 108.625 59.1343 107.111 59.6247 105.758C60.2154 104.127 61.8174 103.087 63.5473 103.211L65.6901 103.365L65.6731 103.328C64.7971 101.429 65.6648 99.1817 67.5899 98.3638C69.4339 97.5803 71.5668 98.4038 72.4059 100.223Z" fill="#43784F"/>
</g>
<path d="M70.757 103.729L72.5173 100.465M72.5173 100.465L72.4059 100.223C71.5668 98.4038 69.4339 97.5803 67.5899 98.3638C65.6648 99.1817 64.7971 101.429 65.6731 103.328L65.6901 103.365L63.5473 103.211C61.8174 103.087 60.2154 104.127 59.6247 105.758C59.1343 107.111 59.4344 108.625 60.4041 109.689L60.4805 109.773C61.4971 110.889 63.0484 111.349 64.509 110.969L64.685 110.923L65.25 114.134C65.3743 114.841 65.6968 115.497 66.1799 116.028L66.8486 116.761C68.4623 118.532 71.38 117.954 72.1961 115.701L74.7577 118.512C75.6257 119.465 77.1015 119.533 78.054 118.665C79.0065 117.797 79.075 116.321 78.207 115.369L77.2987 114.372L79.9057 115.085C80.9004 115.357 81.9652 115.101 82.7274 114.406C83.9564 113.286 84.0447 111.382 82.9249 110.153L82.4727 109.657L83.2006 108.994C84.7036 107.624 84.8117 105.296 83.4421 103.793C82.0725 102.29 79.7438 102.182 78.2408 103.551L77.5129 104.215L77.53 103.402C77.5849 100.799 74.7621 99.1445 72.5173 100.465Z" stroke="#43784F"/>
<g filter="url(#filter12_g_450_788)">
<path d="M62.3907 104.363L64.7667 104.469C63.8536 102.403 64.7953 99.9841 66.859 99.0668C68.9201 98.1506 71.3438 99.077 72.2558 101.14C74.6719 99.6843 77.7345 101.513 77.5989 104.331L77.5647 105.041L78.5326 104.159C80.1147 102.717 82.566 102.831 84.0077 104.413C85.4494 105.995 85.3356 108.447 83.7535 109.888L82.7855 110.77L83.1195 111.137C84.3767 112.517 84.2775 114.654 82.8978 115.911C82.064 116.671 80.9059 116.965 79.8107 116.694L77.0367 116.009L77.9009 116.957C78.8653 118.016 78.7892 119.656 77.7308 120.62C76.6725 121.584 75.0327 121.508 74.0683 120.45L71.4638 117.592C70.5019 120.076 67.2635 120.681 65.4695 118.712L64.9767 118.171C64.4382 117.58 64.0872 116.843 63.9681 116.052L63.4566 112.654L63.1556 112.74C61.6327 113.172 59.9962 112.706 58.9298 111.536C57.8635 110.366 57.5509 108.693 58.1227 107.217L58.1579 107.126C58.8295 105.392 60.533 104.28 62.3907 104.363Z" fill="#43784F" fill-opacity="0.75"/>
<path d="M70.2515 104.714L72.2558 101.14M72.2558 101.14C74.6719 99.6843 77.7345 101.513 77.5989 104.331L77.5647 105.041L78.5326 104.159C80.1147 102.717 82.566 102.831 84.0077 104.413C85.4494 105.995 85.3356 108.447 83.7535 109.888L82.7855 110.77L83.1195 111.137C84.3767 112.517 84.2775 114.654 82.8978 115.911C82.064 116.671 80.9059 116.965 79.8107 116.694L77.0367 116.009L77.9009 116.957C78.8653 118.016 78.7892 119.656 77.7308 120.62C76.6725 121.584 75.0327 121.508 74.0683 120.45L71.4638 117.592C70.5019 120.076 67.2635 120.681 65.4695 118.712L64.9767 118.171C64.4382 117.58 64.0872 116.843 63.9681 116.052L63.4566 112.654L63.1556 112.74C61.6327 113.172 59.9962 112.706 58.9298 111.536C57.8635 110.366 57.5509 108.693 58.1227 107.217L58.1579 107.126C58.8295 105.392 60.533 104.28 62.3907 104.363L64.7667 104.469C63.8536 102.403 64.7953 99.9841 66.859 99.0668C68.9201 98.1506 71.3438 99.077 72.2558 101.14Z" stroke="#43784F"/>
</g>
<path d="M120.674 126.953C124.85 126.593 137.492 125.953 139.523 131.138C141.278 135.62 136.786 139.641 134.13 141.543C132.987 142.362 131.623 142.771 130.217 142.802C125.964 142.896 116.479 142.555 112.578 137.971C108.507 133.188 115.228 129.111 118.117 127.656C118.918 127.253 119.78 127.03 120.674 126.953Z" fill="#ED9121"/>
<path d="M122.98 130.556C125.579 130.356 131.132 130.23 132.067 132.699C132.797 134.627 131.325 136.413 130.01 137.545C128.948 138.46 127.566 138.873 126.164 138.863C123.716 138.847 119.808 138.476 118.082 136.419C116.232 134.215 118.792 132.257 120.44 131.304C121.216 130.855 122.086 130.625 122.98 130.556Z" fill="#CE862F"/>
<path d="M124.098 131.684C125.985 131.51 129.276 131.447 129.817 133.034C130.202 134.163 129.519 135.255 128.744 136.062C127.785 137.061 126.407 137.505 125.023 137.485C123.383 137.461 121.221 137.173 120.229 135.94C119.13 134.574 120.497 133.272 121.612 132.517C122.348 132.018 123.213 131.765 124.098 131.684Z" fill="#E1AF71"/>
<path d="M69.147 119.676C73.3232 119.316 85.9651 118.675 87.9957 123.86C89.7511 128.343 85.259 132.364 82.6035 134.266C81.46 135.085 80.0959 135.493 78.6898 135.524C74.4371 135.618 64.9523 135.278 61.0507 130.694C56.9802 125.911 63.701 121.834 66.5898 120.379C67.3912 119.975 68.253 119.753 69.147 119.676Z" fill="#ED9121"/>
<path d="M71.4529 123.279C74.0518 123.078 79.605 122.953 80.5404 125.422C81.2705 127.349 79.7984 129.136 78.4833 130.268C77.4209 131.183 76.0393 131.595 74.6374 131.586C72.1895 131.57 68.2816 131.198 66.5554 129.142C64.7056 126.938 67.2656 124.98 68.9133 124.026C69.6887 123.578 70.5596 123.348 71.4529 123.279Z" fill="#CE862F"/>
<path d="M72.5712 124.406C74.4585 124.232 77.7493 124.169 78.2904 125.757C78.6753 126.886 77.9922 127.978 77.2169 128.785C76.2577 129.784 74.8803 130.228 73.4958 130.207C71.8566 130.183 69.6941 129.896 68.7023 128.663C67.6035 127.297 68.9702 125.995 70.085 125.24C70.8213 124.741 71.6857 124.488 72.5712 124.406Z" fill="#E1AF71"/>
<path d="M67.6869 121.076C73.6463 121.676 78.3447 126.415 78.8935 132.38L79.1648 135.329" stroke="#8A1422" stroke-width="2.5"/>
<path d="M67.4018 122.566C72.5916 123.312 76.634 127.45 77.2595 132.656L77.6221 135.673" stroke="#D9AFB4"/>
<path d="M67.3508 123.064C72.2392 123.812 75.9771 127.814 76.39 132.742L76.6271 135.572" stroke="#FFFAFB"/>
<path d="M141.887 139.762C145.945 135.357 152.555 134.445 157.655 137.587L160.176 139.14" stroke="#8A1422" stroke-width="2.5"/>
<path d="M142.907 140.885C146.62 137.183 152.356 136.434 156.895 139.059L159.525 140.581" stroke="#D9AFB4"/>
<path d="M143.274 141.224C146.808 137.764 152.252 137.178 156.441 139.806L158.847 141.316" stroke="#FFFAFB"/>
<path d="M90.4234 106.382C96.059 104.354 102.342 106.603 105.409 111.747L106.926 114.291" stroke="#8A1422" stroke-width="2.5"/>
<path d="M90.8088 107.85C95.813 106.285 101.245 108.275 104.054 112.702L105.683 115.268" stroke="#D9AFB4"/>
<path d="M90.9775 108.321C95.7105 106.887 100.809 108.886 103.307 113.154L104.741 115.605" stroke="#FFFAFB"/>
<defs>
<filter id="filter0_i_450_788" x="285.796" y="111.743" width="131.525" height="32.8896" filterUnits="userSpaceOnUse" color-interpolation-filters="sRGB">
<feFlood flood-opacity="0" result="BackgroundImageFix"/>
<feBlend mode="normal" in="SourceGraphic" in2="BackgroundImageFix" result="shape"/>
<feColorMatrix in="SourceAlpha" type="matrix" values="0 0 0 0 0 0 0 0 0 0 0 0 0 0 0 0 0 0 127 0" result="hardAlpha"/>
<feOffset dx="-3"/>
<feGaussianBlur stdDeviation="2"/>
<feComposite in2="hardAlpha" operator="arithmetic" k2="-1" k3="1"/>
<feColorMatrix type="matrix" values="0 0 0 0 0 0 0 0 0 0 0 0 0 0 0 0 0 0 0.25 0"/>
<feBlend mode="normal" in2="shape" result="effect1_innerShadow_450_788"/>
</filter>
<filter id="filter1_i_450_788" x="261.202" y="133.133" width="27.6797" height="22.7817" filterUnits="userSpaceOnUse" color-interpolation-filters="sRGB">
<feFlood flood-opacity="0" result="BackgroundImageFix"/>
<feBlend mode="normal" in="SourceGraphic" in2="BackgroundImageFix" result="shape"/>
<feColorMatrix in="SourceAlpha" type="matrix" values="0 0 0 0 0 0 0 0 0 0 0 0 0 0 0 0 0 0 127 0" result="hardAlpha"/>
<feOffset dx="-1" dy="-1"/>
<feGaussianBlur stdDeviation="3.05"/>
<feComposite in2="hardAlpha" operator="arithmetic" k2="-1" k3="1"/>
<feColorMatrix type="matrix" values="0 0 0 0 0 0 0 0 0 0 0 0 0 0 0 0 0 0 0.25 0"/>
<feBlend mode="normal" in2="shape" result="effect1_innerShadow_450_788"/>
</filter>
<filter id="filter2_i_450_788" x="51.2852" y="122.184" width="222.284" height="65.3281" filterUnits="userSpaceOnUse" color-interpolation-filters="sRGB">
<feFlood flood-opacity="0" result="BackgroundImageFix"/>
<feBlend mode="normal" in="SourceGraphic" in2="BackgroundImageFix" result="shape"/>
<feColorMatrix in="SourceAlpha" type="matrix" values="0 0 0 0 0 0 0 0 0 0 0 0 0 0 0 0 0 0 127 0" result="hardAlpha"/>
<feOffset dx="6" dy="-5"/>
<feGaussianBlur stdDeviation="7.25"/>
<feComposite in2="hardAlpha" operator="arithmetic" k2="-1" k3="1"/>
<feColorMatrix type="matrix" values="0 0 0 0 0 0 0 0 0 0 0 0 0 0 0 0 0 0 0.25 0"/>
<feBlend mode="normal" in2="shape" result="effect1_innerShadow_450_788"/>
</filter>
<filter id="filter3_i_450_788" x="49.6494" y="108.405" width="218" height="35.0005" filterUnits="userSpaceOnUse" color-interpolation-filters="sRGB">
<feFlood flood-opacity="0" result="BackgroundImageFix"/>
<feBlend mode="normal" in="SourceGraphic" in2="BackgroundImageFix" result="shape"/>
<feColorMatrix in="SourceAlpha" type="matrix" values="0 0 0 0 0 0 0 0 0 0 0 0 0 0 0 0 0 0 127 0" result="hardAlpha"/>
<feOffset dx="-1" dy="-3"/>
<feGaussianBlur stdDeviation="6.3"/>
<feComposite in2="hardAlpha" operator="arithmetic" k2="-1" k3="1"/>
<feColorMatrix type="matrix" values="0 0 0 0 0 0 0 0 0 0 0 0 0 0 0 0 0 0 0.25 0"/>
<feBlend mode="normal" in2="shape" result="effect1_innerShadow_450_788"/>
</filter>
<filter id="filter4_i_450_788" x="99.4722" y="129.281" width="11.814" height="11.6064" filterUnits="userSpaceOnUse" color-interpolation-filters="sRGB">
<feFlood flood-opacity="0" result="BackgroundImageFix"/>
<feBlend mode="normal" in="SourceGraphic" in2="BackgroundImageFix" result="shape"/>
<feColorMatrix in="SourceAlpha" type="matrix" values="0 0 0 0 0 0 0 0 0 0 0 0 0 0 0 0 0 0 127 0" result="hardAlpha"/>
<feOffset dx="5" dy="-10"/>
<feComposite in2="hardAlpha" operator="arithmetic" k2="-1" k3="1"/>
<feColorMatrix type="matrix" values="0 0 0 0 0.262745 0 0 0 0 0.470588 0 0 0 0 0.309804 0 0 0 0.2 0"/>
<feBlend mode="normal" in2="shape" result="effect1_innerShadow_450_788"/>
</filter>
<filter id="filter5_i_450_788" x="85.6626" y="112.103" width="26.1798" height="23.6661" filterUnits="userSpaceOnUse" color-interpolation-filters="sRGB">
<feFlood flood-opacity="0" result="BackgroundImageFix"/>
<feBlend mode="normal" in="SourceGraphic" in2="BackgroundImageFix" result="shape"/>
<feColorMatrix in="SourceAlpha" type="matrix" values="0 0 0 0 0 0 0 0 0 0 0 0 0 0 0 0 0 0 127 0" result="hardAlpha"/>
<feOffset dx="12" dy="4"/>
<feGaussianBlur stdDeviation="0.95"/>
<feComposite in2="hardAlpha" operator="arithmetic" k2="-1" k3="1"/>
<feColorMatrix type="matrix" values="0 0 0 0 0 0 0 0 0 0 0 0 0 0 0 0 0 0 0.25 0"/>
<feBlend mode="normal" in2="shape" result="effect1_innerShadow_450_788"/>
</filter>
<filter id="filter6_g_450_788" x="85.3834" y="112.088" width="25.7913" height="24.2571" filterUnits="userSpaceOnUse" color-interpolation-filters="sRGB">
<feFlood flood-opacity="0" result="BackgroundImageFix"/>
<feBlend mode="normal" in="SourceGraphic" in2="BackgroundImageFix" result="shape"/>
<feTurbulence type="fractalNoise" baseFrequency="0.99900001287460327 0.99900001287460327" numOctaves="3" seed="4316" />
<feDisplacementMap in="shape" scale="0.20000000298023224" xChannelSelector="R" yChannelSelector="G" result="displacedImage" width="100%" height="100%" />
<feMerge result="effect1_texture_450_788">
<feMergeNode in="displacedImage"/>
</feMerge>
</filter>
<filter id="filter7_i_450_788" x="123.462" y="129.379" width="8.62354" height="11.6904" filterUnits="userSpaceOnUse" color-interpolation-filters="sRGB">
<feFlood flood-opacity="0" result="BackgroundImageFix"/>
<feBlend mode="normal" in="SourceGraphic" in2="BackgroundImageFix" result="shape"/>
<feColorMatrix in="SourceAlpha" type="matrix" values="0 0 0 0 0 0 0 0 0 0 0 0 0 0 0 0 0 0 127 0" result="hardAlpha"/>
<feOffset dx="5" dy="-10"/>
<feComposite in2="hardAlpha" operator="arithmetic" k2="-1" k3="1"/>
<feColorMatrix type="matrix" values="0 0 0 0 0.262745 0 0 0 0 0.470588 0 0 0 0 0.309804 0 0 0 0.2 0"/>
<feBlend mode="normal" in2="shape" result="effect1_innerShadow_450_788"/>
</filter>
<filter id="filter8_i_450_788" x="116.893" y="109.567" width="27.9098" height="24.1065" filterUnits="userSpaceOnUse" color-interpolation-filters="sRGB">
<feFlood flood-opacity="0" result="BackgroundImageFix"/>
<feBlend mode="normal" in="SourceGraphic" in2="BackgroundImageFix" result="shape"/>
<feColorMatrix in="SourceAlpha" type="matrix" values="0 0 0 0 0 0 0 0 0 0 0 0 0 0 0 0 0 0 127 0" result="hardAlpha"/>
<feOffset dx="12" dy="4"/>
<feGaussianBlur stdDeviation="0.95"/>
<feComposite in2="hardAlpha" operator="arithmetic" k2="-1" k3="1"/>
<feColorMatrix type="matrix" values="0 0 0 0 0 0 0 0 0 0 0 0 0 0 0 0 0 0 0.25 0"/>
<feBlend mode="normal" in2="shape" result="effect1_innerShadow_450_788"/>
</filter>
<filter id="filter9_g_450_788" x="115.241" y="110.113" width="28.3777" height="23.783" filterUnits="userSpaceOnUse" color-interpolation-filters="sRGB">
<feFlood flood-opacity="0" result="BackgroundImageFix"/>
<feBlend mode="normal" in="SourceGraphic" in2="BackgroundImageFix" result="shape"/>
<feTurbulence type="fractalNoise" baseFrequency="0.99900001287460327 0.99900001287460327" numOctaves="3" seed="4316" />
<feDisplacementMap in="shape" scale="0.20000000298023224" xChannelSelector="R" yChannelSelector="G" result="displacedImage" width="100%" height="100%" />
<feMerge result="effect1_texture_450_788">
<feMergeNode in="displacedImage"/>
</feMerge>
</filter>
<filter id="filter10_i_450_788" x="65.4619" y="117.379" width="8.62354" height="11.6904" filterUnits="userSpaceOnUse" color-interpolation-filters="sRGB">
<feFlood flood-opacity="0" result="BackgroundImageFix"/>
<feBlend mode="normal" in="SourceGraphic" in2="BackgroundImageFix" result="shape"/>
<feColorMatrix in="SourceAlpha" type="matrix" values="0 0 0 0 0 0 0 0 0 0 0 0 0 0 0 0 0 0 127 0" result="hardAlpha"/>
<feOffset dx="5" dy="-10"/>
<feComposite in2="hardAlpha" operator="arithmetic" k2="-1" k3="1"/>
<feColorMatrix type="matrix" values="0 0 0 0 0.262745 0 0 0 0 0.470588 0 0 0 0 0.309804 0 0 0 0.2 0"/>
<feBlend mode="normal" in2="shape" result="effect1_innerShadow_450_788"/>
</filter>
<filter id="filter11_i_450_788" x="58.8926" y="97.5674" width="27.9098" height="24.1065" filterUnits="userSpaceOnUse" color-interpolation-filters="sRGB">
<feFlood flood-opacity="0" result="BackgroundImageFix"/>
<feBlend mode="normal" in="SourceGraphic" in2="BackgroundImageFix" result="shape"/>
<feColorMatrix in="SourceAlpha" type="matrix" values="0 0 0 0 0 0 0 0 0 0 0 0 0 0 0 0 0 0 127 0" result="hardAlpha"/>
<feOffset dx="12" dy="4"/>
<feGaussianBlur stdDeviation="0.95"/>
<feComposite in2="hardAlpha" operator="arithmetic" k2="-1" k3="1"/>
<feColorMatrix type="matrix" values="0 0 0 0 0 0 0 0 0 0 0 0 0 0 0 0 0 0 0.25 0"/>
<feBlend mode="normal" in2="shape" result="effect1_innerShadow_450_788"/>
</filter>
<filter id="filter12_g_450_788" x="57.2408" y="98.1134" width="28.3777" height="23.783" filterUnits="userSpaceOnUse" color-interpolation-filters="sRGB">
<feFlood flood-opacity="0" result="BackgroundImageFix"/>
<feBlend mode="normal" in="SourceGraphic" in2="BackgroundImageFix" result="shape"/>
<feTurbulence type="fractalNoise" baseFrequency="0.99900001287460327 0.99900001287460327" numOctaves="3" seed="4316" />
<feDisplacementMap in="shape" scale="0.20000000298023224" xChannelSelector="R" yChannelSelector="G" result="displacedImage" width="100%" height="100%" />
<feMerge result="effect1_texture_450_788">
<feMergeNode in="displacedImage"/>
</feMerge>
</filter>
</defs>
</svg>
